<?xml version="1.0" standalone="no"?>
<!DOCTYPE svg PUBLIC "-//W3C//DTD SVG 20010904//EN"
 "http://www.w3.org/TR/2001/REC-SVG-20010904/DTD/svg10.dtd">
<svg version="1.0" xmlns="http://www.w3.org/2000/svg"
 width="2000.000000pt" height="2000.000000pt" viewBox="0 0 2000.000000 2000.000000"
 preserveAspectRatio="xMidYMid meet">

<g transform="translate(0.000000,2000.000000) scale(0.100000,-0.100000)"
fill="#000000" stroke="none">
<path d="M7450 18700 c-10 -37 -9 -43 12 -60 31 -26 43 -25 56 4 9 20 6 30
-14 60 -14 20 -29 36 -34 36 -5 0 -14 -18 -20 -40z"/>
<path d="M7527 18632 c-8 -33 -34 -38 -61 -13 l-23 22 -7 -23 c-3 -13 -6 -40
-6 -61 0 -31 4 -39 26 -48 33 -12 58 -4 81 25 10 13 23 25 30 27 7 3 4 19 -11
48 -20 38 -24 41 -29 23z"/>
<path d="M7788 18627 c-23 -34 -76 -141 -98 -196 -19 -48 -19 -49 0 -66 11
-10 31 -48 45 -85 26 -68 55 -99 55 -59 0 11 -4 29 -10 39 -8 14 -1 30 33 77
l42 58 -8 90 c-9 99 -23 165 -36 165 -5 0 -15 -10 -23 -23z"/>
<path d="M7539 18509 c-31 -30 -47 -33 -91 -15 -12 6 -17 2 -20 -16 -2 -16 12
-43 48 -88 67 -85 74 -100 67 -144 -9 -60 20 -45 42 21 11 31 29 71 41 88 15
22 19 37 13 53 -12 32 -25 27 -55 -18 -24 -35 -44 -51 -44 -34 0 11 43 69 62
85 19 14 19 17 3 57 -10 23 -21 42 -26 42 -4 0 -23 -14 -40 -31z"/>
<path d="M7120 18391 c0 -10 3 -33 6 -50 6 -27 10 -31 40 -31 28 0 36 5 45 26
5 15 8 28 7 29 -9 8 -84 45 -90 45 -5 0 -8 -8 -8 -19z"/>
<path d="M8148 18389 c-40 -21 -44 -29 -28 -60 7 -12 21 -19 40 -19 25 0 30 5
39 38 20 69 13 75 -51 41z"/>
<path d="M7218 18332 c-10 -20 -22 -28 -46 -30 -37 -4 -37 -7 -2 -87 18 -41
19 -41 35 11 4 13 13 15 41 9 22 -4 41 -2 50 6 11 9 14 8 14 -5 0 -13 -11 -16
-50 -16 -49 0 -50 0 -51 -32 -1 -18 -2 -41 -3 -51 -1 -17 -103 -81 -309 -194
-62 -35 -67 -39 -50 -51 16 -12 219 -131 776 -452 l197 -115 0 -231 0 -232
-237 -138 c-131 -76 -256 -148 -278 -160 -22 -11 -126 -71 -232 -133 -106 -61
-196 -111 -200 -111 -4 0 -294 166 -643 368 l-635 368 -3 63 c-2 34 -7 61 -12
59 -4 -2 -44 -23 -89 -48 l-81 -45 0 -2018 0 -2018 118 -55 c277 -132 498
-231 647 -291 279 -112 507 -234 474 -254 -8 -5 -144 -84 -303 -176 -159 -93
-297 -179 -308 -193 -16 -22 -21 -68 -38 -330 -11 -168 -20 -314 -20 -326 0
-15 -25 -34 -105 -80 -58 -32 -104 -63 -102 -68 2 -5 12 -15 23 -22 17 -12 29
-8 97 31 l78 44 -3 -31 c-2 -27 -12 -37 -57 -64 -49 -28 -68 -50 -70 -78 -1
-6 4 -5 10 1 9 9 19 8 42 -3 29 -15 29 -16 8 -30 -18 -13 -24 -13 -50 1 -39
20 -99 7 -192 -40 -45 -23 -70 -31 -80 -24 -8 5 -27 9 -44 9 l-30 0 25 -20
c25 -19 25 -19 5 -34 -27 -21 -41 -20 -65 4 -15 15 -33 20 -71 20 -43 0 -64
-8 -147 -56 -53 -31 -100 -61 -105 -67 -4 -7 -6 -28 -5 -47 3 -34 5 -36 302
-207 165 -95 309 -173 319 -173 11 0 49 16 84 36 36 20 67 33 71 30 3 -4 -2
-131 -11 -284 -10 -152 -17 -291 -17 -308 0 -39 33 -74 69 -74 18 0 209 105
567 311 296 172 546 314 555 316 13 4 17 -11 23 -94 4 -54 3 -99 -1 -101 -4
-2 -55 -31 -113 -65 -98 -59 -105 -65 -108 -97 -2 -19 3 -43 10 -52 24 -31
328 -201 359 -200 28 1 676 366 719 405 11 10 20 28 20 40 0 12 -42 149 -94
304 l-94 281 335 194 c194 111 342 203 352 217 11 17 18 69 26 177 6 84 14
156 17 160 4 3 250 -134 547 -305 296 -171 542 -311 545 -311 7 0 1248 708
1259 719 4 4 2 101 -4 217 -9 182 -13 211 -29 224 -10 8 -20 26 -22 39 -4 32
-21 37 -33 9 -10 -23 -1035 -698 -1059 -698 -7 0 -28 10 -47 23 -19 12 -46 28
-60 36 -27 14 -39 45 -39 103 0 21 11 41 34 64 35 35 76 45 76 19 0 -9 9 -15
25 -15 14 0 25 5 25 10 0 6 -11 16 -25 22 -14 6 -25 14 -25 18 0 4 111 67 248
140 136 73 261 141 277 150 33 18 269 146 465 251 73 39 126 74 128 84 4 16
-95 -31 -253 -121 -22 -12 -173 -94 -335 -182 -162 -88 -371 -201 -465 -252
-93 -51 -179 -93 -190 -93 -18 -2 -341 179 -512 284 -34 22 -64 39 -66 39 -5
0 -161 90 -214 123 -24 15 -45 27 -48 27 -2 0 -34 18 -70 40 -36 22 -70 40
-75 40 -14 0 -13 28 10 410 11 184 22 392 26 461 l6 127 48 26 c26 14 54 26
62 26 7 0 44 -18 82 -40 37 -22 70 -40 72 -40 2 0 4 909 4 2019 l0 2019 -72
41 c-40 22 -228 130 -417 239 l-345 199 3 52 c3 53 -14 121 -29 121 -5 0 -12
16 -16 35 -3 20 -13 43 -21 50 -13 13 -13 15 0 15 16 0 27 -20 27 -49 0 -10 9
-26 19 -35 19 -17 21 -16 49 34 23 40 28 58 23 83 -7 33 -4 32 -83 36 -14 1
-18 9 -17 39 1 36 2 36 8 7 6 -28 10 -30 46 -28 42 3 54 -7 56 -47 0 -20 5
-16 24 25 33 70 32 85 -5 85 -23 0 -33 6 -42 25 -6 14 -15 25 -20 25 -18 0
-108 -66 -108 -80 -1 -37 -43 -181 -71 -240 -32 -69 -77 -117 -135 -145 -20
-9 -34 -19 -31 -21 8 -8 105 17 123 32 11 9 14 13 7 10 -6 -4 -14 -2 -18 4 -4
6 9 10 33 10 24 0 45 6 53 16 12 14 14 14 26 -2 20 -28 15 -58 -14 -86 -119
-111 -410 -122 -554 -22 -52 36 -61 54 -48 93 11 31 12 31 35 16 13 -8 38 -15
56 -15 25 0 29 -3 18 -10 -12 -7 -7 -12 20 -24 19 -8 53 -17 75 -21 l40 -6
-40 22 c-98 52 -156 146 -195 315 l-21 92 -54 36 -54 36 -13 -28z m97 -208
c-8 -16 -15 -36 -15 -45 0 -9 -7 -22 -15 -29 -9 -8 -15 -9 -15 -2 0 6 4 13 9
16 4 3 11 20 15 37 6 31 25 63 33 56 2 -2 -3 -17 -12 -33z m57 -106 c-7 -7
-12 -20 -12 -30 0 -10 -4 -18 -10 -18 -5 0 -10 6 -10 13 0 17 31 60 38 52 3
-3 0 -11 -6 -17z m609 -16 c7 -17 6 -29 -1 -36 -7 -7 -10 -3 -10 11 0 12 -4
25 -10 28 -5 3 -10 13 -10 21 0 22 19 7 31 -24z m-421 -2051 l0 -99 -166 -96
c-91 -53 -172 -96 -180 -96 -11 0 -14 19 -14 93 0 50 4 97 8 103 9 15 323 194
340 194 9 0 12 -26 12 -99z m0 -1270 c0 -97 -1 -100 -27 -119 -48 -33 -312
-182 -323 -182 -7 0 -10 35 -8 102 l3 102 165 97 c91 53 171 97 178 98 9 1 12
-25 12 -98z m0 -1280 l0 -99 -52 -30 c-29 -16 -104 -60 -167 -96 -62 -36 -120
-66 -127 -66 -19 0 -20 184 -1 201 24 23 312 187 330 188 15 1 17 -10 17 -98z
m1235 -1200 c77 -45 153 -93 169 -108 41 -38 66 -99 66 -160 0 -61 -19 -87
-60 -81 -14 2 -115 56 -223 118 l-197 115 6 100 c3 55 7 110 10 123 l5 23 42
-25 c23 -14 105 -61 182 -105z m1858 -231 c31 -19 35 -25 41 -82 3 -34 3 -65
-1 -69 -24 -24 -1061 -649 -1076 -649 -10 0 -93 43 -185 96 -92 53 -331 191
-532 307 -201 116 -366 211 -368 212 -5 4 11 145 17 145 4 0 241 -135 526
-300 330 -191 527 -299 540 -297 11 2 225 145 475 318 523 362 480 333 480
320 0 -6 -7 -11 -16 -11 -23 0 -11 -24 13 -28 16 -2 23 4 28 27 8 36 13 37 58
11z m-1389 -80 c43 -38 66 -87 66 -139 0 -120 -153 -34 -167 94 -9 79 38 100
101 45z m-3304 -705 c0 -28 -7 -30 -32 -11 -13 10 -15 15 -6 24 20 20 38 13
38 -13z m-141 -79 l24 -13 -23 -13 c-30 -16 -77 5 -59 27 14 16 27 16 58 -1z
m121 -31 c22 -26 -2 -41 -41 -25 -29 13 -30 14 -13 27 23 17 39 16 54 -2z
m-204 -15 l27 -11 -21 -15 c-19 -13 -24 -13 -47 2 -20 13 -23 19 -13 25 17 11
21 11 54 -1z m132 -56 c-16 -9 -28 -9 -43 -2 -30 16 -30 17 -9 32 16 12 23 12
46 -2 l28 -16 -22 -12z m-213 14 c14 -6 25 -15 25 -19 0 -15 -38 -19 -65 -7
-25 11 -25 13 -9 25 21 16 17 16 49 1z m-200 -38 c3 -5 -5 -15 -18 -21 -19 -9
-31 -8 -53 4 l-28 14 30 16 c29 15 55 10 69 -13z m330 7 c36 -27 -5 -49 -47
-26 -21 11 -21 12 -3 25 23 17 27 17 50 1z m-193 -21 c16 -12 16 -14 -5 -23
-16 -8 -29 -8 -43 0 -27 14 -27 14 -19 26 9 15 46 13 67 -3z m337 5 c16 -11 8
-41 -12 -41 -7 0 -22 7 -33 15 -16 13 -17 16 -4 25 18 12 31 12 49 1z m-565
-40 c3 -5 -9 -18 -27 -28 -29 -17 -34 -18 -59 -4 l-26 15 36 22 c36 22 61 20
76 -5z m347 -17 c-16 -11 -25 -12 -45 -2 -32 14 -33 22 -3 35 16 7 28 6 45 -5
22 -14 22 -15 3 -28z m-191 -5 c0 -15 -38 -19 -64 -7 l-27 12 22 12 c23 12 69
1 69 -17z m326 16 c4 -8 10 -12 15 -9 5 3 9 1 9 -5 0 -23 -36 -30 -63 -12
l-27 18 22 11 c31 15 38 14 44 -3z m-221 -27 c14 -6 25 -15 25 -19 0 -17 -49
-21 -70 -6 -21 14 -21 16 -3 26 22 13 18 13 48 -1z m-193 -19 c20 -11 19 -11
-8 -29 -27 -16 -31 -16 -56 -2 l-28 16 23 13 c28 15 43 16 69 2z m347 -3 l24
-13 -23 -13 c-31 -17 -78 3 -60 25 15 18 28 18 59 1z m-214 -44 c-2 -3 -22
-15 -42 -28 -35 -21 -40 -21 -66 -7 l-30 15 49 28 c45 25 50 26 72 12 12 -8
20 -17 17 -20z m350 22 c17 -13 18 -16 5 -24 -19 -12 -24 -12 -55 2 l-26 12
23 13 c29 16 29 16 53 -3z m-219 -21 l26 -16 -23 -13 c-19 -10 -27 -9 -46 3
-22 15 -22 16 -6 29 23 17 19 17 49 -3z m144 -50 c-16 -11 -24 -11 -42 -2 -33
17 -33 18 -12 33 16 12 22 12 46 -2 26 -15 26 -16 8 -29z m-217 3 c19 -14 14
-22 -30 -45 -19 -9 -28 -8 -49 5 l-26 18 34 17 c40 22 48 22 71 5z m132 -19
c36 -27 -5 -49 -47 -26 -21 11 -21 12 -3 25 23 17 27 17 50 1z m160 -41 c18
-13 18 -14 -3 -25 -32 -17 -78 10 -55 32 11 11 38 8 58 -7z m-230 -10 c18 -13
18 -14 -3 -25 -32 -17 -78 10 -55 32 11 11 38 8 58 -7z m114 -53 l24 -16 -28
-15 c-23 -11 -32 -12 -51 -1 -30 15 -30 23 -1 37 30 14 29 14 56 -5z"/>
<path d="M7530 18160 c-15 -28 -16 -148 -2 -162 9 -9 12 2 12 48 0 32 4 76 9
97 10 40 -1 50 -19 17z"/>
<path d="M7774 18158 c4 -13 9 -53 13 -90 3 -38 10 -68 14 -68 13 0 11 111 -2
149 -12 35 -35 43 -25 9z"/>
<path d="M7535 17949 c10 -35 23 -45 18 -15 -3 15 -10 29 -15 32 -6 4 -7 -2
-3 -17z"/>
<path d="M7781 17954 c0 -11 3 -14 6 -6 3 7 2 16 -1 19 -3 4 -6 -2 -5 -13z"/>
<path d="M4119 15975 c-27 -9 -63 -31 -85 -53 -59 -58 -80 -68 -191 -91 -218
-44 -318 -139 -331 -313 -5 -66 -8 -75 -38 -104 -57 -53 -79 -115 -79 -219 1
-49 6 -109 13 -132 l13 -43 27 31 c35 39 106 50 164 26 35 -15 88 -78 108
-131 5 -14 21 -32 35 -42 23 -15 27 -15 50 0 16 10 29 33 36 60 l11 44 75 11
c42 6 78 10 80 7 2 -2 9 -35 15 -72 20 -134 63 -178 175 -177 98 1 158 49 184
147 28 106 48 112 104 31 21 -30 39 -54 41 -53 1 2 -2 26 -8 54 -14 72 2 103
66 127 64 23 148 24 182 2 25 -16 26 -21 22 -84 -6 -76 -30 -135 -66 -159 -36
-24 -112 -21 -150 6 l-30 22 21 -39 c25 -46 60 -57 127 -42 75 17 112 70 126
178 3 32 13 67 20 78 17 24 18 67 2 83 -20 20 -213 15 -273 -7 -27 -11 -69
-26 -92 -35 -41 -15 -45 -15 -135 15 -89 30 -98 31 -208 25 -63 -3 -130 -9
-148 -12 l-33 -6 31 44 c34 48 60 136 60 204 l0 42 73 26 c39 14 96 31 126 36
80 15 233 12 309 -5 82 -19 183 -73 200 -107 6 -14 15 -59 18 -100 6 -72 8
-75 31 -70 62 12 116 111 94 174 -14 40 -15 38 17 38 35 0 60 25 68 69 7 31 6
32 -19 20 -20 -9 -33 -9 -55 0 -42 17 -62 59 -62 128 0 104 -55 158 -156 151
l-54 -3 0 35 c0 77 -71 136 -176 147 -43 5 -60 2 -89 -16 l-37 -21 -20 25
c-41 53 -116 73 -189 50z m153 -897 c73 -22 93 -72 62 -160 -19 -57 -47 -84
-104 -99 -40 -11 -51 -10 -93 9 -54 24 -71 54 -83 140 -9 69 0 98 33 110 39
14 138 14 185 0z"/>
<path d="M4193 14994 c-15 -24 -15 -29 -2 -53 28 -49 99 -32 99 24 0 55 -67
75 -97 29z"/>
<path d="M4155 15238 c-26 -15 -35 -28 -35 -56 0 -18 4 -22 18 -18 9 3 36 10
60 16 47 12 54 31 20 54 -26 19 -36 19 -63 4z"/>
<path d="M4606 15208 c-20 -28 -15 -34 40 -43 26 -3 53 -9 60 -12 21 -8 18 41
-4 60 -27 24 -78 22 -96 -5z"/>
<path d="M4610 15010 c-11 -11 -20 -28 -20 -38 0 -26 32 -52 63 -52 44 0 64
62 29 93 -25 22 -48 21 -72 -3z"/>
<path d="M3633 14633 c-13 -2 -23 -5 -23 -6 0 -1 11 -31 24 -66 l23 -64 6 48
c9 63 9 95 0 94 -5 -1 -18 -4 -30 -6z"/>
<path d="M4200 14630 c0 -5 8 -10 18 -10 20 0 74 -34 73 -46 -2 -20 11 -44 23
-44 7 0 21 9 32 21 20 23 12 33 -36 46 -14 3 -42 14 -62 24 -43 22 -48 23 -48
9z"/>
<path d="M3220 14591 c-25 -10 -146 -76 -270 -148 -124 -71 -322 -185 -440
-253 -186 -107 -225 -134 -290 -199 -59 -59 -86 -97 -123 -171 -86 -171 -86
-97 -4 -1305 l72 -1050 133 -68 132 -68 0 36 c0 19 -13 230 -30 468 -16 237
-43 635 -60 882 -17 248 -35 511 -40 585 -13 179 -1 247 66 395 2 6 -29 27
-71 48 -41 20 -75 40 -75 45 0 4 17 32 37 62 75 111 117 142 564 400 542 312
526 304 599 304 33 1 60 2 60 4 0 2 -24 14 -52 27 -64 30 -143 32 -208 6z"/>
<path d="M4572 14287 c-27 -32 -110 -49 -217 -45 l-105 4 -6 -33 c-7 -38 -5
-47 27 -120 19 -43 21 -59 13 -90 -23 -93 -179 -129 -358 -83 -139 35 -243
105 -287 193 -12 23 -23 43 -24 45 -6 7 -237 -103 -350 -167 -68 -39 -127 -71
-132 -71 -5 0 -42 -20 -83 -44 -146 -85 -223 -190 -256 -346 -13 -62 -15 -106
-8 -260 4 -102 7 -412 5 -690 -2 -284 2 -592 8 -705 13 -238 37 -448 57 -490
7 -16 18 -69 24 -118 16 -127 11 -122 92 -80 83 44 170 55 229 30 20 -8 217
-119 439 -247 394 -228 403 -232 429 -218 14 9 165 95 335 193 l309 178 -34
18 c-86 46 -146 59 -614 139 -528 90 -795 156 -883 220 -50 36 -79 76 -102
143 -19 54 -72 291 -113 508 l-24 126 106 6 c196 11 365 50 502 116 34 17 65
28 68 25 3 -3 20 -91 36 -196 l30 -191 274 -108 c455 -181 701 -270 796 -290
105 -22 230 -24 402 -7 105 10 137 10 235 -5 62 -9 124 -17 138 -17 24 0 360
186 360 199 0 4 -82 27 -182 51 -101 23 -205 48 -233 55 -27 7 -158 34 -290
60 -132 26 -242 49 -243 51 -2 1 -8 38 -13 81 -5 43 -23 141 -40 218 -17 77
-39 181 -50 230 -11 53 -19 130 -19 185 l0 96 94 21 c150 34 238 76 316 149
37 35 79 81 94 103 l28 40 -167 343 c-92 189 -196 402 -231 473 -93 189 -167
272 -286 317 -57 21 -82 23 -96 5z"/>
<path d="M14300 12688 c-405 -235 -1005 -582 -1640 -947 -250 -144 -465 -273
-477 -287 l-23 -25 0 -1015 0 -1015 25 -24 c31 -32 74 -32 123 -1 47 31 852
496 858 496 2 0 4 -16 4 -36 0 -19 4 -44 10 -54 10 -19 303 -190 359 -209 44
-15 127 -13 172 3 58 21 429 238 445 260 8 11 14 43 14 71 0 65 -13 78 -178
175 -67 39 -130 82 -138 95 -8 13 -14 38 -12 56 3 32 12 39 268 186 634 366
631 364 646 399 11 26 14 207 13 1001 0 545 -4 985 -9 1008 -5 22 -17 45 -26
52 -44 32 -78 18 -434 -189z m388 -836 c1 -544 -1 -850 -8 -862 -5 -10 -56
-45 -112 -77 -57 -33 -281 -162 -498 -288 -217 -125 -451 -260 -520 -300 -69
-40 -215 -124 -325 -188 -110 -63 -267 -154 -350 -202 -374 -217 -536 -308
-540 -303 -7 7 -7 1702 0 1719 3 8 18 21 33 30 15 8 104 60 197 114 94 54 240
138 325 188 85 49 286 165 445 257 160 92 409 236 555 320 146 84 337 195 425
245 88 51 198 115 245 143 140 84 125 181 128 -796z m-1098 -1615 c0 -35 -33
-81 -53 -74 -22 7 -20 58 4 83 32 34 49 31 49 -9z"/>
<path d="M13500 11849 c-514 -297 -938 -545 -942 -552 -4 -7 -8 -324 -8 -704
0 -548 3 -693 13 -693 11 0 210 113 627 355 74 43 281 162 460 265 179 103
433 250 565 326 l240 139 3 703 c2 558 0 702 -10 702 -7 0 -434 -244 -948
-541z m728 -373 c2 -402 0 -483 -12 -501 -8 -12 -128 -88 -268 -168 -139 -80
-363 -209 -498 -287 -452 -261 -489 -282 -507 -278 -17 3 -18 31 -21 476 -2
396 0 477 12 501 10 19 55 50 143 101 70 40 180 103 243 140 63 37 223 129
355 205 132 76 301 174 375 217 74 43 144 77 155 76 20 -3 20 -11 23 -482z
m-1468 -1016 c0 -36 -20 -70 -41 -70 -5 0 -9 -13 -9 -29 0 -23 -8 -34 -34 -50
-18 -12 -36 -21 -40 -21 -3 0 -6 20 -6 45 0 33 5 47 19 54 12 7 17 18 14 33
-2 13 0 28 4 33 13 18 77 54 85 49 4 -3 8 -23 8 -44z"/>
<path d="M12640 10340 l0 -39 30 17 c30 17 44 59 15 49 -8 -4 -17 -2 -20 3
-13 22 -25 8 -25 -30z"/>
<path d="M11145 11591 c-148 -87 -756 -438 -1350 -781 -594 -343 -1138 -657
-1210 -698 -71 -41 -449 -260 -840 -485 -390 -225 -722 -418 -737 -429 l-28
-19 0 -437 c0 -240 4 -442 8 -448 13 -19 56 -44 75 -44 10 0 32 9 48 21 l29
20 0 240 c0 131 3 239 7 239 3 0 67 -36 142 -79 118 -68 504 -292 1296 -749
110 -63 273 -157 363 -209 l162 -95 0 -1203 c0 -1038 2 -1212 15 -1262 19 -74
20 -268 0 -348 -8 -36 -14 -112 -15 -187 l0 -126 113 5 c273 14 540 -55 656
-169 46 -45 101 -147 101 -186 0 -13 -7 -37 -16 -53 -8 -17 -14 -32 -12 -33 2
-2 201 -117 443 -256 242 -139 593 -342 780 -450 187 -108 379 -219 427 -246
l87 -49 3 -290 3 -289 34 -23 c42 -28 40 -28 82 0 l34 23 3 289 3 290 182 104
c100 58 308 177 462 266 744 429 894 515 899 515 3 0 6 -113 6 -250 l0 -250
33 -20 c40 -25 52 -25 88 1 l29 20 0 564 c0 388 3 566 11 570 22 14 285 8 379
-8 248 -44 407 2 431 123 20 107 6 360 -20 360 -5 0 -14 -20 -20 -44 -29 -118
-147 -159 -491 -170 -85 -3 -185 -8 -222 -12 l-68 -7 0 1247 c0 685 -1 1246
-3 1246 -2 0 -257 -147 -568 -326 -1088 -629 -1186 -684 -1212 -684 -14 0 -50
14 -79 31 -65 39 -1195 691 -1748 1009 -223 128 -457 263 -520 300 -63 37
-168 97 -233 134 -64 38 -124 78 -132 89 -20 29 -19 70 3 95 9 11 166 105 347
210 182 104 347 200 368 212 l37 22 16 -38 c59 -150 78 -186 103 -196 30 -11
86 -4 107 13 18 15 14 28 -53 166 -30 61 -53 115 -50 120 3 5 341 202 751 438
l745 430 1 1198 c0 658 -3 1197 -7 1196 -5 -1 -129 -72 -278 -158z m-527
-1561 c106 -14 235 -51 331 -97 l76 -36 -55 -7 c-31 -4 -87 -22 -125 -41 -39
-18 -73 -32 -77 -31 -13 3 -1 -28 19 -50 68 -72 54 -203 -28 -267 -61 -47
-162 -48 -222 -1 l-25 20 -20 -48 c-31 -71 -45 -135 -40 -187 l3 -47 -26 31
c-41 50 -125 218 -153 310 -55 173 -45 299 28 376 45 48 76 63 151 75 72 11
73 11 163 0z m-1085 -838 c37 -39 56 -126 36 -167 -32 -68 -106 -30 -129 65
-12 52 -7 84 18 113 22 24 44 21 75 -11z"/>
<path d="M16035 11593 c-68 -9 -173 -36 -245 -63 -246 -95 -400 -269 -417
-471 -7 -76 10 -157 39 -194 21 -27 38 -33 38 -12 0 16 43 106 63 132 14 18
14 15 5 -31 -8 -38 -7 -63 4 -100 l14 -49 31 55 c17 30 40 63 51 73 21 19 21
19 15 -36 -7 -64 7 -112 47 -162 16 -20 34 -52 40 -71 6 -19 20 -39 31 -44 21
-12 26 -7 81 74 55 81 133 107 207 68 95 -48 108 -179 28 -284 -55 -72 -136
-105 -189 -77 -20 11 -20 9 -13 -27 10 -56 62 -177 96 -223 80 -112 267 -177
446 -156 l60 7 25 51 c30 61 66 110 201 271 165 198 223 300 253 447 35 173
-5 334 -101 401 -34 24 -44 38 -49 69 -34 212 -294 361 -621 357 -60 0 -123
-3 -140 -5z"/>
<path d="M2780 11033 c0 -52 -7 -46 110 -111 127 -70 179 -106 220 -147 l44
-45 4 -120 c4 -114 0 -133 -23 -111 -6 5 -118 71 -250 146 -327 188 -380 226
-412 302 -12 30 -12 38 1 64 13 27 13 28 -3 19 -27 -14 -78 -75 -102 -122 -24
-46 -49 -223 -33 -237 5 -5 209 -125 454 -266 245 -141 532 -307 638 -368
l192 -112 0 -830 0 -830 83 -47 82 -47 5 394 5 394 140 -80 c77 -45 255 -148
395 -229 140 -81 405 -234 588 -340 282 -163 332 -195 332 -215 0 -27 41 -159
62 -198 8 -16 56 -55 108 -90 79 -52 113 -84 205 -190 60 -70 128 -139 149
-154 53 -35 156 -70 250 -85 l76 -12 0 -1382 c0 -760 3 -1390 6 -1399 4 -9 24
-25 45 -36 39 -19 39 -19 79 1 l40 20 0 1399 0 1398 58 12 c85 16 193 71 230
117 30 36 32 44 32 114 0 143 -44 198 -227 285 l-93 45 0 415 c0 228 -2 415
-4 415 -2 0 -17 -7 -32 -15 -36 -18 -62 -18 -94 0 -14 8 -28 14 -33 15 -4 0
-7 -165 -7 -367 l1 -366 -70 -22 c-38 -12 -85 -32 -104 -44 -34 -21 -71 -20
-64 3 5 15 115 74 155 82 38 7 39 13 7 37 -23 16 -27 16 -102 -8 -43 -13 -94
-35 -113 -49 -30 -20 -38 -22 -53 -11 -17 12 -15 15 15 36 18 13 67 38 110 55
l77 31 -28 27 c-27 26 -31 27 -72 16 -59 -16 -138 -57 -171 -88 -23 -21 -30
-23 -43 -12 -14 12 -13 16 11 41 29 31 135 86 183 95 17 4 31 8 31 9 0 1 -17
33 -38 71 -42 77 -55 84 -131 63 -158 -42 -228 -109 -191 -180 6 -10 7 -19 3
-19 -4 0 -64 33 -133 73 l-125 73 -32 79 c-18 44 -33 83 -33 88 0 4 26 7 58 7
162 0 369 60 451 130 l25 21 -28 142 c-15 78 -32 168 -39 200 l-12 59 -450
260 c-519 299 -510 294 -499 276 4 -7 -8 -1 -27 15 -18 15 -56 39 -84 53 -27
15 -58 33 -67 41 -27 24 -218 132 -218 124 0 -4 -39 -68 -86 -142 -92 -142
-118 -200 -129 -290 -10 -77 12 -238 45 -342 l28 -88 -61 35 c-34 19 -116 66
-182 104 l-120 70 -3 331 c-1 182 0 331 2 331 3 0 40 -18 83 -41 106 -56 153
-53 275 16 48 28 88 52 88 55 0 3 -36 24 -80 47 -43 24 -146 83 -227 131 -81
49 -211 124 -288 167 -77 43 -151 88 -165 100 -14 12 -51 37 -83 55 -32 18
-61 38 -63 44 -3 7 -3 58 -2 113 l3 102 110 -70 c61 -38 117 -69 125 -69 8 1
43 18 77 39 l62 37 -52 30 c-29 17 -144 84 -257 149 -113 65 -247 142 -297
171 -225 131 -279 162 -300 173 -22 11 -23 10 -23 -36z m1763 -1454 c136 -70
204 -156 307 -394 40 -93 108 -248 152 -343 43 -95 78 -175 78 -176 0 -2 -10
-1 -23 1 -55 11 -105 -74 -88 -149 5 -21 7 -38 4 -38 -5 0 -412 235 -433 251
-13 9 -13 11 -1 16 33 13 90 77 109 121 11 26 24 71 28 99 5 43 10 52 28 55
28 4 82 96 96 163 9 44 8 60 -4 90 -9 20 -24 39 -34 41 -10 3 -31 26 -46 51
-42 66 -117 135 -181 167 -59 31 -70 40 -60 56 9 15 21 13 68 -11z m100 -239
c56 -62 85 -116 70 -131 -8 -8 -21 3 -50 43 -51 68 -112 123 -168 150 -42 21
-54 36 -39 51 14 13 145 -67 187 -113z m-150 -42 c72 -36 187 -163 171 -189
-11 -19 -30 -7 -57 36 -37 58 -89 102 -154 132 -52 24 -60 32 -46 46 8 9 36 1
86 -25z m1607 -1356 c0 -25 -83 -67 -106 -54 -16 9 -12 14 31 41 56 35 75 39
75 13z m190 -57 c0 -8 -4 -15 -10 -15 -5 0 -10 7 -10 15 0 8 5 15 10 15 6 0
10 -7 10 -15z"/>
<path d="M4766 10779 c-25 -30 -36 -66 -16 -54 6 3 10 12 10 19 0 16 42 56 59
56 6 0 18 -15 26 -32 13 -31 14 -32 15 -7 0 55 -54 66 -94 18z"/>
<path d="M4869 10729 c-16 -17 -29 -37 -29 -45 0 -22 6 -17 29 22 25 41 64 45
69 7 4 -24 22 -32 22 -10 0 20 -30 57 -47 57 -8 0 -28 -14 -44 -31z"/>
<path d="M4973 10678 c-27 -31 -46 -68 -34 -68 5 0 12 8 15 18 4 11 17 29 31
42 20 19 27 21 39 11 8 -7 17 -22 19 -34 3 -16 5 -13 6 9 2 48 -41 60 -76 22z"/>
<path d="M5068 10623 c-21 -25 -40 -63 -31 -63 4 1 17 15 28 33 29 46 61 48
74 5 6 -24 9 -27 10 -11 2 37 -10 53 -39 53 -15 0 -34 -8 -42 -17z"/>
<path d="M5180 10577 c-20 -15 -50 -58 -50 -72 0 -5 14 7 31 28 36 44 63 48
77 10 9 -25 11 -25 11 -6 1 23 -23 53 -42 53 -7 0 -19 -6 -27 -13z"/>
<path d="M5256 10499 c-14 -17 -26 -38 -26 -47 1 -14 3 -13 12 3 17 32 50 65
65 65 7 0 19 -15 27 -32 9 -21 15 -27 15 -15 3 60 -52 75 -93 26z"/>
<path d="M5351 10441 c-12 -16 -21 -35 -21 -43 0 -7 10 1 21 19 31 49 79 56
79 12 0 -10 5 -19 10 -19 12 0 12 2 0 34 -14 38 -62 36 -89 -3z"/>
<path d="M5451 10385 c-31 -36 -39 -55 -22 -55 5 0 12 9 16 20 3 11 18 29 32
40 29 23 49 14 56 -23 4 -19 4 -19 6 4 3 57 -43 64 -88 14z"/>
<path d="M5558 10343 c-21 -25 -41 -64 -35 -70 3 -3 13 9 21 26 30 58 78 62
89 8 4 -19 4 -19 6 4 2 47 -50 67 -81 32z"/>
<path d="M4012 10304 c3 -23 60 -59 503 -315 299 -173 507 -288 518 -285 36 9
737 419 737 432 0 21 -20 27 -33 11 -11 -14 -154 -98 -548 -324 -80 -45 -154
-83 -164 -83 -26 0 -995 562 -995 577 0 7 -5 13 -11 13 -6 0 -9 -12 -7 -26z"/>
<path d="M5669 10295 c-14 -7 -31 -26 -37 -41 -18 -37 -7 -43 12 -6 14 27 34
42 56 42 5 0 16 -12 24 -27 13 -25 15 -26 16 -7 0 11 -8 28 -18 37 -22 20 -20
20 -53 2z"/>
<path d="M15245 9973 c-28 -15 -28 -17 -10 -25 17 -7 17 -8 -4 -4 -30 6 -141
-52 -141 -74 0 -8 70 -64 155 -125 113 -81 164 -111 192 -115 24 -3 33 -8 26
-13 -7 -5 -13 -17 -13 -27 0 -19 1 -19 40 1 22 12 40 26 40 33 0 6 38 32 84
58 92 53 113 82 102 142 -8 42 -67 98 -122 116 -22 8 -62 14 -90 14 -29 1 -50
4 -48 7 5 8 -109 29 -152 29 -16 -1 -42 -8 -59 -17z m180 -36 c-37 -25 -140
-79 -121 -63 10 8 24 17 30 20 7 3 6 8 -4 16 -12 8 -10 9 10 5 16 -3 36 2 55
14 33 22 61 29 30 8z m-150 -87 c-3 -5 -12 -10 -18 -10 -7 0 -6 4 3 10 19 12
23 12 15 0z"/>
<path d="M14615 9656 c-88 -51 -365 -211 -615 -356 -250 -144 -456 -263 -458
-265 -7 -6 105 -140 155 -183 73 -64 177 -134 181 -122 2 5 -9 42 -24 84 -30
86 -27 122 11 132 32 8 51 -5 151 -99 55 -51 89 -94 109 -134 42 -85 108 -184
146 -219 19 -18 59 -46 89 -63 l56 -31 344 200 c190 110 348 201 352 202 3 2
9 19 13 39 l7 36 -69 13 c-65 12 -211 50 -243 64 -10 4 -39 -13 -82 -48 -71
-59 -168 -106 -218 -106 -27 0 -29 3 -26 29 3 28 89 161 104 161 4 0 8 36 9
80 2 102 16 146 54 165 16 9 32 27 35 40 8 30 58 75 85 75 11 0 24 11 31 26
14 30 56 54 95 54 15 0 66 -9 112 -20 87 -21 90 -21 132 20 8 8 30 28 49 43
18 15 29 32 24 36 -29 25 -415 241 -431 240 -10 0 -90 -42 -178 -93z"/>
<path d="M17975 9548 c-16 -6 -230 -126 -474 -266 -474 -273 -519 -305 -608
-429 -27 -38 -49 -60 -56 -56 -7 4 -26 17 -43 30 -17 13 -33 23 -36 23 -13 0
-82 -173 -95 -240 -8 -41 -36 -412 -61 -825 l-47 -750 -136 2 c-272 3 -529 81
-693 210 l-57 44 8 72 c10 93 10 343 0 429 l-9 68 -40 11 c-22 6 -44 7 -48 2
-4 -4 -19 -48 -34 -98 -36 -118 -87 -223 -126 -260 -30 -29 -35 -30 -113 -29
-66 1 -104 8 -195 38 -139 46 -273 101 -405 167 -60 31 -103 47 -109 41 -5 -5
-12 -41 -15 -80 l-6 -72 -66 -1 c-58 0 -164 -22 -213 -43 -17 -8 -18 1 -18
103 0 61 -2 111 -4 111 -14 0 -145 -83 -149 -94 -3 -8 -6 -70 -6 -139 0 -123
-1 -127 -35 -194 -47 -94 -73 -189 -86 -308 -23 -230 -100 -1270 -100 -1364 0
-21 -8 -29 -40 -43 -44 -18 -80 -68 -80 -111 0 -35 40 -115 74 -146 14 -14 26
-33 26 -43 0 -42 137 -111 256 -127 59 -9 165 -1 218 15 15 5 18 2 14 -13 -5
-19 1 -21 80 -27 47 -3 134 -18 193 -31 60 -14 135 -28 166 -31 125 -13 291
36 337 98 37 52 22 374 -19 408 -15 12 -14 14 -30 -64 -9 -44 -52 -83 -118
-107 -55 -19 -87 -22 -285 -27 -123 -2 -227 0 -232 4 -5 5 14 92 40 194 27
102 66 257 87 345 20 88 39 151 40 140 1 -11 7 -85 12 -165 10 -141 11 -146
38 -168 79 -64 230 -86 358 -53 43 12 83 25 87 29 4 4 15 62 24 127 8 66 17
121 19 124 2 2 248 -138 547 -310 l543 -314 70 0 c70 0 70 0 221 88 83 48 153
87 157 87 3 0 7 -33 9 -72 3 -73 3 -73 40 -93 37 -20 38 -20 73 -1 l35 19 0
118 c0 117 0 119 27 136 14 10 261 153 547 319 l521 301 0 94 c-1 82 -4 101
-27 145 -34 65 -67 104 -109 128 l-34 20 38 -42 c52 -59 51 -92 -5 -133 -24
-17 -60 -40 -82 -51 l-39 -20 7 54 c3 29 8 107 11 172 3 66 8 123 10 126 3 4
112 69 244 145 l240 138 6 71 c22 259 135 2151 131 2194 -8 88 -38 127 -150
199 -86 55 -106 63 -145 62 -25 0 -59 -5 -76 -11z m-2658 -2623 c46 -19 893
-507 893 -515 0 -8 -306 -180 -320 -180 -11 0 -179 96 -780 443 -85 49 -166
96 -178 104 -24 14 -22 16 80 75 56 33 119 66 138 74 48 17 123 17 167 -1z
m-353 -424 c44 -27 132 -76 194 -110 l112 -63 0 -54 c0 -30 -2 -54 -4 -54 -12
0 -308 177 -354 212 -58 43 -92 90 -92 126 0 22 1 22 31 6 17 -8 68 -37 113
-63z m726 -379 c178 -75 360 -129 507 -151 189 -29 444 -2 673 71 71 22 304
126 370 165 3 2 4 -14 2 -35 -3 -35 -9 -42 -55 -70 -52 -30 -415 -240 -473
-273 -17 -9 -99 -56 -182 -104 -134 -77 -156 -87 -199 -87 -27 1 -60 5 -73 10
-14 5 -164 90 -335 189 -170 99 -349 201 -397 229 l-87 49 -1 63 0 62 78 -39
c42 -21 120 -57 172 -79z"/>
<path d="M3095 9287 c-89 -54 -104 -87 -80 -178 16 -66 34 -98 79 -147 67 -72
118 -79 212 -26 79 44 99 76 91 146 -10 85 -23 100 -114 133 l-83 30 0 43 c0
55 -14 54 -105 -1z"/>
<path d="M14822 9069 c-7 -11 -30 -27 -50 -36 -20 -8 -47 -24 -59 -36 -25 -22
-30 -47 -10 -47 18 0 158 120 151 131 -8 14 -18 11 -32 -12z"/>
<path d="M13351 8926 c-60 -36 -75 -57 -66 -87 6 -18 74 -69 93 -69 14 0 42
94 42 143 0 26 -3 47 -7 46 -5 0 -32 -15 -62 -33z"/>
<path d="M12155 8910 c4 -6 11 -8 16 -5 14 9 11 15 -7 15 -8 0 -12 -5 -9 -10z"/>
<path d="M11772 8731 c-145 -88 -258 -162 -252 -166 5 -3 18 -21 28 -40 l17
-33 267 162 c147 88 268 167 268 174 0 22 -31 62 -49 62 -9 0 -134 -72 -279
-159z"/>
<path d="M12525 8614 c-214 -124 -430 -249 -480 -278 -49 -29 -196 -115 -326
-190 -222 -128 -237 -139 -242 -169 -3 -18 0 -37 7 -43 11 -11 404 -238 463
-268 40 -20 -15 -49 768 404 347 200 649 374 673 388 23 13 42 27 41 30 0 4
-12 29 -27 56 -26 46 -38 55 -242 172 -118 68 -222 124 -230 124 -8 0 -190
-102 -405 -226z m411 151 c-21 -16 -32 -13 -21 4 3 6 14 11 23 11 15 -1 15 -2
-2 -15z m-56 -35 c-20 -13 -43 -13 -35 0 3 6 16 10 28 10 18 0 19 -2 7 -10z
m165 -26 c-13 -10 -23 -10 -41 -2 -22 10 -22 12 -7 23 13 10 23 10 41 2 22
-10 22 -12 7 -23z m-239 -16 c-10 -6 -20 -7 -24 -3 -9 8 20 25 31 18 5 -3 2
-10 -7 -15z m169 -2 c18 -13 18 -14 -2 -20 -30 -10 -56 3 -42 20 14 17 20 17
44 0z m166 -23 c27 -14 49 -30 49 -34 0 -21 -26 -17 -80 12 -39 22 -55 36 -47
41 18 12 25 10 78 -19z m-395 -8 c-10 -8 -23 -12 -29 -8 -11 7 12 23 33 23 12
-1 11 -4 -4 -15z m163 -4 c15 -10 7 -31 -13 -31 -8 0 -19 6 -25 13 -19 23 9
36 38 18z m141 -25 c-4 -4 -21 -5 -37 -1 -26 6 -27 7 -9 20 14 11 22 11 37 2
11 -7 15 -15 9 -21z m-365 -10 c18 -13 18 -14 -4 -21 -27 -8 -60 13 -39 26 18
12 21 11 43 -5z m175 -17 c0 -14 -27 -16 -50 -4 -22 12 -22 13 -5 23 18 10 55
-3 55 -19z m125 7 c18 -13 18 -14 -4 -21 -27 -8 -60 13 -39 26 18 12 21 11 43
-5z m145 -15 c0 -16 -26 -19 -50 -6 -22 12 -22 13 -4 23 19 11 54 0 54 -17z
m156 -12 c30 -17 52 -35 49 -40 -10 -16 -33 -10 -86 22 -37 23 -47 34 -37 40
18 12 14 13 74 -22z m-666 1 c24 -16 -7 -31 -37 -17 -17 8 -20 13 -11 19 17
10 30 10 48 -2z m152 -11 c17 -9 18 -13 7 -20 -18 -11 -30 -11 -49 1 -13 9
-13 11 0 20 19 12 17 12 42 -1z m142 5 c9 -3 16 -10 16 -14 0 -16 -32 -20 -52
-6 -14 10 -16 15 -6 19 19 8 24 8 42 1z m151 -25 c-8 -13 -42 -11 -51 2 -3 6
-1 15 7 19 16 10 52 -7 44 -21z m131 10 c11 -18 -17 -28 -43 -16 -17 8 -20 13
-11 19 19 11 46 10 54 -3z m-631 -30 c-8 -13 -42 -11 -51 2 -3 6 -1 15 7 19
16 10 52 -7 44 -21z m148 2 c13 -2 7 -19 -9 -25 -9 -3 -25 0 -36 8 -20 15 -8
26 22 20 8 -1 18 -3 23 -3z m129 -2 c17 -9 18 -13 7 -20 -18 -11 -30 -11 -49
1 -13 9 -13 11 0 20 19 12 17 12 42 -1z m147 2 c15 -10 7 -31 -13 -31 -8 0
-19 6 -25 13 -19 23 9 36 38 18z m141 -26 c-9 -11 -17 -11 -37 -2 -23 10 -23
12 -7 24 23 17 61 -2 44 -22z m134 12 c18 -13 18 -14 2 -20 -19 -7 -60 15 -49
26 10 11 28 8 47 -6z m-790 -13 c9 -3 16 -10 16 -14 0 -16 -32 -20 -52 -6 -14
10 -16 15 -6 19 19 8 24 8 42 1z m171 -30 c-22 -17 -60 3 -44 23 8 9 16 9 36
0 23 -10 23 -12 8 -23z m129 20 c9 -3 16 -10 16 -14 0 -16 -32 -20 -52 -6 -14
10 -16 15 -6 19 19 8 24 8 42 1z m291 -8 c18 -13 18 -14 -4 -21 -27 -8 -60 13
-39 26 18 12 21 11 43 -5z m145 -17 c0 -6 -7 -8 -16 -5 -8 3 -13 2 -10 -2 7
-12 -61 -45 -78 -39 -26 10 -18 24 27 50 41 23 77 22 77 -4z m-791 -8 c10 -6
10 -10 1 -16 -15 -10 -62 3 -55 15 8 12 35 13 54 1z m151 -11 c17 -10 15 -12
-25 -33 -22 -11 -34 -12 -47 -4 -15 10 -14 13 10 29 31 20 41 22 62 8z m148 1
c10 -6 10 -10 -2 -20 -12 -10 -19 -10 -36 2 -31 21 5 40 38 18z m-365 -25 c18
-14 18 -14 -1 -20 -34 -11 -71 15 -39 27 18 8 20 8 40 -7z m321 -39 l54 -33
-39 -22 c-27 -16 -47 -20 -66 -16 l-26 7 22 18 21 18 -30 17 c-32 20 -37 29
-17 37 21 9 25 8 81 -26z m248 22 c17 -9 18 -13 7 -20 -18 -11 -30 -11 -49 1
-13 9 -13 11 0 20 19 12 17 12 42 -1z m-450 -13 c30 -22 -9 -37 -42 -16 -13 9
-13 11 0 20 19 12 21 12 42 -4z m582 8 c13 -5 14 -10 5 -20 -8 -10 -16 -10
-35 -2 -18 8 -21 14 -12 20 16 9 22 10 42 2z m-770 -10 c9 -3 16 -10 16 -14 0
-15 -31 -20 -52 -9 -17 9 -18 13 -7 20 17 10 23 11 43 3z m285 -23 c15 -10 7
-31 -12 -31 -21 0 -40 17 -33 29 9 13 26 14 45 2z m426 -4 c23 -18 4 -31 -31
-23 -21 6 -24 9 -14 21 15 18 21 19 45 2z m-586 -11 c16 -19 -13 -30 -41 -15
-17 9 -18 13 -7 20 20 12 35 11 48 -5z m-213 -20 c17 -13 17 -15 2 -21 -9 -4
-26 -1 -39 5 -17 10 -19 14 -8 21 19 12 22 11 45 -5z m150 -35 c-12 -11 -17
-11 -36 2 -20 14 -20 16 -4 25 12 7 23 6 36 -1 15 -10 16 -14 4 -26z m163 30
c11 -7 10 -11 -5 -19 -22 -12 -58 3 -49 19 8 11 36 12 54 0z m273 -2 c19 -10
16 -14 -37 -45 -36 -22 -64 -32 -76 -29 -30 10 -23 21 34 54 61 36 53 34 79
20z m153 -3 c18 -13 18 -14 -4 -21 -23 -7 -55 11 -45 26 8 13 27 11 49 -5z
m-805 -26 c27 -17 -2 -33 -34 -19 -19 9 -23 15 -14 21 17 10 30 10 48 -2z
m312 -26 c-11 -8 -22 -9 -34 -3 -37 20 -10 44 29 26 21 -9 21 -11 5 -23z m152
23 c18 -13 18 -14 2 -20 -21 -8 -59 10 -51 24 9 13 28 11 49 -4z m-306 -29
c-17 -10 -30 -10 -48 2 -24 16 7 31 37 17 17 -8 20 -13 11 -19z m571 13 c24
-15 -37 -41 -67 -28 l-23 11 23 13 c27 15 48 16 67 4z m-779 -30 c0 -16 -26
-19 -50 -6 -22 12 -22 13 -4 23 19 11 54 0 54 -17z m460 -1 c0 -14 -23 -18
-43 -8 -14 7 -16 12 -7 23 9 11 17 12 31 4 10 -5 19 -14 19 -19z m-164 6 c17
-13 17 -15 2 -21 -9 -4 -26 -1 -39 5 -17 10 -19 14 -8 21 19 12 22 11 45 -5z
m-156 -6 c12 -7 12 -12 3 -21 -10 -10 -18 -10 -40 0 -22 10 -24 14 -12 22 18
11 30 11 49 -1z m419 -14 c16 -19 -13 -30 -41 -15 -17 9 -18 13 -7 20 20 12
35 11 48 -5z m141 -11 c0 -2 -9 -9 -20 -15 -14 -8 -26 -7 -42 1 l-21 12 24 12
c21 12 59 5 59 -10z m-775 1 c18 -13 18 -14 -4 -21 -27 -8 -60 13 -39 26 18
12 21 11 43 -5z m460 0 c18 -13 18 -14 -4 -21 -25 -8 -47 7 -37 24 9 14 18 14
41 -3z m-155 -6 c11 -7 12 -12 3 -21 -13 -13 -57 6 -48 22 8 12 26 11 45 -1z
m-151 -9 c11 -7 10 -11 -5 -19 -14 -7 -24 -7 -36 2 -30 22 9 37 41 17z m415
-28 c-23 -17 -61 2 -44 22 9 11 17 11 37 2 23 -10 23 -12 7 -24z m-321 -18
c-13 -10 -22 -10 -35 -1 -34 21 -10 41 29 23 21 -9 21 -11 6 -22z m152 21 c18
-13 18 -14 -4 -21 -23 -7 -55 11 -45 26 8 13 27 11 49 -5z m285 4 c13 -9 13
-12 -4 -25 -23 -18 -62 1 -44 22 13 15 28 16 48 3z m-592 -32 c-17 -10 -30
-10 -48 2 -24 16 7 31 37 17 17 -8 20 -13 11 -19z m-179 13 c11 -7 10 -11 -5
-19 -14 -7 -24 -7 -36 2 -30 22 9 37 41 17z m582 -2 c23 -12 16 -29 -11 -29
-21 0 -34 15 -25 30 8 13 12 12 36 -1z m-317 -22 c18 -13 18 -14 2 -20 -10 -4
-27 -2 -38 4 -17 9 -18 13 -7 20 19 12 22 11 43 -4z m150 7 c13 -5 14 -10 5
-20 -8 -10 -16 -10 -35 -2 -18 8 -21 14 -12 20 16 9 22 10 42 2z m286 -4 c13
-9 13 -12 -3 -25 -15 -10 -25 -11 -43 -3 -22 10 -22 12 -6 24 21 16 32 17 52
4z m-768 -11 c17 -9 18 -13 7 -20 -18 -11 -30 -11 -49 1 -13 9 -13 11 0 20 19
12 17 12 42 -1z m176 2 c10 -6 10 -10 -2 -20 -11 -10 -20 -10 -37 -1 -17 10
-19 14 -8 21 17 11 30 11 47 0z m420 -10 c10 -6 10 -10 -2 -20 -17 -14 -61 3
-51 20 7 11 35 12 53 0z m-173 -15 c18 -13 18 -14 -2 -20 -30 -10 -56 3 -42
20 14 17 20 17 44 0z m-149 -7 c3 -6 2 -15 -4 -21 -12 -12 -55 8 -47 23 8 12
42 12 51 -2z m418 -2 c17 -12 1 -24 -155 -114 -135 -78 -178 -99 -191 -92 -27
14 -22 23 25 46 23 12 98 55 167 97 69 41 128 75 131 76 3 0 13 -6 23 -13z
m-756 -6 c10 -6 10 -10 -2 -20 -17 -14 -61 3 -51 20 7 11 35 12 53 0z m181 0
c11 -7 10 -11 -5 -19 -14 -7 -24 -7 -36 2 -30 22 9 37 41 17z m413 -27 c-23
-17 -59 1 -42 21 9 11 17 11 36 3 22 -10 22 -12 6 -24z m-322 -19 c-9 -11 -17
-11 -37 -2 -23 10 -23 12 -7 24 23 17 61 -2 44 -22z m155 21 c18 -13 18 -14
-4 -21 -23 -7 -55 11 -45 26 8 13 27 11 49 -5z m-491 -33 c-23 -17 -61 2 -44
22 9 11 17 11 37 2 23 -10 23 -12 7 -24z m184 5 c-17 -10 -30 -10 -48 2 -24
16 7 31 37 17 17 -8 20 -13 11 -19z m403 11 c11 -5 17 -14 14 -20 -9 -14 -41
-11 -54 5 -11 13 -7 19 17 25 2 1 12 -4 23 -10z m-151 -30 c0 -15 -33 -18 -52
-5 -19 13 -19 15 -2 24 17 10 54 -4 54 -19z m-165 7 c18 -13 18 -14 -2 -20
-30 -10 -56 3 -42 20 14 17 20 17 44 0z m-161 -9 c18 -13 18 -14 2 -20 -10 -4
-27 -2 -38 4 -17 9 -18 13 -7 20 19 12 22 11 43 -4z m424 -14 c2 -7 -4 -16
-12 -19 -19 -7 -49 14 -40 28 8 13 46 6 52 -9z m-634 1 c21 -8 20 -17 -2 -30
-14 -9 -23 -8 -37 3 -17 12 -18 15 -5 23 18 11 23 12 44 4z m467 -27 c-5 -5
-22 -7 -36 -3 -22 6 -25 10 -15 21 9 11 17 11 36 3 16 -7 21 -15 15 -21z
m-161 13 c27 -17 -2 -33 -34 -19 -19 9 -23 15 -14 21 17 10 30 10 48 -2z
m-154 -11 c11 -18 -17 -28 -43 -16 -17 8 -20 13 -11 19 19 11 46 10 54 -3z
m424 -18 c0 -16 -28 -20 -47 -6 -15 12 -16 16 -4 24 16 10 51 -3 51 -18z
m-330 -26 c-9 -11 -17 -11 -37 -2 -23 10 -23 12 -7 24 23 17 61 -2 44 -22z
m155 21 c18 -13 18 -14 -4 -21 -23 -7 -55 11 -45 26 8 13 27 11 49 -5z m-312
-31 c-13 -10 -23 -10 -41 -2 -22 10 -22 12 -7 23 13 10 23 10 41 2 22 -10 22
-12 7 -23z m408 14 c23 -12 16 -29 -11 -29 -21 0 -34 15 -25 30 8 13 12 12 36
-1z m-151 -30 c0 -15 -33 -18 -52 -5 -19 13 -19 15 -2 24 17 10 54 -4 54 -19z
m-167 8 c16 -11 15 -14 -10 -29 -24 -14 -31 -14 -46 -3 -17 12 -17 14 5 29 27
19 29 19 51 3z m257 -17 c24 -16 -7 -31 -37 -17 -17 8 -20 13 -11 19 17 10 30
10 48 -2z m-170 -12 c18 -11 17 -13 -16 -35 -28 -19 -38 -22 -55 -13 -23 13
-22 15 18 41 35 22 30 21 53 7z m272 -9 l20 -11 -21 -14 c-16 -12 -24 -12 -40
-2 -18 11 -18 13 -3 25 21 15 19 15 44 2z m-163 -36 c-8 -9 -16 -9 -36 0 -23
10 -23 12 -8 23 22 17 60 -3 44 -23z m96 -7 c18 -13 18 -14 -3 -25 -17 -9 -27
-9 -44 0 -21 11 -21 12 -3 25 10 8 22 14 25 14 3 0 15 -6 25 -14z m-160 -10
c18 -13 18 -14 -3 -25 -16 -9 -27 -9 -43 -1 -20 11 -20 12 -2 25 23 18 25 18
48 1z m95 -45 c0 -17 -50 -31 -72 -20 -20 11 -19 11 8 29 28 17 64 12 64 -9z"/>
<path d="M11477 8554 c-4 -4 3 -18 13 -32 11 -13 20 -31 20 -38 0 -15 12 -19
23 -8 8 8 -16 56 -36 72 -8 7 -17 9 -20 6z"/>
<path d="M9687 8223 c-61 -85 -81 -132 -81 -199 -1 -81 28 -120 127 -168 252
-124 626 -13 604 179 -6 55 -45 138 -90 190 l-33 38 4 -40 c3 -34 -1 -46 -27
-75 -58 -66 -209 -96 -327 -64 -104 28 -151 76 -141 147 3 21 4 39 2 39 -2 0
-19 -21 -38 -47z"/>
<path d="M4039 8180 c-45 -27 -70 -49 -79 -70 -7 -17 -11 -32 -9 -34 2 -1 76
-45 164 -96 88 -51 168 -98 178 -104 28 -17 47 17 47 84 0 43 -7 71 -30 117
-33 67 -60 97 -67 76 -3 -8 -23 -13 -54 -13 -45 0 -49 2 -49 24 0 33 -10 56
-24 56 -6 0 -41 -18 -77 -40z"/>
<path d="M1822 7558 c-7 -7 -12 -19 -12 -27 0 -10 250 -160 702 -421 386 -223
732 -422 768 -443 l67 -37 441 304 c510 352 462 320 462 307 0 -6 -7 -11 -16
-11 -23 0 -11 -24 13 -28 16 -2 23 4 28 27 8 36 10 37 52 11 36 -21 46 -48 41
-106 l-3 -39 -495 -303 c-272 -167 -501 -306 -507 -309 -7 -3 -345 187 -752
421 -406 234 -745 426 -754 426 -20 0 -41 -26 -34 -43 7 -19 1511 -887 1536
-887 10 0 281 150 602 334 l584 334 -4 143 c-2 79 -6 173 -10 209 -5 57 -9 65
-26 64 -11 0 -85 -43 -165 -95 -80 -53 -242 -158 -360 -236 -118 -77 -269
-175 -335 -218 -279 -182 -318 -206 -330 -201 -7 2 -337 191 -733 420 -396
229 -727 416 -734 416 -8 0 -19 -5 -26 -12z"/>
<path d="M4460 7537 c0 -20 -74 -72 -494 -345 -272 -177 -497 -322 -499 -322
-3 0 -33 16 -67 36 -33 20 -62 35 -64 33 -2 -2 -1 -43 3 -91 l6 -87 115 75
c63 41 146 95 183 119 37 25 72 45 77 45 4 0 10 3 12 8 2 4 113 79 248 167
135 87 304 197 375 243 155 101 164 111 125 132 -17 9 -20 8 -20 -13z"/>
<path d="M2926 7194 c-43 -43 -7 -164 63 -211 42 -28 65 -29 91 -3 28 28 26
80 -5 141 -39 75 -111 111 -149 73z m101 -36 c17 -18 36 -43 42 -55 15 -29 14
-96 -1 -111 -45 -45 -148 56 -148 146 0 60 58 71 107 20z"/>
<path d="M3373 7113 c-24 -13 -43 -32 -43 -41 0 -14 3 -13 18 4 9 12 28 27 41
34 21 11 26 10 36 -4 12 -16 55 -23 55 -8 0 7 -54 43 -62 41 -1 -1 -22 -12
-45 -26z"/>
<path d="M4085 6144 c-137 -80 -257 -152 -267 -161 -16 -14 -18 -36 -18 -195
0 -147 2 -178 14 -178 21 0 518 288 539 312 15 18 17 43 17 194 0 159 -1 174
-17 174 -10 -1 -130 -66 -268 -146z m245 -52 c0 -88 -4 -133 -12 -144 -17 -20
-445 -268 -464 -268 -11 0 -14 26 -14 135 l0 136 48 30 c136 84 409 238 425
238 15 1 17 -12 17 -127z"/>
<path d="M1533 6069 c-9 -9 -3 -18 23 -35 19 -13 37 -24 39 -24 3 0 251 -143
1280 -738 110 -63 243 -140 295 -171 52 -31 115 -67 140 -80 l45 -24 490 283
c270 156 546 315 615 355 69 40 170 98 225 130 55 31 108 63 118 70 18 13 18
13 -2 20 -11 3 -24 4 -28 2 -5 -2 -326 -187 -716 -412 -505 -291 -711 -404
-720 -397 -6 5 -136 81 -287 168 -456 262 -746 430 -1132 652 -201 117 -368
212 -370 212 -2 0 -9 -5 -15 -11z"/>
<path d="M1480 5896 c0 -136 1 -145 20 -151 19 -6 20 -17 22 -432 l3 -426 210
-122 c964 -557 1604 -925 1613 -925 8 0 1248 712 1405 807 l57 34 0 420 c0
408 1 419 20 431 18 12 20 24 20 150 0 76 -3 138 -6 138 -8 0 -175 -95 -470
-266 -117 -68 -227 -132 -245 -142 -101 -58 -437 -252 -590 -340 -97 -56 -182
-102 -190 -102 -7 0 -74 36 -149 79 -137 80 -345 200 -1005 581 -203 117 -422
243 -485 280 -63 37 -141 81 -172 99 l-58 32 0 -145z m2848 -1006 c2 -66 -2
-125 -8 -140 -8 -18 -70 -59 -228 -149 -119 -69 -226 -125 -237 -125 -19 -1
-20 6 -23 119 -2 90 1 125 11 139 18 25 447 276 467 273 12 -2 16 -24 18 -117z"/>
<path d="M8792 5138 c-103 -286 -168 -591 -222 -1053 -29 -247 -29 -247 -51
-138 -80 391 -351 844 -655 1097 -51 42 -46 36 32 -45 274 -285 435 -551 554
-914 74 -228 82 -278 81 -475 -1 -96 -4 -177 -7 -179 -3 -3 -17 10 -31 29 -34
45 -168 178 -258 256 -94 81 -209 167 -330 244 -98 63 -477 260 -499 260 -6 0
48 -31 119 -68 286 -149 562 -351 813 -596 111 -108 136 -138 115 -135 -5 1
-21 1 -36 0 l-29 -1 23 -36 22 -37 -64 7 c-124 12 -297 -19 -456 -84 -97 -40
-320 -167 -344 -196 -8 -10 15 -1 51 20 189 109 385 191 522 217 91 18 307 14
355 -6 113 -47 144 -166 73 -279 -24 -37 -30 -58 -30 -100 0 -61 19 -88 45
-66 11 9 15 32 15 83 0 92 25 137 76 137 27 0 43 8 67 34 29 30 40 35 101 41
118 13 222 -9 471 -99 53 -20 -19 16 -97 48 -145 58 -244 78 -364 74 l-104 -3
0 43 c0 24 5 52 11 63 7 15 7 24 -1 34 -7 8 -16 30 -20 49 -8 35 -6 38 67 106
70 67 213 170 236 170 6 0 8 3 4 6 -13 13 -196 -102 -281 -177 -49 -43 -51
-44 -110 -41 -34 2 -63 6 -65 8 -2 2 0 75 5 161 l10 158 44 79 c89 156 209
259 424 362 158 76 271 105 425 110 68 2 126 5 128 8 11 10 -116 18 -195 12
-141 -11 -273 -51 -437 -133 -147 -75 -249 -157 -323 -263 -25 -36 -50 -69
-55 -75 -6 -6 -7 32 -3 105 21 365 85 764 176 1101 22 84 39 154 36 156 -2 2
-17 -33 -34 -79z"/>
<path d="M16990 4967 c0 -7 -54 -44 -121 -82 -66 -37 -122 -73 -124 -79 -15
-44 -12 -46 129 -106 76 -33 144 -60 151 -60 17 0 71 86 84 135 14 51 14 101
0 126 -10 19 -94 79 -111 79 -4 0 -8 -6 -8 -13z"/>
<path d="M15437 4904 c-78 -47 -91 -70 -84 -143 11 -122 108 -241 197 -241 36
0 164 71 174 96 10 25 7 118 -5 152 -9 27 -22 35 -95 63 l-84 32 0 38 c0 34
-3 39 -22 38 -13 0 -49 -16 -81 -35z"/>
<path d="M17500 4306 c0 -43 -23 -50 -85 -27 -62 23 -79 20 -114 -25 -67 -86
38 -308 156 -330 32 -6 48 -2 109 31 40 21 78 48 84 60 19 35 8 132 -20 188
-23 47 -99 127 -120 127 -5 0 -10 -11 -10 -24z"/>
<path d="M15274 4108 c-46 -56 -74 -127 -74 -191 0 -52 3 -62 28 -86 16 -14
55 -39 86 -55 52 -27 60 -28 97 -17 83 25 160 137 167 243 5 68 -8 94 -62 123
l-37 20 -54 -30 -54 -29 -23 21 c-39 34 -45 34 -74 1z"/>
<path d="M16375 3820 c-72 -42 -95 -72 -95 -124 0 -119 111 -266 201 -266 13
0 56 18 96 40 64 36 74 45 83 79 17 63 -12 160 -69 231 -17 20 -21 22 -21 8 0
-15 -9 -18 -50 -18 l-50 0 -6 40 c-8 49 -20 50 -89 10z"/>
<path d="M7774 2759 c31 -298 124 -544 275 -727 172 -207 600 -265 897 -120
147 71 278 255 359 503 26 80 65 242 65 272 0 2 -20 1 -44 -2 -54 -9 -207 10
-284 34 l-59 18 -46 -23 c-102 -52 -190 -69 -362 -69 -136 0 -171 3 -238 23
-87 25 -179 68 -223 105 -26 22 -42 25 -154 31 -69 4 -140 9 -159 13 l-33 6 6
-64z"/>
</g>
</svg>
