<?xml version="1.0" standalone="no"?>
<!DOCTYPE svg PUBLIC "-//W3C//DTD SVG 20010904//EN"
 "http://www.w3.org/TR/2001/REC-SVG-20010904/DTD/svg10.dtd">
<svg version="1.0" xmlns="http://www.w3.org/2000/svg"
 width="2000.000000pt" height="2000.000000pt" viewBox="0 0 2000.000000 2000.000000"
 preserveAspectRatio="xMidYMid meet">

<g transform="translate(0.000000,2000.000000) scale(0.100000,-0.100000)"
fill="#000000" stroke="none">
<path d="M13857 19261 c-42 -46 -64 -113 -49 -147 6 -12 37 -37 69 -55 57 -32
591 -340 788 -454 55 -32 156 -90 225 -130 69 -39 186 -107 260 -150 74 -43
410 -237 745 -430 336 -194 653 -377 705 -407 52 -30 145 -84 205 -118 61 -35
207 -120 325 -188 118 -69 231 -134 250 -145 36 -20 229 -131 715 -412 154
-89 442 -255 640 -369 198 -114 372 -216 387 -227 35 -24 73 -24 108 1 33 23
70 94 70 134 0 30 -16 66 -29 66 -5 0 -148 80 -317 178 -730 422 -1161 671
-1194 689 -19 11 -150 87 -290 168 -140 81 -345 200 -455 263 -110 63 -301
173 -425 245 -418 242 -831 481 -900 519 -25 14 -83 48 -130 75 -47 28 -177
104 -290 168 -113 65 -241 139 -285 165 -44 26 -186 108 -315 182 -129 75
-345 199 -480 277 -146 84 -255 141 -271 141 -18 0 -38 -12 -62 -39z"/>
<path d="M10561 17894 c0 -11 3 -14 6 -6 3 7 2 16 -1 19 -3 4 -6 -2 -5 -13z"/>
<path d="M10841 17844 c0 -11 3 -14 6 -6 3 7 2 16 -1 19 -3 4 -6 -2 -5 -13z"/>
<path d="M10741 17784 c0 -11 3 -14 6 -6 3 7 2 16 -1 19 -3 4 -6 -2 -5 -13z"/>
<path d="M9586 17754 c-3 -9 -6 -142 -6 -297 l0 -282 89 -52 c49 -29 93 -53
97 -53 5 0 9 120 9 267 0 148 2 281 5 297 5 28 1 32 -85 83 -49 29 -93 53 -96
53 -4 0 -10 -7 -13 -16z"/>
<path d="M11095 17750 c-10 -11 -14 -20 -9 -20 5 0 15 9 22 20 7 11 11 20 9
20 -2 0 -12 -9 -22 -20z"/>
<path d="M10451 17738 c5 -10 11 -18 12 -18 2 0 3 8 3 18 0 10 -6 19 -13 19
-8 0 -9 -6 -2 -19z"/>
<path d="M10946 17705 c4 -8 11 -15 16 -15 6 0 5 6 -2 15 -7 8 -14 15 -16 15
-2 0 -1 -7 2 -15z"/>
<path d="M7579 17689 c-166 -18 -293 -67 -383 -150 -62 -57 -113 -148 -124
-222 -6 -43 -11 -49 -61 -79 -99 -61 -151 -183 -151 -355 0 -111 13 -177 52
-263 l29 -64 18 31 c45 73 142 111 211 83 39 -16 87 -71 111 -127 22 -51 56
-71 97 -57 36 13 52 63 53 165 1 43 5 79 10 79 5 0 28 18 52 39 77 71 137 223
137 347 l0 63 53 -36 c137 -92 362 -163 518 -163 71 0 159 16 214 40 l44 19 7
-32 c4 -18 10 -68 13 -112 l6 -80 23 39 c33 55 52 138 52 224 0 263 -171 465
-470 555 -162 49 -368 72 -511 56z"/>
<path d="M10500 17690 c-9 -6 -10 -10 -3 -10 6 0 15 5 18 10 8 12 4 12 -15 0z"/>
<path d="M10250 17645 c-7 -9 -11 -17 -9 -20 3 -2 10 5 17 15 14 24 10 26 -8
5z"/>
<path d="M10359 17633 c-13 -16 -12 -17 4 -4 9 7 17 15 17 17 0 8 -8 3 -21
-13z"/>
<path d="M10382 17614 c-7 -8 -8 -14 -3 -14 10 0 25 19 20 25 -2 1 -10 -3 -17
-11z"/>
<path d="M10848 17623 c6 -2 18 -2 25 0 6 3 1 5 -13 5 -14 0 -19 -2 -12 -5z"/>
<path d="M10300 17611 c0 -6 4 -13 10 -16 6 -3 7 1 4 9 -7 18 -14 21 -14 7z"/>
<path d="M10191 17584 c0 -11 3 -14 6 -6 3 7 2 16 -1 19 -3 4 -6 -2 -5 -13z"/>
<path d="M11012 17464 c-7 -15 -17 -22 -24 -18 -7 5 -8 3 -3 -6 6 -10 12 -8
27 9 10 13 18 27 18 32 0 16 -6 10 -18 -17z"/>
<path d="M10295 17349 c-4 -6 -5 -12 -2 -15 2 -3 7 2 10 11 7 17 1 20 -8 4z"/>
<path d="M10504 17328 l-19 -23 23 19 c12 11 22 21 22 23 0 8 -8 2 -26 -19z"/>
<path d="M10666 17287 c3 -10 9 -15 12 -12 3 3 0 11 -7 18 -10 9 -11 8 -5 -6z"/>
<path d="M10328 17263 c7 -3 16 -2 19 1 4 3 -2 6 -13 5 -11 0 -14 -3 -6 -6z"/>
<path d="M10021 17211 c-8 -5 -9 -11 -3 -15 5 -3 12 1 16 9 6 17 6 18 -13 6z"/>
<path d="M10210 17216 c0 -2 7 -7 16 -10 8 -3 12 -2 9 4 -6 10 -25 14 -25 6z"/>
<path d="M10476 17088 c3 -4 11 -5 19 -1 21 7 19 12 -4 10 -11 0 -18 -5 -15
-9z"/>
<path d="M10968 17013 c7 -3 16 -2 19 1 4 3 -2 6 -13 5 -11 0 -14 -3 -6 -6z"/>
<path d="M10920 16986 c0 -2 9 -6 20 -9 11 -3 18 -1 14 4 -5 9 -34 13 -34 5z"/>
<path d="M8298 16949 c-22 -8 -46 -37 -36 -44 2 -1 34 -18 72 -39 77 -41 92
-38 82 17 -11 57 -62 87 -118 66z"/>
<path d="M7716 16909 c-20 -16 -26 -29 -26 -59 0 -21 5 -42 10 -45 14 -9 150
73 150 90 0 16 -43 35 -79 35 -16 0 -40 -9 -55 -21z"/>
<path d="M8044 16753 c4 -16 11 -73 16 -128 6 -55 13 -128 16 -162 4 -36 12
-63 18 -63 21 0 196 72 196 80 0 5 -48 67 -106 137 -59 70 -111 135 -118 145
-16 27 -28 22 -22 -9z"/>
<path d="M8279 16766 c-55 -27 -46 -109 14 -131 45 -15 81 10 85 61 5 61 -46
97 -99 70z"/>
<path d="M7790 16718 c-43 -46 -13 -118 49 -120 41 -1 71 30 71 73 0 62 -78
92 -120 47z"/>
<path d="M10220 16626 c7 -7 13 -7 20 0 6 6 3 10 -10 10 -13 0 -16 -4 -10 -10z"/>
<path d="M10736 16627 c3 -10 9 -15 12 -12 3 3 0 11 -7 18 -10 9 -11 8 -5 -6z"/>
<path d="M10855 16609 c-4 -6 -5 -12 -2 -15 2 -3 7 2 10 11 7 17 1 20 -8 4z"/>
<path d="M10173 16591 c0 -11 5 -18 9 -15 4 3 5 11 1 19 -7 21 -12 19 -10 -4z"/>
<path d="M10709 16593 c-13 -16 -12 -17 4 -4 9 7 17 15 17 17 0 8 -8 3 -21
-13z"/>
<path d="M10826 16587 c3 -10 9 -15 12 -12 3 3 0 11 -7 18 -10 9 -11 8 -5 -6z"/>
<path d="M10786 16523 c-6 -14 -5 -15 5 -6 7 7 10 15 7 18 -3 3 -9 -2 -12 -12z"/>
<path d="M10260 16516 c0 -2 7 -7 16 -10 8 -3 12 -2 9 4 -6 10 -25 14 -25 6z"/>
<path d="M10646 16503 c-6 -14 -5 -15 5 -6 7 7 10 15 7 18 -3 3 -9 -2 -12 -12z"/>
<path d="M10734 16488 c10 -6 22 -6 26 -2 5 5 -3 10 -18 11 -22 1 -24 0 -8 -9z"/>
<path d="M9580 16165 c3 -165 7 -301 8 -302 49 -50 147 -103 189 -103 22 0 25
2 13 10 -13 8 -15 58 -15 347 -1 290 -3 338 -15 340 -8 1 -53 3 -100 5 l-85 3
5 -300z"/>
<path d="M10089 16413 c-13 -15 -12 -15 9 -4 23 12 28 21 13 21 -5 0 -15 -7
-22 -17z"/>
<path d="M7847 16290 c-4 -17 0 -20 25 -20 42 0 85 -28 106 -71 15 -30 22 -35
39 -28 20 7 63 55 63 70 0 4 -33 17 -72 29 -40 12 -86 26 -102 31 -42 13 -53
11 -59 -11z"/>
<path d="M7302 16214 c-23 -22 -95 -39 -114 -28 -14 9 -5 -7 39 -67 18 -26 33
-49 33 -52 0 -3 -35 -26 -77 -50 -89 -50 -387 -222 -673 -387 -107 -62 -214
-126 -237 -142 -114 -77 -249 -262 -296 -406 -42 -128 -50 -203 -38 -365 6
-78 18 -243 26 -367 14 -210 79 -1163 125 -1840 12 -162 22 -295 23 -296 4 -3
328 -164 331 -164 1 0 1 21 -1 48 -1 26 -10 155 -18 287 -9 132 -20 296 -25
365 -5 69 -14 202 -20 295 -6 94 -17 256 -25 360 -8 105 -21 303 -30 440 -8
138 -23 338 -32 445 -9 107 -16 263 -17 345 -1 163 16 250 68 354 l24 47 -94
50 c-52 27 -94 54 -94 60 0 15 58 102 100 148 98 110 122 127 465 321 22 13
81 47 130 75 50 29 177 103 283 163 l193 111 -7 108 c-3 60 -9 121 -13 136
l-6 27 -23 -21z"/>
<path d="M7443 16110 c59 -175 125 -238 305 -290 77 -22 228 -50 275 -50 27 0
28 2 25 42 l-3 42 -143 18 c-133 16 -239 42 -304 75 -32 15 -71 57 -124 129
-20 27 -34 42 -31 34z"/>
<path d="M10251 16066 c-9 -11 -9 -16 1 -22 7 -4 10 -4 6 1 -4 4 -3 14 3 22 6
7 9 13 6 13 -2 0 -10 -6 -16 -14z"/>
<path d="M10290 16065 c-14 -8 -20 -14 -14 -15 5 0 19 7 30 15 24 18 16 19
-16 0z"/>
<path d="M8277 15631 c12 -9 40 -32 64 -51 24 -19 37 -26 29 -15 -8 11 5 1 30
-22 71 -66 147 -122 155 -115 4 4 5 2 3 -3 -4 -14 167 -166 177 -157 5 4 5 2
2 -4 -8 -14 36 -57 48 -47 4 5 5 3 2 -3 -4 -6 3 -20 14 -30 39 -35 105 -128
154 -216 27 -48 52 -85 57 -82 4 3 5 -1 2 -9 -3 -8 4 -43 16 -78 12 -35 24
-73 26 -84 8 -32 7 -227 0 -262 l-8 -33 40 14 c22 8 65 17 96 21 31 4 56 11
56 16 0 5 -5 9 -11 9 -5 0 -8 4 -5 9 3 5 -14 67 -39 137 -76 216 -76 218 -87
203 -6 -10 -7 -7 -3 10 4 14 0 40 -10 65 -33 77 -42 101 -66 163 -13 34 -28
59 -33 56 -5 -3 -6 -1 -2 5 6 11 -27 92 -82 197 -14 28 -30 60 -36 72 -6 13
-14 23 -18 23 -5 0 -8 7 -8 15 0 8 -29 44 -64 80 -67 68 -160 121 -197 112
-10 -3 -17 -2 -14 3 7 11 -114 21 -220 19 -83 -2 -87 -3 -68 -18z"/>
<path d="M14657 15088 c-8 -24 12 -57 50 -81 49 -31 337 -198 382 -221 39 -21
57 -10 47 28 -4 18 -26 37 -74 64 -306 178 -384 222 -391 222 -5 0 -11 -6 -14
-12z"/>
<path d="M3075 15005 c-135 -25 -228 -68 -301 -141 -34 -35 -84 -124 -84 -151
0 -7 -11 -13 -25 -13 -43 0 -136 -41 -187 -84 -131 -107 -195 -307 -218 -686
-13 -212 -26 -255 -108 -342 -55 -59 -124 -102 -264 -163 -126 -55 -177 -99
-219 -190 -76 -162 -51 -336 59 -425 l37 -30 -86 -88 c-128 -132 -201 -268
-236 -437 -18 -89 -18 -84 22 -660 41 -593 94 -1380 115 -1705 11 -168 23
-324 26 -348 l5 -43 160 -79 c87 -44 163 -80 168 -80 5 0 7 19 5 43 -5 62 -22
300 -34 472 -6 83 -17 242 -25 355 -8 113 -26 381 -40 595 -13 215 -27 410
-30 435 -9 83 -45 664 -45 740 0 97 58 309 81 295 4 -3 5 4 2 15 -3 13 0 20 8
20 24 1 -21 29 -108 70 -46 21 -83 41 -83 45 0 12 98 150 123 173 l24 23 5
-88 c5 -103 37 -185 94 -244 l35 -36 -23 -64 c-21 -60 -23 -78 -22 -284 0
-229 19 -401 65 -609 11 -49 17 -91 14 -94 -2 -3 0 -10 5 -17 5 -6 18 -47 29
-91 25 -98 45 -174 78 -284 13 -47 34 -118 46 -159 l22 -74 95 2 c247 5 530
75 651 162 16 11 32 19 35 17 2 -3 31 -137 65 -299 34 -162 63 -296 65 -298 5
-5 396 -112 399 -109 1 2 -1 37 -6 78 -5 41 -29 269 -54 505 -66 630 -100 857
-170 1135 -68 269 -130 424 -269 670 -42 74 -90 171 -107 215 -33 82 -70 214
-65 224 2 3 7 98 10 211 4 113 9 240 13 284 l5 78 -31 -23 c-26 -19 -44 -23
-92 -22 -100 2 -177 62 -237 183 -35 72 -38 176 -6 230 29 50 78 80 131 80 55
0 100 -29 144 -93 36 -52 77 -80 112 -75 35 5 58 60 88 216 67 338 111 427
247 494 60 30 75 33 152 33 72 -1 93 -5 136 -27 27 -15 56 -33 63 -41 10 -13
15 -12 37 9 80 81 213 84 302 8 82 -69 122 -194 143 -441 7 -76 13 -139 15
-141 1 -2 14 4 28 13 35 24 93 144 112 235 22 104 15 322 -14 400 -36 102 -72
160 -140 226 -235 229 -626 349 -947 289z"/>
<path d="M15490 14592 c0 -16 8 -36 18 -44 24 -22 419 -249 443 -255 15 -4 19
0 19 19 0 13 -6 32 -12 41 -14 17 -441 267 -458 267 -6 0 -10 -13 -10 -28z"/>
<path d="M12630 14442 c-240 -138 -1085 -626 -1450 -837 -69 -40 -210 -122
-315 -182 -702 -404 -773 -446 -789 -475 -13 -20 -20 -68 -27 -166 -6 -82 -15
-142 -22 -148 -7 -7 -84 -53 -172 -104 -272 -157 -683 -394 -840 -485 -82 -48
-194 -112 -247 -143 l-98 -56 0 -46 0 -46 88 -51 c446 -262 528 -307 562 -307
33 1 160 70 603 329 l57 34 0 -42 c0 -23 -9 -177 -20 -342 -11 -165 -20 -316
-20 -335 l0 -36 -213 -122 c-234 -133 -264 -154 -277 -187 -5 -13 13 -333 45
-811 30 -434 61 -901 70 -1039 21 -343 27 -384 60 -412 34 -30 85 -30 133 0
45 29 424 248 807 467 l100 57 5 -48 c4 -31 13 -56 25 -67 17 -16 274 -166
357 -209 70 -36 207 -35 280 3 31 16 152 85 365 211 101 58 123 86 123 150 0
66 -26 91 -194 192 -86 51 -163 103 -171 115 -8 11 -15 39 -15 62 l0 41 158
90 c86 50 213 124 282 163 69 40 197 115 285 165 342 197 376 218 392 242 15
23 14 59 -16 506 -70 1055 -81 1204 -86 1254 l-5 52 57 32 c32 18 122 70 200
116 174 102 167 88 182 363 17 291 60 996 66 1065 5 72 11 157 30 465 8 129
19 315 26 413 12 192 10 216 -23 247 -42 38 -68 28 -358 -138z m-2603 -1919
c-3 -3 -11 -2 -17 2 -8 5 -7 11 2 22 12 15 13 14 16 -1 2 -10 1 -20 -1 -23z
m-58 -37 l23 -13 -38 -20 c-30 -15 -44 -18 -61 -10 -30 13 -29 18 5 39 34 20
41 21 71 4z m-117 -97 c-24 -14 -30 -15 -55 -2 -31 15 -30 19 5 38 19 10 28 9
50 -3 l27 -16 -27 -17z m165 -3 c-3 -7 -24 -23 -47 -35 -40 -20 -44 -21 -67
-6 -14 9 -23 18 -21 20 1 1 32 19 68 39 62 34 65 35 68 15 2 -11 1 -26 -1 -33z
m-262 -18 c32 -14 32 -20 -4 -36 -24 -11 -33 -11 -50 0 -12 7 -21 16 -21 19 0
4 30 23 47 28 1 1 14 -4 28 -11z m110 -40 c27 -12 36 -34 9 -24 -8 3 -13 2 -9
-3 10 -17 -20 -18 -44 -3 -22 15 -22 16 -5 29 21 16 17 16 49 1z m-205 -15
l28 -16 -31 -17 c-29 -16 -34 -16 -55 -2 l-24 16 24 18 c28 22 24 21 58 1z
m336 -17 c18 -14 18 -16 3 -31 -16 -16 -18 -16 -43 0 -25 16 -25 18 -9 31 23
17 25 17 49 0z m-203 -22 c23 -9 21 -19 -6 -31 -18 -9 -28 -7 -47 7 -22 17
-22 18 -4 28 10 6 24 9 29 7 6 -3 18 -8 28 -11z m-223 -19 c15 -18 18 -15 -48
-54 -29 -17 -58 -28 -64 -25 -6 4 -8 2 -4 -4 3 -6 -6 -17 -21 -25 -16 -8 -68
-37 -116 -65 -49 -29 -92 -52 -96 -52 -4 0 -22 -11 -40 -24 -32 -24 -51 -24
-79 -3 -9 7 2 18 43 44 31 18 61 31 66 28 5 -4 9 -2 9 4 0 6 17 20 38 31 20
11 59 34 86 51 27 16 55 28 63 25 8 -3 12 -2 9 3 -8 12 81 64 94 56 6 -4 10
-3 9 2 -5 27 30 33 51 8z m345 -7 c30 -14 31 -19 5 -36 -17 -11 -26 -10 -50 5
l-30 17 23 13 c27 15 22 15 52 1z m-202 -45 c-22 -16 -33 -16 -57 2 -20 15
-20 15 0 29 16 12 22 12 47 -2 25 -15 26 -18 10 -29z m121 -5 c20 -9 23 -14
15 -25 -14 -16 -30 -17 -63 -1 -24 10 -24 12 -8 24 21 17 25 17 56 2z m-209
-46 c-41 -21 -88 14 -49 36 12 6 26 4 45 -7 l28 -16 -24 -13z m376 18 c10 0 9
-4 -3 -16 -14 -15 -21 -15 -47 -4 -37 15 -39 23 -8 37 17 8 25 8 33 -3 6 -8
17 -14 25 -14z m-231 -36 c0 -20 -41 -24 -67 -7 l-24 16 23 11 c25 13 68 0 68
-20z m-235 4 c29 -13 28 -28 -2 -39 -13 -5 -29 -2 -43 8 -22 15 -22 17 -5 30
23 16 18 16 50 1z m370 -6 c22 -18 22 -19 4 -30 -26 -16 -34 -15 -19 3 8 9 9
15 2 15 -6 0 -14 -5 -17 -10 -5 -8 -11 -7 -21 1 -12 10 -12 14 3 25 23 17 21
17 48 -4z m2435 -5 c0 -12 11 -180 25 -372 13 -193 31 -458 40 -590 8 -132 17
-258 20 -280 11 -112 38 -603 33 -616 -3 -8 -75 -55 -159 -104 -85 -48 -253
-145 -374 -215 -536 -310 -612 -354 -640 -370 -16 -9 -106 -61 -200 -115
-1183 -685 -1296 -748 -1305 -739 -5 5 -28 277 -50 604 -23 327 -51 744 -64
925 -13 182 -20 339 -16 350 5 13 148 101 396 244 214 124 560 323 769 444
209 121 486 280 615 355 129 74 289 167 355 205 66 38 165 95 220 127 55 32
143 83 195 114 105 61 140 70 140 33z m-2665 -31 c18 -13 18 -14 -3 -25 -18
-9 -27 -8 -47 5 -20 13 -23 19 -13 25 19 13 42 11 63 -5z m-220 -8 c14 -6 25
-15 25 -19 0 -15 -48 -21 -71 -9 -22 12 -22 13 -4 26 23 17 18 17 50 2z m371
-4 l25 -17 -23 -12 c-18 -9 -29 -9 -52 3 l-29 14 24 13 c13 7 25 13 27 14 1 1
14 -6 28 -15z m165 -34 c8 0 4 -7 -9 -16 -19 -13 -28 -14 -53 -4 -35 15 -36
24 -6 37 16 8 26 7 38 -3 8 -8 22 -14 30 -14z m-411 10 c0 -5 7 -10 16 -10 9
0 14 -5 12 -11 -2 -6 -7 -10 -12 -9 -5 1 -12 -4 -16 -11 -6 -9 -15 -7 -34 9
-25 19 -25 21 -9 31 23 13 43 14 43 1z m-200 -24 l25 -14 -25 -12 c-20 -9 -31
-8 -54 3 -26 14 -26 16 -9 26 24 14 33 13 63 -3z m364 -1 c20 -15 20 -15 1
-29 -17 -12 -24 -12 -49 1 -28 15 -29 16 -11 29 24 17 35 17 59 -1z m146 -23
l30 -19 -25 -11 c-19 -9 -31 -9 -50 0 -29 13 -31 23 -7 37 22 13 17 14 52 -7z
m-381 -6 c24 -13 24 -14 4 -25 -16 -8 -29 -7 -54 3 -29 12 -30 14 -13 24 24
15 34 14 63 -2z m-204 -25 c10 -17 -27 -30 -52 -18 -27 12 -29 23 -6 36 18 9
46 0 58 -18z m334 8 c-10 -7 -9 -8 6 -7 25 4 33 -13 12 -26 -11 -7 -24 -6 -41
4 -32 16 -32 22 -3 36 25 12 46 6 26 -7z m-558 -18 l23 -18 -30 -15 c-26 -14
-32 -14 -58 2 l-28 18 28 16 c37 20 37 20 65 -3z m351 -38 c-22 -16 -34 -16
-58 1 -19 15 -19 15 0 29 17 12 23 12 47 -2 24 -14 25 -16 11 -28z m385 26
c12 -11 11 -14 -8 -24 -18 -10 -27 -9 -50 3 -24 14 -25 18 -11 28 19 14 47 10
69 -7z m-577 -37 c3 -3 -5 -2 -18 1 -12 3 -20 1 -17 -3 11 -18 -17 -21 -41 -5
-24 16 -25 17 -8 30 16 11 24 11 49 -2 16 -9 32 -18 35 -21z m750 13 c0 -28
-5 -30 -39 -11 -23 13 -23 14 -5 24 30 18 44 14 44 -13z m-407 0 c18 -13 18
-14 -2 -24 -14 -8 -27 -8 -45 1 -30 13 -33 25 -8 31 29 8 36 7 55 -8z m-583
-35 c0 -4 -10 -11 -23 -17 -17 -8 -30 -7 -51 4 l-28 15 28 17 c26 16 31 16 52
3 12 -8 22 -18 22 -22z m341 15 c33 -18 31 -36 -4 -28 -18 4 -19 3 -7 -6 25
-18 -7 -13 -35 5 -22 15 -26 42 -4 29 5 -4 9 -1 9 4 0 14 6 14 41 -4z m385 0
c16 -13 17 -16 4 -25 -23 -15 -43 -8 -46 18 -4 26 13 29 42 7z m-51 -5 c3 -5
-1 -10 -10 -10 -9 0 -13 5 -10 10 3 6 8 10 10 10 2 0 7 -4 10 -10z m228 -22
c-12 -6 -10 -7 10 -3 28 6 38 -9 12 -19 -18 -7 -65 10 -65 23 0 18 34 30 48
18 12 -9 11 -12 -5 -19z m-778 10 c27 -12 33 -27 13 -30 -7 0 -20 -2 -28 -3
-8 -1 -23 3 -33 8 -15 7 -16 11 -6 23 14 17 21 17 54 2z m375 -33 c-19 -10
-28 -10 -51 4 -28 16 -28 16 -6 27 17 10 28 9 51 -3 l30 -15 -24 -13z m140 -1
c0 4 5 4 10 1 6 -4 4 -12 -5 -22 -13 -13 -20 -13 -47 -2 l-31 13 24 19 c22 18
24 18 36 1 7 -10 13 -14 13 -10z m-750 -5 c17 -15 19 -19 7 -15 -11 3 -16 2
-12 -4 11 -18 -42 -35 -70 -22 -33 15 -31 24 8 43 42 21 38 22 67 -2z m385 -9
c3 -5 -3 -14 -14 -20 -16 -8 -27 -6 -51 9 l-32 19 29 10 c27 9 56 2 68 -18z
m566 1 l23 -18 -23 -8 c-12 -4 -36 -1 -53 6 l-30 12 24 13 c30 17 32 17 59 -5z
m-792 -5 c23 -13 23 -14 5 -23 -36 -19 -96 7 -64 27 20 13 30 12 59 -4z m362
4 c23 -13 25 -30 4 -30 -8 0 -15 -5 -15 -11 0 -5 -14 -2 -30 8 -28 16 -29 19
-13 30 21 16 29 16 54 3z m147 -26 c12 -8 20 -20 17 -25 -10 -15 -62 -10 -76
8 -12 15 -12 16 3 10 10 -3 17 -3 17 1 -4 26 8 28 39 6z m-383 -6 c14 -6 25
-15 25 -19 0 -15 -43 -21 -66 -8 -28 15 -31 26 -6 32 9 3 18 5 19 6 1 0 14 -4
28 -11z m-220 -26 c-4 -12 -3 -13 10 -2 10 8 15 9 15 1 0 -6 -11 -18 -24 -26
-23 -15 -27 -15 -51 1 l-26 17 27 18 c30 19 58 15 49 -9z m384 4 l24 -13 -22
-12 c-29 -16 -86 6 -69 26 13 16 36 16 67 -1z m376 -8 c14 -6 25 -15 25 -19 0
-17 -49 -21 -70 -6 -21 14 -21 16 -3 26 22 13 18 13 48 -1z m-597 -34 c2 -1
-18 -14 -44 -29 -44 -26 -48 -27 -78 -13 l-31 15 49 31 c47 29 51 29 75 14 14
-9 27 -17 29 -18z m364 -7 c-16 -7 -30 -6 -49 2 -26 12 -27 13 -9 26 16 12 23
12 50 -2 31 -16 31 -16 8 -26z m-232 5 l30 -19 -26 -11 c-19 -9 -31 -9 -47 -1
-32 17 -32 18 -11 34 24 18 18 18 54 -3z m395 -18 c17 -13 18 -16 5 -24 -21
-14 -42 -12 -65 6 -17 13 -18 16 -5 24 21 14 42 12 65 -6z m-254 -4 c42 -23 8
-46 -40 -27 -27 10 -28 12 -13 24 21 15 28 16 53 3z m-227 -61 c-34 -22 -44
-23 -79 -7 l-26 12 37 22 c35 21 39 22 67 7 l30 -15 -29 -19z m396 -6 c-19
-14 -54 -7 -44 8 3 5 -2 6 -10 3 -21 -8 -20 6 1 22 15 10 23 9 45 -4 26 -15
26 -16 8 -29z m-246 14 c16 -12 16 -14 2 -26 -23 -19 -82 4 -65 25 14 18 40
18 63 1z m161 -64 c-21 -12 -29 -11 -51 3 l-26 17 24 13 c19 10 28 9 50 -4
l28 -16 -25 -13z m-242 19 l27 -19 -26 -12 c-21 -9 -30 -9 -38 0 -8 9 -7 10 3
4 10 -5 12 -4 7 4 -4 6 -12 9 -17 6 -19 -12 -30 7 -12 21 23 17 23 17 56 -4z
m121 -57 c10 -7 15 -18 12 -23 -11 -18 -56 -23 -77 -8 -21 14 -21 14 7 30 35
19 35 19 58 1z m1874 -2156 c4 -34 -34 -81 -62 -77 -30 4 -33 47 -5 82 27 35
63 32 67 -5z"/>
<path d="M9930 12360 c0 -5 5 -10 10 -10 6 0 10 5 10 10 0 6 -4 10 -10 10 -5
0 -10 -4 -10 -10z"/>
<path d="M9450 12206 c0 -2 7 -7 16 -10 8 -3 12 -2 9 4 -6 10 -25 14 -25 6z"/>
<path d="M9327 12119 c7 -7 15 -10 18 -7 3 3 -2 9 -12 12 -14 6 -15 5 -6 -5z"/>
<path d="M11950 11736 c-202 -117 -1680 -971 -1854 -1070 -87 -50 -164 -100
-172 -111 -13 -20 -11 -59 21 -480 3 -38 16 -243 30 -455 14 -212 27 -401 30
-420 2 -19 4 -62 5 -95 0 -33 5 -67 10 -75 11 -18 -5 -26 290 145 113 65 261
151 330 190 69 39 213 122 320 185 107 62 224 129 260 150 256 148 346 200
425 246 50 28 185 106 300 172 116 66 221 129 233 141 22 20 23 28 18 89 -11
123 -49 684 -82 1192 -16 251 -18 270 -31 269 -4 0 -64 -33 -133 -73z m-102
-418 c6 -7 15 -89 22 -183 6 -93 22 -323 35 -510 20 -297 21 -344 9 -370 -15
-32 -22 -36 -579 -357 -137 -80 -387 -224 -555 -321 -169 -97 -311 -177 -317
-177 -6 0 -16 6 -22 14 -14 16 -85 993 -76 1042 3 17 15 40 28 51 12 11 119
75 237 143 118 68 298 172 400 230 102 59 275 159 385 222 110 64 243 141 295
171 99 58 121 65 138 45z m-1630 -1684 c3 -46 1 -51 -22 -62 -20 -9 -26 -19
-26 -41 0 -24 -8 -36 -37 -56 -21 -14 -41 -25 -44 -25 -9 0 -20 76 -13 93 3 8
14 17 24 20 16 4 18 11 13 40 -5 32 -2 36 38 61 24 14 49 24 54 23 6 -2 11
-26 13 -53z"/>
<path d="M11614 10414 c-18 -14 -18 -14 6 -3 31 14 36 19 24 19 -6 0 -19 -7
-30 -16z"/>
<path d="M11370 10230 c-9 -6 -10 -10 -3 -10 6 0 15 5 18 10 8 12 4 12 -15 0z"/>
<path d="M10717 9829 c7 -7 15 -10 18 -7 3 3 -2 9 -12 12 -14 6 -15 5 -6 -5z"/>
<path d="M10100 9550 c-13 -8 -17 -66 -5 -78 2 -2 17 4 34 13 35 18 43 55 12
55 -11 0 -21 4 -23 10 -2 6 -9 6 -18 0z"/>
<path d="M9030 11960 c-9 -6 -10 -10 -3 -10 6 0 15 5 18 10 8 12 4 12 -15 0z"/>
<path d="M9764 11959 c1 -7 12 -13 24 -14 11 -1 19 2 16 7 -4 5 -12 7 -19 4
-8 -3 -16 -1 -19 5 -2 5 -3 4 -2 -2z"/>
<path d="M9318 11903 c7 -3 16 -2 19 1 4 3 -2 6 -13 5 -11 0 -14 -3 -6 -6z"/>
<path d="M9090 11886 c0 -2 7 -7 16 -10 8 -3 12 -2 9 4 -6 10 -25 14 -25 6z"/>
<path d="M9290 11786 c7 -7 13 -7 20 0 6 6 3 10 -10 10 -13 0 -16 -4 -10 -10z"/>
<path d="M9440 11760 c8 -5 20 -10 25 -10 6 0 3 5 -5 10 -8 5 -19 10 -25 10
-5 0 -3 -5 5 -10z"/>
<path d="M9445 11620 c-3 -6 1 -7 9 -4 18 7 21 14 7 14 -6 0 -13 -4 -16 -10z"/>
<path d="M9110 14300 c8 -5 20 -10 25 -10 6 0 3 5 -5 10 -8 5 -19 10 -25 10
-5 0 -3 -5 5 -10z"/>
<path d="M9590 14300 c-9 -6 -10 -10 -3 -10 6 0 15 5 18 10 8 12 4 12 -15 0z"/>
<path d="M9156 14274 c-72 -16 -146 -48 -146 -63 0 -16 102 -49 190 -62 145
-21 354 3 433 49 34 20 34 28 -1 46 -85 44 -337 59 -476 30z"/>
<path d="M9588 14273 c7 -3 16 -2 19 1 4 3 -2 6 -13 5 -11 0 -14 -3 -6 -6z"/>
<path d="M9790 14111 l0 -48 60 -6 c74 -8 118 -29 126 -62 7 -28 -17 -145 -42
-202 -20 -46 -22 -41 -26 69 -4 73 -8 92 -31 127 -22 33 -33 41 -57 41 -24 0
-30 -4 -30 -22 0 -49 -35 -121 -77 -158 -45 -40 -51 -50 -30 -50 16 0 47 -32
47 -48 0 -6 -13 -27 -30 -45 -25 -29 -30 -43 -30 -89 0 -32 -6 -62 -15 -74 -8
-10 -15 -36 -15 -57 0 -21 -7 -49 -17 -63 l-16 -26 39 8 c58 10 75 18 122 59
26 23 41 43 38 52 -3 8 -2 11 3 8 6 -3 18 8 27 25 10 16 26 30 36 30 28 0 87
59 115 114 60 119 91 261 72 331 -22 79 -116 135 -226 135 l-43 0 0 -49z"/>
<path d="M3822 14124 c-12 -8 -22 -19 -22 -24 0 -5 30 -26 66 -46 53 -30 68
-34 75 -23 16 25 9 50 -20 80 -33 32 -65 37 -99 13z"/>
<path d="M16320 14112 c0 -16 8 -36 18 -44 25 -23 436 -258 450 -258 7 0 12
13 12 29 0 21 -8 36 -28 50 -45 31 -431 251 -442 251 -5 0 -10 -13 -10 -28z"/>
<path d="M3192 14110 c-27 -11 -51 -62 -44 -96 5 -29 9 -28 99 22 66 37 72 52
27 73 -29 13 -50 13 -82 1z"/>
<path d="M3792 13948 c-40 -20 -46 -90 -10 -120 27 -23 49 -23 82 3 62 49 0
151 -72 117z"/>
<path d="M3263 13915 c-16 -33 -16 -39 -2 -63 32 -57 110 -48 125 15 12 45
-14 77 -64 81 -39 3 -43 1 -59 -33z"/>
<path d="M17150 13639 c0 -11 4 -29 10 -39 9 -17 437 -270 458 -270 18 0 23
32 8 55 -8 13 -34 34 -58 47 -24 13 -122 70 -219 126 -98 56 -182 102 -188
102 -6 0 -11 -9 -11 -21z"/>
<path d="M3340 13490 c0 -11 13 -14 44 -10 11 1 15 -3 12 -9 -7 -10 15 -16 39
-11 6 1 7 -2 3 -6 -4 -4 2 -24 13 -44 25 -45 48 -44 81 3 18 25 19 30 5 24 -9
-3 -17 -2 -17 2 0 13 -128 54 -145 47 -8 -3 -15 -1 -15 4 0 6 -4 10 -10 10 -5
0 -10 -4 -10 -10z"/>
<path d="M3986 13362 c-37 -160 -107 -266 -194 -297 -26 -9 -94 -19 -154 -22
l-108 -6 0 -123 0 -122 42 -34 c216 -170 484 -435 590 -583 113 -157 138 -238
174 -556 l17 -156 -33 -48 -33 -49 1 -275 c2 -347 11 -445 58 -576 20 -55 50
-140 67 -189 l32 -88 105 -51 c58 -28 114 -54 125 -59 16 -7 32 -3 64 15 l43
25 -23 15 c-13 7 -45 26 -71 41 -27 15 -48 34 -48 42 0 8 -7 79 -15 157 -8 78
-28 309 -45 512 -16 204 -32 396 -36 428 l-6 57 49 23 c151 70 281 218 311
353 8 38 4 48 -132 289 -177 314 -239 412 -321 508 l-65 76 20 39 c47 90 48
212 4 330 -48 127 -139 235 -276 325 -134 88 -121 88 -142 -1z"/>
<path d="M17970 13161 c0 -22 9 -37 33 -54 48 -37 418 -247 433 -247 17 0 18
41 2 62 -7 9 -105 69 -218 133 -113 65 -209 121 -214 126 -20 18 -36 9 -36
-20z"/>
<path d="M6896 12915 c-9 -26 -7 -32 5 -12 6 10 9 21 6 23 -2 3 -7 -2 -11 -11z"/>
<path d="M9227 12882 c-8 -41 -111 -157 -211 -238 -221 -178 -501 -282 -921
-340 -160 -23 -565 -26 -690 -5 -189 30 -350 84 -454 151 -34 22 -63 40 -65
40 -11 0 -15 -165 -6 -261 17 -182 81 -429 110 -429 5 0 54 25 108 55 170 95
260 94 429 -5 l84 -50 227 131 c125 72 268 155 317 184 86 50 279 161 560 323
72 41 171 98 220 127 50 29 108 63 130 75 22 12 102 58 178 103 l138 80 -28
19 c-16 11 -49 30 -74 43 l-47 24 -5 -27z"/>
<path d="M6441 12464 c0 -11 3 -14 6 -6 3 7 2 16 -1 19 -3 4 -6 -2 -5 -13z"/>
<path d="M15145 12063 c-64 -17 -95 -67 -95 -152 0 -58 -1 -61 -27 -67 -120
-26 -183 -84 -183 -166 0 -36 33 -98 52 -98 6 0 -2 -15 -20 -32 -63 -66 -78
-145 -39 -217 20 -39 46 -59 116 -91 12 -5 14 -29 12 -125 l-3 -118 -93 -119
c-103 -133 -131 -178 -122 -200 3 -9 35 -32 70 -52 l66 -36 5 -163 c6 -192 5
-187 18 -257 17 -91 48 -132 126 -169 90 -41 207 -70 317 -79 l90 -7 2 -129
c1 -121 0 -131 -20 -147 -12 -10 -16 -18 -9 -19 6 0 12 5 12 10 0 6 5 10 11
10 6 0 8 -7 5 -17 -4 -10 -4 -14 0 -10 4 4 13 2 20 -3 39 -34 454 -52 473 -21
5 7 14 11 20 7 17 -11 146 38 203 78 82 55 91 64 82 77 -4 7 -3 10 4 5 6 -3
16 3 23 15 10 19 9 21 -6 15 -12 -4 -16 -2 -12 8 3 8 -2 16 -12 19 -24 6 -41
77 -41 171 0 41 -4 77 -9 80 -20 13 9 68 124 236 281 412 391 669 371 868 -15
146 -74 253 -160 288 -43 18 -44 18 -49 79 -9 95 -41 167 -105 236 -181 196
-398 268 -762 254 -167 -6 -179 -6 -274 19 -94 25 -138 29 -181 19z m-95 -813
c0 -5 -4 -10 -10 -10 -5 0 -10 5 -10 10 0 6 5 10 10 10 6 0 10 -4 10 -10z
m-43 -16 c-3 -3 -12 -4 -19 -1 -8 3 -5 6 6 6 11 1 17 -2 13 -5z m87 -144 c-6
-5 -24 21 -24 34 0 6 6 1 14 -10 8 -10 12 -21 10 -24z m153 -52 c-3 -7 -5 -2
-5 12 0 14 2 19 5 13 2 -7 2 -19 0 -25z m-20 -20 c-3 -7 -5 -2 -5 12 0 14 2
19 5 13 2 -7 2 -19 0 -25z m63 -41 c10 -4 8 -6 -6 -6 -12 -1 -25 6 -28 15 -5
13 -3 14 6 7 7 -6 20 -13 28 -16z m44 -15 c3 -5 -1 -9 -9 -9 -8 0 -12 4 -9 9
3 4 7 8 9 8 2 0 6 -4 9 -8z m221 -22 c-3 -5 -11 -10 -17 -10 -7 0 -21 -8 -33
-17 -11 -10 -8 -6 7 10 27 26 56 38 43 17z m-258 -22 c-3 -8 -6 -5 -6 6 -1 11
2 17 5 13 3 -3 4 -12 1 -19z m476 -23 c4 -8 3 -16 -1 -19 -4 -3 -9 4 -9 15 -2
23 3 25 10 4z m-322 -48 l-24 -22 19 27 c10 14 21 24 23 22 3 -3 -6 -15 -18
-27z m356 -89 c-3 -8 -6 -5 -6 6 -1 11 2 17 5 13 3 -3 4 -12 1 -19z m-9 -68
c-14 -42 -27 -46 -14 -5 6 19 14 35 18 35 4 0 2 -14 -4 -30z m-37 -77 c-12
-20 -14 -14 -5 12 4 9 9 14 11 11 3 -2 0 -13 -6 -23z m-41 -53 c0 -5 -8 -14
-18 -19 -14 -7 -19 -6 -19 4 0 7 6 11 14 8 7 -3 13 0 13 6 0 6 2 11 5 11 3 0
5 -4 5 -10z m-243 -132 c-3 -8 -6 -5 -6 6 -1 11 2 17 5 13 3 -3 4 -12 1 -19z
m67 -204 c3 -8 2 -12 -4 -9 -6 3 -10 10 -10 16 0 14 7 11 14 -7z m-607 -26
c-3 -8 -6 -5 -6 6 -1 11 2 17 5 13 3 -3 4 -12 1 -19z m638 -18 c16 -17 16 -20
3 -15 -9 4 -19 13 -22 21 -7 19 -2 18 19 -6z m89 -89 c-5 -5 -63 43 -63 52 -1
5 14 -4 32 -20 19 -15 33 -30 31 -32z m101 -34 c19 -4 19 -5 -1 -6 -12 0 -28
7 -35 17 -12 15 -12 16 1 6 8 -7 24 -14 35 -17z m328 -4 c-7 -2 -21 -2 -30 0
-10 3 -4 5 12 5 17 0 24 -2 18 -5z m-260 -10 c-7 -2 -19 -2 -25 0 -7 3 -2 5
12 5 14 0 19 -2 13 -5z m200 0 c-7 -2 -19 -2 -25 0 -7 3 -2 5 12 5 14 0 19 -2
13 -5z m-116 -9 c-3 -3 -12 -4 -19 -1 -8 3 -5 6 6 6 11 1 17 -2 13 -5z m116
-11 c-7 -2 -19 -2 -25 0 -7 3 -2 5 12 5 14 0 19 -2 13 -5z m-116 -9 c-3 -3
-12 -4 -19 -1 -8 3 -5 6 6 6 11 1 17 -2 13 -5z m165 -359 c0 -5 -5 -10 -11
-11 -8 -2 -7 -1 0 3 8 4 7 8 -2 15 -11 8 -11 9 -1 6 8 -2 14 -8 14 -13z m-295
-71 c-3 -3 -12 -4 -19 -1 -8 3 -5 6 6 6 11 1 17 -2 13 -5z"/>
<path d="M13448 12033 c7 -3 16 -2 19 1 4 3 -2 6 -13 5 -11 0 -14 -3 -6 -6z"/>
<path d="M1872 12010 c0 -14 2 -19 5 -12 2 6 2 18 0 25 -3 6 -5 1 -5 -13z"/>
<path d="M13555 12024 c-107 -21 -135 -29 -167 -44 -26 -12 -38 -14 -42 -6 -2
6 -5 3 -5 -6 -1 -10 -6 -18 -11 -18 -6 0 -5 -8 2 -19 11 -18 37 -32 115 -62
46 -17 198 -21 305 -6 121 16 218 55 218 87 0 40 -151 80 -300 79 -52 -1 -104
-3 -115 -5z"/>
<path d="M8270 11853 c-118 -69 -305 -177 -415 -240 -110 -64 -256 -148 -325
-188 -271 -157 -483 -279 -900 -520 -965 -557 -951 -549 -966 -578 -9 -16 -19
-86 -25 -170 -6 -78 -11 -142 -12 -143 -31 -14 -1240 -714 -1249 -722 -4 -4 2
-18 13 -31 16 -19 22 -21 34 -11 20 16 49 5 41 -16 -5 -14 -4 -15 8 -5 8 7 17
8 20 3 3 -5 -12 -17 -34 -27 l-40 -18 0 -72 0 -73 226 -131 c125 -72 237 -134
249 -137 29 -7 54 6 395 204 l275 160 3 -32 c1 -17 -13 -280 -33 -585 -19
-304 -35 -567 -35 -583 0 -36 48 -88 80 -88 13 0 56 20 97 45 40 25 75 45 77
45 4 0 206 116 922 531 94 54 176 99 181 99 10 0 23 -112 23 -189 0 -35 -2
-37 -119 -103 -65 -38 -124 -75 -131 -83 -20 -24 -5 -87 25 -110 41 -31 347
-205 372 -211 26 -7 67 13 253 121 69 40 224 130 345 199 121 70 228 136 238
148 9 11 17 30 17 42 0 11 -48 164 -106 339 -58 175 -104 319 -103 321 8 6
189 111 467 271 171 99 299 179 309 194 15 24 19 56 38 366 25 411 98 1565
110 1745 20 304 20 306 -10 335 -46 47 -77 37 -315 -102z m-2650 -1938 c0 -8
-4 -15 -9 -15 -13 0 -22 16 -14 24 11 11 23 6 23 -9z m-61 -49 l23 -13 -37
-21 c-44 -27 -44 -27 -75 -1 l-25 21 23 -5 c13 -3 21 -3 18 1 -4 3 4 12 16 19
28 15 28 15 57 -1z m-116 -95 c-16 -8 -30 -13 -33 -12 -3 2 -16 9 -29 16 l-25
12 30 16 c26 14 32 14 57 -1 l27 -16 -27 -15z m167 20 c0 -24 -8 -35 -41 -55
-34 -20 -46 -22 -65 -14 -13 6 -24 15 -24 19 0 12 43 34 59 30 8 -1 10 2 5 10
-5 9 -2 10 10 6 9 -4 15 -3 11 2 -5 9 21 30 38 31 4 0 7 -13 7 -29z m-256 -44
c17 -13 17 -14 -8 -30 -31 -20 -35 -21 -60 -2 -20 15 -20 15 0 30 24 18 45 19
68 2z m102 -43 c24 -16 24 -17 5 -31 -18 -12 -24 -12 -46 3 -24 15 -24 17 -8
30 23 17 19 17 49 -2z m-197 -40 c-31 -17 -49 -17 -72 0 -17 13 -17 15 10 28
24 12 32 12 57 -1 l29 -14 -24 -13z m322 16 c23 -13 26 -45 3 -36 -8 3 -12 2
-9 -4 3 -6 1 -10 -5 -10 -6 0 -13 7 -16 15 -4 8 -13 15 -22 15 -13 0 -12 3 4
15 23 18 21 17 45 5z m-212 -21 c37 -13 39 -22 9 -36 -18 -8 -30 -6 -51 7 -27
17 -28 19 -10 29 10 6 18 11 19 11 1 0 15 -5 33 -11z m-195 -40 c-2 -4 -21
-16 -41 -27 -69 -36 -107 -57 -117 -65 -47 -35 -200 -116 -210 -110 -6 3 -8 2
-3 -2 4 -5 -11 -19 -34 -31 -38 -22 -42 -23 -65 -8 l-24 16 65 40 c36 21 71
36 77 32 6 -4 8 -3 5 3 -6 9 20 26 191 123 51 29 95 56 98 61 2 4 17 0 33 -9
16 -9 28 -19 25 -23z m329 10 c32 -17 32 -18 11 -33 -16 -12 -23 -12 -48 1
-28 15 -29 16 -11 29 23 17 21 17 48 3z m-200 -24 c18 -13 18 -14 -3 -25 -24
-13 -70 0 -70 19 0 22 47 26 73 6z m120 -32 c-2 -7 4 -10 15 -7 14 5 14 3 -2
-10 -11 -9 -24 -16 -29 -16 -16 0 -47 21 -47 31 0 6 5 7 10 4 6 -3 10 -1 10 5
0 6 10 10 23 8 12 -2 21 -9 20 -15z m-201 -17 c16 -12 16 -14 -8 -24 -20 -10
-30 -9 -49 4 -30 20 -32 28 -5 21 11 -3 18 -1 14 4 -8 14 29 10 48 -5z m362
-1 c18 -14 17 -15 -9 -27 -23 -10 -29 -10 -33 0 -2 6 -11 12 -20 12 -15 1 -14
3 2 15 24 18 36 18 60 0z m-240 -53 c-16 -8 -29 -10 -33 -5 -3 5 -15 13 -26
17 -18 7 -18 8 5 20 21 11 29 10 53 -3 l27 -15 -26 -14z m-219 16 c14 -6 24
-16 22 -22 -5 -16 -43 -19 -68 -5 -22 11 -22 12 -4 25 23 17 18 17 50 2z m370
-6 c22 -18 23 -19 4 -30 -16 -10 -24 -9 -45 5 -25 16 -25 17 -8 30 22 16 21
17 49 -5z m-235 -33 c0 -5 8 -9 18 -9 11 0 8 -5 -11 -15 -25 -13 -31 -13 -54
2 l-25 16 23 13 c24 12 49 9 49 -7z m330 1 c0 -5 -5 -10 -11 -10 -5 0 -7 5 -4
10 3 6 8 10 11 10 2 0 4 -4 4 -10z m-557 -18 c-1 -5 7 -8 20 -5 18 5 20 3 10
-8 -17 -17 -42 -20 -67 -7 -19 10 -19 11 -1 24 21 15 41 13 38 -4z m388 -28
c-18 -13 -23 -13 -47 2 -24 16 -25 19 -9 30 15 11 23 10 47 -2 30 -15 30 -16
9 -30z m140 -21 c-18 -12 -24 -12 -47 3 l-26 17 23 13 c19 10 27 9 46 -3 23
-16 23 -16 4 -30z m-376 21 c17 -13 18 -16 5 -24 -20 -13 -37 -12 -62 1 -21
11 -21 12 -3 25 24 18 35 17 60 -2z m-212 -19 c18 -13 18 -14 -3 -25 -24 -13
-55 -6 -45 10 3 6 -1 7 -9 4 -9 -3 -16 -2 -16 4 0 23 47 28 73 7z m362 3 c22
-10 36 -30 18 -26 -5 0 -16 -2 -25 -6 -9 -4 -29 -1 -45 7 l-28 16 25 10 c14 5
26 10 27 10 1 1 14 -4 28 -11z m145 -55 c-19 -13 -24 -13 -31 -2 -5 8 -9 10
-9 5 0 -5 -7 -3 -16 5 -14 12 -14 14 1 26 14 10 23 9 47 -3 l30 -16 -22 -15z
m-391 26 c25 -9 29 -14 20 -25 -15 -18 -40 -18 -65 1 -16 13 -17 16 -4 25 18
12 11 12 49 -1z m-204 -47 c-21 -10 -29 -10 -51 1 l-27 14 23 16 c21 15 26 15
52 -1 l28 -16 -25 -14z m374 24 l24 -13 -30 -10 c-20 -8 -36 -8 -49 0 -29 15
-30 17 -14 27 20 13 41 12 69 -4z m-594 -8 c32 -15 32 -23 -4 -38 -24 -9 -34
-9 -57 3 l-28 14 30 16 c36 20 28 19 59 5z m355 -45 c-15 -10 -24 -11 -44 -1
-30 13 -33 23 -10 36 12 6 26 4 45 -6 26 -15 26 -17 9 -29z m363 29 c-2 -6 4
-9 12 -6 8 4 15 1 15 -5 0 -20 -50 -25 -68 -7 -15 15 -15 18 -2 26 19 13 46 7
43 -8z m197 -28 c0 -28 -1 -28 -35 -12 -31 14 -32 22 -2 35 28 13 37 8 37 -23z
m-796 20 c9 -3 13 -10 10 -15 -3 -5 2 -6 10 -3 9 3 16 2 16 -4 0 -16 -49 -23
-72 -11 -21 11 -21 12 -3 25 22 16 19 16 39 8z m375 -3 c20 -13 22 -38 4 -46
-9 -3 -27 2 -41 11 -24 16 -25 17 -7 30 22 16 25 17 44 5z m136 -21 c3 -5 1
-10 -4 -10 -6 0 -11 5 -11 10 0 6 2 10 4 10 3 0 8 -4 11 -10z m-720 -12 l25
-11 -30 -19 c-29 -17 -32 -17 -56 -1 l-26 16 24 13 c29 17 31 17 63 2z m360
-35 c-21 -12 -29 -11 -51 3 l-26 17 24 13 c19 10 28 9 50 -4 l28 -16 -25 -13z
m400 28 c14 -2 -26 -31 -43 -31 -7 0 -10 5 -6 12 4 6 3 8 -4 5 -13 -9 -44 2
-37 13 5 7 39 8 90 1z m195 -27 c0 -2 -9 -8 -20 -14 -15 -8 -26 -7 -46 6 l-26
17 23 13 c19 10 27 9 46 -3 13 -9 23 -17 23 -19z m-815 14 c14 -6 25 -16 25
-21 0 -6 -3 -8 -6 -4 -4 3 -13 -1 -21 -9 -13 -12 -18 -12 -44 3 l-29 17 23 13
c27 15 22 15 52 1z m371 -3 c18 -15 18 -15 1 -29 -23 -18 -50 -10 -42 12 4 12
3 13 -10 2 -9 -8 -15 -9 -15 -2 0 10 27 31 41 32 3 0 14 -7 25 -15z m157 -52
c-33 -25 -56 -12 -30 17 6 8 3 7 -9 -3 -16 -13 -23 -14 -32 -5 -10 10 -7 15
10 24 19 10 28 9 51 -4 25 -15 26 -18 10 -29z m-392 18 c23 -18 23 -18 2 -25
-11 -4 -33 -2 -48 4 -23 9 -25 13 -15 25 17 20 33 19 61 -4z m578 -10 l24 -19
-21 -11 c-17 -9 -27 -8 -47 5 -24 15 -24 17 -8 30 23 17 23 17 52 -5z m-790
-5 l24 -13 -23 -13 c-24 -13 -70 0 -70 19 0 21 37 25 69 7z m367 0 c19 -15 19
-15 -1 -30 -18 -13 -23 -12 -47 2 -25 14 -25 17 -10 28 22 17 34 17 58 0z
m145 -25 l24 -20 -25 -9 c-18 -7 -31 -5 -49 6 -22 15 -22 16 -5 29 23 17 27
17 55 -6z m-379 -5 c21 -10 13 -30 -9 -22 -8 3 -11 1 -8 -4 9 -15 -19 -12 -41
5 -33 25 12 41 58 21z m-198 -37 c-3 -6 -12 -5 -22 3 -9 7 -13 8 -9 2 4 -7 0
-17 -7 -24 -12 -9 -20 -8 -41 6 l-26 17 26 17 c24 16 30 16 56 3 16 -8 27 -19
23 -24z m350 14 c19 -10 18 -11 -2 -22 -19 -10 -22 -9 -22 6 0 12 -3 14 -8 6
-5 -8 -12 -9 -22 -2 -13 8 -12 12 4 24 11 8 22 11 25 7 3 -5 15 -13 25 -19z
m381 -5 c14 -6 25 -15 25 -19 0 -17 -49 -21 -70 -6 -21 14 -21 16 -3 26 22 13
18 13 48 -1z m-631 -19 c-3 -5 3 -6 12 -2 34 13 8 -22 -33 -45 -35 -19 -45
-21 -67 -11 -14 7 -26 16 -26 20 0 4 20 15 45 26 25 10 45 21 45 25 0 4 7 5
15 2 8 -4 12 -10 9 -15z m399 5 c9 -4 17 -10 17 -14 0 -9 -26 -20 -45 -20 -5
0 -10 4 -10 9 0 5 -4 13 -9 18 -5 5 -6 3 -2 -4 8 -15 5 -16 -19 -6 -15 5 -14
8 6 19 13 7 29 11 34 9 6 -3 18 -8 28 -11z m-231 -50 c-21 -14 -56 -9 -46 7 3
5 -2 6 -10 3 -21 -8 -20 6 1 21 14 11 23 10 46 -2 29 -14 29 -15 9 -29z m391
11 c18 -13 18 -14 -2 -24 -25 -14 -32 -14 -56 5 -17 13 -18 16 -5 24 21 13 42
12 63 -5z m-244 -9 l24 -13 -22 -13 c-18 -9 -29 -9 -53 1 -28 12 -29 13 -12
26 22 16 32 16 63 -1z m-230 -23 l22 -18 -36 -19 c-29 -16 -39 -17 -62 -7 -18
8 -23 15 -16 22 8 8 18 7 34 -1 22 -10 22 -10 6 4 -18 14 -18 15 0 25 24 14
27 14 52 -6z m145 -51 c-22 -12 -29 -11 -51 3 l-25 17 23 12 c20 11 29 10 52
-3 l27 -15 -26 -14z m251 34 c18 -13 18 -14 -3 -25 -16 -8 -27 -8 -46 1 -28
12 -33 24 -13 31 22 10 43 7 62 -7z m-89 -43 l26 -16 -23 -13 c-17 -8 -29 -9
-46 -1 -28 12 -29 22 -5 36 22 13 19 14 48 -6z m-231 -23 c3 -5 -4 -14 -15
-20 -15 -8 -26 -7 -46 6 l-26 17 23 13 c23 12 51 5 64 -16z m108 -42 c34 -16
34 -20 -2 -36 -25 -11 -34 -11 -57 1 l-27 14 24 16 c28 20 28 20 62 5z"/>
<path d="M5510 9860 c-9 -6 -10 -10 -3 -10 6 0 15 5 18 10 8 12 4 12 -15 0z"/>
<path d="M5500 9830 c-9 -6 -10 -10 -3 -10 6 0 15 5 18 10 8 12 4 12 -15 0z"/>
<path d="M5322 9734 c-7 -8 -8 -14 -3 -14 10 0 25 19 20 25 -2 1 -10 -3 -17
-11z"/>
<path d="M5215 9680 c-3 -5 -1 -10 4 -10 6 0 11 5 11 10 0 6 -2 10 -4 10 -3 0
-8 -4 -11 -10z"/>
<path d="M5106 9621 c-3 -5 6 -8 20 -8 19 0 22 2 13 8 -18 11 -26 11 -33 0z"/>
<path d="M5058 9583 c7 -3 16 -2 19 1 4 3 -2 6 -13 5 -11 0 -14 -3 -6 -6z"/>
<path d="M4610 9346 c0 -2 7 -7 16 -10 8 -3 12 -2 9 4 -6 10 -25 14 -25 6z"/>
<path d="M4685 9260 c-3 -6 1 -7 9 -4 18 7 21 14 7 14 -6 0 -13 -4 -16 -10z"/>
<path d="M4810 9120 c0 -5 5 -10 10 -10 6 0 10 5 10 10 0 6 -4 10 -10 10 -5 0
-10 -4 -10 -10z"/>
<path d="M4940 9106 c0 -2 7 -9 15 -16 9 -7 15 -8 15 -2 0 5 -7 12 -15 16 -8
3 -15 4 -15 2z"/>
<path d="M5116 9058 c3 -5 10 -6 15 -3 13 9 11 12 -6 12 -8 0 -12 -4 -9 -9z"/>
<path d="M4780 9006 c0 -2 7 -7 16 -10 8 -3 12 -2 9 4 -6 10 -25 14 -25 6z"/>
<path d="M13278 11913 c-6 -16 -10 -34 -9 -40 1 -7 -2 -13 -6 -13 -7 0 -9 -45
-5 -92 3 -28 82 -74 168 -96 140 -38 376 -26 508 25 56 22 115 70 122 98 5 19
-19 118 -31 133 -3 3 -29 -17 -59 -43 -85 -78 -434 -99 -596 -37 -37 15 -71
48 -73 71 -2 28 -5 26 -19 -6z"/>
<path d="M14130 11770 c0 -9 -40 -51 -72 -75 -27 -22 -120 -56 -205 -76 -63
-15 -122 -22 -208 -22 -115 -1 -261 16 -294 33 -9 5 -37 18 -63 30 -26 12 -61
34 -78 50 l-30 28 0 -64 c0 -34 5 -74 11 -88 41 -89 279 -157 504 -142 194 12
346 64 410 139 33 39 35 44 35 119 0 43 -2 78 -5 78 -3 0 -5 -4 -5 -10z"/>
<path d="M6881 11676 c2 -47 6 -57 30 -75 16 -12 31 -21 33 -21 3 0 36 -19 73
-41 l68 -42 45 26 c24 14 46 30 48 35 3 9 -271 172 -290 172 -4 0 -8 -24 -7
-54z"/>
<path d="M6555 11701 c-3 -5 -2 -12 3 -15 5 -3 9 1 9 9 0 17 -3 19 -12 6z"/>
<path d="M6447 11629 c-90 -93 -126 -195 -127 -354 l0 -60 73 -39 72 -38 158
92 157 92 -57 35 c-84 50 -122 80 -174 135 -57 62 -75 110 -54 152 24 48 8 43
-48 -15z"/>
<path d="M6515 11649 c-4 -6 -5 -12 -2 -15 2 -3 7 2 10 11 7 17 1 20 -8 4z"/>
<path d="M13423 11135 c-3 -9 -4 -17 -2 -18 2 -2 22 -15 45 -29 26 -17 53 -47
72 -81 47 -84 92 -87 92 -7 0 84 -67 150 -152 150 -35 0 -50 -4 -55 -15z"/>
<path d="M13386 11094 c-22 -56 14 -139 74 -173 40 -22 95 -27 120 -11 13 8
12 12 -6 25 -12 8 -36 39 -52 69 -43 75 -122 128 -136 90z"/>
<path d="M2021 10924 c0 -11 3 -14 6 -6 3 7 2 16 -1 19 -3 4 -6 -2 -5 -13z"/>
<path d="M17950 10471 l-155 -89 0 -1878 0 -1878 75 -44 75 -45 73 39 c40 21
77 43 83 50 6 7 8 743 7 1973 l-3 1961 -155 -89z"/>
<path d="M2171 10524 c0 -11 3 -14 6 -6 3 7 2 16 -1 19 -3 4 -6 -2 -5 -13z"/>
<path d="M2286 9960 c-15 -71 -25 -133 -22 -139 7 -11 179 -129 201 -137 10
-4 4 17 -19 68 -19 40 -53 129 -76 198 -24 69 -46 128 -49 132 -4 4 -19 -50
-35 -122z"/>
<path d="M2281 10044 c0 -11 3 -14 6 -6 3 7 2 16 -1 19 -3 4 -6 -2 -5 -13z"/>
<path d="M13850 9948 c-39 -9 -173 -69 -178 -79 -1 -3 -14 -4 -27 -1 -16 3
-25 0 -25 -8 0 -8 -8 -10 -24 -6 -18 4 -33 -1 -55 -20 -27 -22 -45 -54 -23
-40 4 2 8 -7 7 -22 0 -19 6 -28 25 -33 18 -5 20 -7 6 -8 -14 -1 -16 -4 -7 -14
9 -11 3 -18 -29 -32 -22 -10 -38 -20 -36 -22 2 -2 48 -19 102 -37 90 -31 101
-32 127 -20 16 9 27 10 27 4 0 -5 -4 -10 -8 -10 -4 0 -50 -25 -102 -55 -51
-31 -98 -54 -104 -52 -5 2 25 23 68 46 42 24 76 44 74 46 -2 2 -49 17 -106 34
l-103 31 -84 -48 c-53 -29 -85 -53 -85 -64 0 -16 262 -216 313 -239 l22 -10
-22 5 c-19 3 -23 0 -23 -20 0 -34 28 -58 117 -99 43 -20 86 -41 95 -46 10 -5
34 -13 55 -18 65 -15 68 -16 74 -24 3 -4 21 -9 40 -11 19 -1 57 -13 84 -25 28
-13 60 -24 72 -24 11 -1 19 -6 15 -11 -3 -5 2 -7 11 -3 9 3 17 3 19 -1 4 -9
115 -102 122 -102 3 0 2 7 -1 17 -4 10 -2 14 4 10 5 -3 23 19 39 50 42 81 182
219 271 267 40 21 70 43 67 48 -3 4 -10 5 -16 2 -7 -4 -8 -2 -4 4 10 17 -33
71 -53 65 -13 -4 -13 -3 -2 5 7 5 10 15 6 22 -6 9 -10 9 -17 -1 -8 -11 -9 -11
-5 1 7 26 -11 48 -37 45 -14 -2 -31 4 -38 13 -11 15 -11 15 2 6 15 -10 39 -13
41 -4 1 13 -14 40 -23 40 -6 0 -8 -7 -4 -15 8 -22 -2 -18 -15 6 -8 15 -8 19 0
15 19 -12 12 8 -27 70 -20 34 -43 59 -50 57 -8 -3 -10 1 -5 13 5 13 3 15 -7 9
-10 -6 -12 -4 -7 7 3 10 -4 25 -20 39 -24 24 -25 24 -39 5 -8 -11 -14 -15 -14
-9 0 7 5 15 10 18 6 3 10 10 10 15 0 23 -168 153 -188 145 -7 -2 -11 -1 -8 4
3 4 -13 18 -34 30 -48 27 -54 19 -7 -9 17 -11 27 -20 20 -20 -6 0 -30 16 -53
35 -36 30 -48 35 -79 30 -27 -4 -31 -3 -16 4 26 12 -85 12 -135 -1z m80 -8
c18 -12 2 -12 -25 0 -13 6 -15 9 -5 9 8 0 22 -4 30 -9z m-203 -86 c-3 -3 -12
-4 -19 -1 -8 3 -5 6 6 6 11 1 17 -2 13 -5z m558 -74 c11 -17 -5 -11 -28 11
l-22 21 22 -11 c12 -6 25 -16 28 -21z m-690 -30 c3 -6 -1 -7 -9 -4 -18 7 -21
14 -7 14 6 0 13 -4 16 -10z m-8 -52 c-3 -8 -6 -5 -6 6 -1 11 2 17 5 13 3 -3 4
-12 1 -19z m98 -46 c-3 -3 -11 0 -18 7 -9 10 -8 11 6 5 10 -3 15 -9 12 -12z
m40 -12 c3 -5 -1 -10 -10 -10 -9 0 -13 5 -10 10 3 6 8 10 10 10 2 0 7 -4 10
-10z m722 -72 c-3 -7 -5 -2 -5 12 0 14 2 19 5 13 2 -7 2 -19 0 -25z m-639 -8
c7 -11 11 -20 9 -20 -2 0 -12 9 -22 20 -10 11 -14 20 -9 20 5 0 15 -9 22 -20z
m112 -175 c0 -5 -9 5 -20 23 -26 42 -26 56 0 17 11 -16 20 -34 20 -40z m-127
-72 c-7 -2 -19 -2 -25 0 -7 3 -2 5 12 5 14 0 19 -2 13 -5z m-43 -133 c-8 -5
-19 -10 -25 -10 -5 0 -3 5 5 10 8 5 20 10 25 10 6 0 3 -5 -5 -10z m320 -80
c-8 -5 -22 -10 -30 -10 -13 0 -13 1 0 10 8 5 22 10 30 10 13 0 13 -1 0 -10z"/>
<path d="M16380 9817 c0 -11 73 -38 87 -32 8 2 12 1 9 -4 -3 -4 18 -19 47 -32
29 -13 81 -42 117 -64 l65 -41 45 22 c25 13 53 24 63 24 9 0 17 3 17 8 0 14
-117 80 -171 97 -53 16 -279 34 -279 22z"/>
<path d="M16915 9601 c-27 -10 -178 -92 -335 -183 -157 -90 -393 -227 -525
-303 -132 -76 -265 -154 -295 -173 -67 -42 -175 -153 -232 -238 -35 -51 -47
-62 -63 -57 -11 3 -22 9 -25 12 -3 4 -21 17 -41 29 l-37 22 -21 -35 c-12 -20
-21 -38 -21 -40 0 -3 -12 -30 -26 -60 -47 -104 -64 -197 -80 -435 -8 -124 -41
-647 -74 -1164 -33 -516 -62 -941 -65 -944 -3 -3 -51 7 -107 22 -122 33 -262
96 -352 161 -82 58 -189 174 -221 239 -23 46 -25 62 -25 182 0 79 4 135 10
139 6 4 8 11 4 16 -3 5 0 8 8 7 7 -2 12 4 10 13 -1 9 6 23 15 30 17 13 17 13
4 -6 -14 -19 -14 -19 3 -4 9 9 18 23 19 30 2 8 13 32 25 53 12 20 19 42 16 48
-4 7 -2 8 4 4 12 -7 16 5 12 34 -1 8 2 12 6 7 14 -13 129 247 117 266 -3 6 -2
7 4 4 5 -3 17 10 26 29 13 27 15 40 6 56 -8 15 -8 23 1 32 8 8 10 7 5 -5 -4
-10 -2 -20 4 -24 7 -3 11 2 11 14 0 10 5 21 10 23 7 2 5 11 -5 23 -10 13 -13
14 -10 4 3 -9 0 -16 -7 -17 -7 -1 -49 -7 -94 -13 -67 -10 -92 -9 -155 5 -41 9
-81 18 -90 19 -91 16 -343 222 -399 326 -6 12 -14 21 -19 21 -12 0 -43 -109
-37 -133 3 -12 3 -16 0 -9 -5 10 -10 10 -24 -3 -16 -15 -20 -14 -54 1 -20 10
-36 21 -36 26 0 4 16 -2 35 -14 20 -11 38 -18 41 -16 9 10 -114 68 -133 62
-12 -4 -14 -3 -5 3 9 7 -3 16 -40 34 -29 13 -55 27 -58 30 -14 17 -91 48 -107
43 -14 -5 -15 -4 -4 4 11 8 10 12 -8 21 -12 7 -26 9 -31 6 -6 -4 -9 -1 -8 5 2
6 -19 23 -47 38 -62 34 -108 64 -116 76 -4 5 -13 5 -20 1 -8 -5 -11 -5 -7 0
11 11 -94 77 -114 71 -10 -2 -16 0 -15 4 3 11 -82 72 -92 66 -5 -3 -17 4 -27
17 l-19 22 24 -20 c19 -15 17 -10 -9 22 -18 23 -37 40 -43 36 -6 -3 -7 -1 -3
5 4 7 -2 29 -12 50 -11 20 -30 64 -43 97 -13 33 -29 66 -37 74 -11 11 -11 15
0 22 9 6 6 9 -10 9 -22 0 -22 1 -5 18 18 18 80 56 463 277 102 58 190 112 197
118 8 8 10 27 6 54 l-6 42 -312 181 c-172 99 -321 180 -331 180 -11 0 -87 -39
-169 -86 -83 -48 -235 -135 -338 -194 -103 -60 -182 -110 -175 -112 8 -3 8 -6
-3 -10 -11 -4 -15 1 -15 17 0 13 4 21 8 19 4 -3 8 0 8 5 0 6 -5 11 -12 11 -6
0 -8 3 -5 7 9 8 -24 32 -45 33 -9 0 -24 -10 -32 -22 -10 -14 -16 -17 -16 -8 0
9 -4 8 -14 -6 -13 -16 -13 -22 0 -41 10 -16 11 -24 2 -29 -6 -4 -8 -3 -5 3 4
6 -1 17 -11 24 -9 7 -14 10 -11 6 3 -4 1 -27 -6 -52 -11 -44 -14 -47 -120
-108 -655 -378 -902 -521 -912 -530 -7 -5 -13 -29 -13 -52 l0 -43 103 -59 c56
-33 197 -114 313 -181 116 -67 222 -122 235 -122 22 0 121 54 418 227 68 40
90 58 80 64 -11 7 -12 9 -1 9 8 0 16 -9 19 -20 3 -11 12 -20 19 -20 8 0 14 -7
14 -16 0 -10 5 -14 16 -10 8 3 12 2 9 -4 -3 -5 18 -27 47 -49 141 -107 150
-113 172 -107 28 7 55 -8 31 -17 -9 -4 -13 -3 -10 3 3 6 2 10 -4 10 -25 0 -19
-21 8 -26 17 -4 28 -10 25 -15 -3 -5 2 -9 10 -9 9 0 16 -4 16 -9 0 -12 119
-105 126 -98 5 5 -39 43 -59 50 -7 2 -10 7 -7 10 3 3 25 -10 49 -29 24 -18 38
-34 30 -34 -8 0 -5 -8 10 -22 16 -16 25 -19 28 -10 3 6 9 9 15 6 7 -4 6 -9 -1
-14 -8 -4 9 -24 46 -54 32 -26 66 -54 76 -62 21 -17 31 -18 21 -3 -5 8 -1 8
14 0 12 -6 24 -17 28 -24 5 -8 2 -7 -9 2 -10 8 -20 12 -23 9 -3 -3 13 -20 35
-37 35 -28 43 -31 63 -20 13 6 20 8 16 4 -4 -5 -2 -15 4 -24 10 -13 10 -14 -2
-3 -23 20 -35 14 -15 -8 12 -14 25 -18 41 -14 14 4 24 2 24 -5 0 -6 -7 -8 -15
-5 -30 12 -14 -6 43 -48 31 -23 63 -48 69 -54 7 -7 24 -21 38 -33 l26 -20 -37
-48 c-20 -26 -48 -72 -61 -101 -19 -39 -29 -51 -41 -48 -171 52 -443 70 -590
40 -129 -26 -214 -72 -301 -162 -132 -136 -171 -238 -235 -620 -40 -236 -245
-1586 -278 -1830 -7 -51 -15 -91 -18 -90 -19 9 -83 93 -101 133 -11 25 -23 44
-26 42 -3 -3 -5 -38 -4 -77 1 -78 11 -99 88 -181 28 -29 33 -41 29 -70 -3 -18
-5 -37 -5 -41 -1 -5 -10 -8 -21 -8 -11 0 -37 -15 -57 -34 -21 -18 -54 -39 -75
-45 -47 -15 -121 -81 -153 -136 -14 -23 -31 -73 -38 -111 -12 -67 -13 -69 -42
-69 -30 0 -30 0 -29 55 1 77 31 137 100 204 64 62 56 73 -24 32 -89 -45 -162
-147 -178 -247 -5 -30 -12 -41 -30 -45 -43 -11 -55 1 -48 48 13 83 44 147 96
198 27 27 59 52 69 55 20 7 27 25 9 25 -28 0 -122 -45 -156 -74 -44 -37 -95
-126 -114 -194 -10 -41 -13 -43 -43 -40 -43 4 -44 22 -7 111 37 89 86 149 149
182 l46 24 -70 0 c-134 1 -227 -71 -285 -221 -32 -82 -60 -234 -60 -325 0 -30
-5 -53 -10 -53 -15 0 -108 48 -160 83 -77 51 -151 129 -180 190 -31 64 -40 58
-40 -25 0 -67 23 -111 94 -181 130 -128 291 -210 491 -252 44 -9 162 -25 264
-36 206 -22 243 -30 423 -93 165 -59 275 -80 418 -79 128 0 187 16 254 69 38
30 59 82 55 132 -1 15 3 54 10 87 10 42 11 101 7 205 -5 88 -3 174 4 218 15
109 -6 143 -75 117 -17 -6 -17 -5 3 9 12 10 19 22 16 28 -4 6 -2 8 4 4 6 -3
13 -2 17 4 3 5 1 10 -6 10 -8 0 -8 4 1 15 9 11 15 12 20 5 4 -6 71 -18 150
-26 127 -13 164 -22 323 -75 215 -73 299 -90 437 -91 116 -1 173 11 238 49 58
33 82 75 82 140 0 28 5 64 11 80 6 16 11 134 12 293 l2 265 -28 13 c-27 13
-28 15 -11 33 9 10 17 32 18 48 1 16 5 27 10 23 5 -3 7 4 4 15 -4 15 2 25 23
37 16 9 30 28 34 46 4 16 10 32 14 34 4 3 171 -90 372 -205 200 -116 463 -268
584 -337 l220 -127 70 0 c81 0 85 2 339 149 181 105 1287 744 1556 899 96 55
183 107 193 115 21 18 22 75 3 184 -24 131 -95 233 -211 303 -33 20 -47 25
-30 13 16 -13 39 -33 51 -44 13 -12 25 -20 27 -17 3 2 11 -10 18 -26 8 -17 17
-31 21 -31 14 0 9 -41 -8 -70 -9 -15 -42 -43 -73 -61 -31 -18 -68 -42 -83 -53
-15 -11 -30 -17 -34 -14 -3 4 -1 77 5 164 6 86 11 185 11 218 l1 61 52 31 c29
17 165 95 302 174 138 79 256 149 264 156 13 12 74 905 177 2599 24 400 18
422 -165 543 -58 39 -116 75 -128 81 -33 17 -122 13 -178 -8z m-4030 -400
c-16 -14 -55 -23 -55 -13 0 12 17 20 45 21 11 1 15 -3 10 -8z m-85 -39 c0 -11
-41 -34 -48 -28 -3 4 3 13 14 21 21 16 34 19 34 7z m204 -25 l26 -14 -26 -12
c-22 -10 -31 -9 -52 5 -19 13 -22 18 -11 25 19 12 33 11 63 -4z m-290 -26 c6
-9 -39 -32 -48 -24 -3 3 2 12 12 19 20 16 29 17 36 5z m179 -28 c-3 -27 -3
-27 7 -5 8 19 12 21 24 10 11 -11 11 -15 -5 -26 -14 -9 -23 -10 -43 0 -30 13
-33 23 -8 37 26 16 30 13 25 -16z m206 1 c17 -9 28 -20 25 -26 -4 -7 -2 -8 4
-4 6 4 21 2 33 -5 18 -9 19 -13 8 -21 -10 -7 -8 -8 8 -3 12 3 24 1 28 -5 3 -5
0 -10 -9 -10 -8 0 -16 -5 -18 -12 -4 -12 -148 68 -148 82 0 8 16 17 31 19 3 1
20 -6 38 -15z m-473 -29 c-11 -8 -27 -15 -35 -15 -13 1 -12 4 3 15 11 8 27 15
35 15 13 -1 12 -4 -3 -15z m209 -7 c31 -14 32 -22 3 -35 -31 -14 -74 12 -57
33 14 17 21 17 54 2z m179 -36 c-22 -12 -29 -11 -51 4 l-26 17 23 12 c19 10
28 10 51 -4 l28 -16 -25 -13z m-469 -8 c17 -13 18 -16 5 -24 -20 -13 -37 -12
-62 1 -21 11 -21 12 -3 25 24 18 35 17 60 -2z m219 -9 c18 -14 18 -15 -5 -25
-19 -9 -31 -8 -53 3 -26 14 -26 16 -9 26 25 14 44 13 67 -4z m167 -4 l23 -18
-23 -12 c-18 -10 -27 -9 -48 5 -25 16 -26 17 -8 30 24 18 28 18 56 -5z m169
-6 c7 -8 16 -12 21 -9 5 3 9 3 9 0 0 -3 -9 -10 -21 -16 -16 -9 -28 -9 -51 1
-28 12 -29 13 -12 26 23 17 39 17 54 -2z m217 -26 c41 -24 52 -34 41 -41 -9
-6 -6 -7 10 -3 26 8 29 -3 5 -20 -15 -11 -25 -8 -68 20 -29 18 -62 36 -74 40
-18 5 -20 9 -10 21 17 21 36 17 96 -17z m-854 -2 c25 -13 25 -13 5 -26 -16
-10 -26 -10 -49 -1 -41 17 -37 30 12 39 4 0 18 -5 32 -12z m158 -16 c-10 -7
-9 -9 3 -14 9 -4 15 -2 13 2 -3 11 8 12 28 4 14 -5 13 -8 -4 -19 -16 -11 -25
-12 -45 -2 -30 13 -33 23 -9 37 21 11 34 4 14 -8z m230 -2 l24 -20 -30 5 c-16
3 -24 3 -17 0 6 -3 9 -10 6 -15 -3 -6 -11 -6 -20 2 -7 6 -11 15 -8 20 3 5 -3
6 -13 3 -16 -5 -16 -4 1 10 25 20 29 20 57 -5z m154 1 c-3 -5 0 -7 8 -4 20 7
33 -16 16 -27 -21 -13 -36 -11 -53 7 -19 19 -12 34 15 34 11 0 17 -4 14 -10z
m191 -6 c25 -17 25 -17 4 -31 -18 -13 -24 -13 -47 2 -25 17 -26 18 -8 31 23
17 21 17 51 -2z m-816 -51 c-16 -11 -24 -11 -42 -2 -33 17 -33 18 -12 33 16
12 22 12 46 -2 26 -15 26 -16 8 -29z m195 11 c20 -15 20 -16 1 -29 -16 -12
-23 -12 -48 1 -28 15 -29 16 -11 29 23 18 33 18 58 -1z m367 -3 l28 -14 -26
-13 c-22 -12 -29 -11 -52 4 -21 14 -23 18 -9 20 9 2 17 8 17 14 0 5 3 8 8 6 4
-2 19 -10 34 -17z m-192 -5 l25 -14 -29 -14 c-23 -10 -30 -10 -34 0 -2 6 -10
12 -18 12 -17 0 -19 17 -1 23 20 9 31 7 57 -7z m369 -2 l24 -17 -24 -13 c-20
-10 -28 -10 -51 4 l-28 16 23 13 c29 16 28 16 56 -3z m-912 -16 c-3 -8 -6 -5
-6 6 -1 11 2 17 5 13 3 -3 4 -12 1 -19z m1088 8 c18 -13 18 -14 -4 -25 -25
-14 -56 -7 -46 9 4 6 -1 7 -12 4 -16 -5 -16 -4 1 10 24 20 37 20 61 2z m-1006
-47 c-38 -26 -48 -29 -55 -17 -4 6 -3 8 4 4 7 -4 10 1 9 14 -1 11 -5 20 -10
20 -4 0 -5 4 -2 10 4 6 18 4 37 -6 24 -13 28 -18 17 -25z m196 19 c30 -13 31
-19 6 -35 -14 -9 -24 -8 -46 7 -25 17 -26 19 -9 29 24 13 19 13 49 -1z m190
-35 c-21 -15 -50 -14 -46 2 2 6 7 9 13 7 5 -1 7 2 3 8 -5 8 -11 7 -21 -1 -8
-6 -17 -9 -21 -5 -4 3 2 12 13 20 16 12 23 12 48 -1 29 -15 29 -16 11 -30z
m364 23 c24 -13 24 -14 3 -25 -27 -14 -45 -14 -36 1 4 6 3 8 -4 5 -5 -4 -18
-4 -28 0 -16 6 -16 7 2 20 22 16 32 16 63 -1z m170 -5 l24 -19 -24 -12 c-13
-7 -43 -23 -65 -37 l-41 -23 -24 21 c-17 15 -19 19 -6 15 10 -3 17 0 17 7 0
10 76 67 90 67 3 0 16 -9 29 -19z m-1159 -44 c0 -7 -4 -6 -10 3 -8 12 -10 12
-10 1 0 -8 -3 -12 -6 -8 -9 9 6 28 17 22 5 -4 9 -12 9 -18z m530 2 c0 -5 6 -9
14 -9 8 0 18 -4 21 -10 7 -11 -23 -2 -41 12 -7 5 -14 3 -18 -7 -5 -13 -10 -14
-28 -4 l-21 12 23 12 c25 13 50 10 50 -6z m-185 -3 c17 -12 15 -15 -26 -39
-38 -23 -45 -25 -55 -12 -6 8 -17 15 -25 15 -8 0 -4 8 11 20 14 11 33 18 43
16 9 -2 15 0 11 5 -8 14 20 11 41 -5z m-125 -17 c0 -6 -4 -7 -10 -4 -5 3 -10
11 -10 16 0 6 5 7 10 4 6 -3 10 -11 10 -16z m-269 -42 c-10 -9 -11 -8 -5 6 3
10 9 15 12 12 3 -3 0 -11 -7 -18z m489 3 c31 -16 39 -26 42 -52 2 -22 -3 -41
-15 -55 -16 -18 -23 -20 -48 -11 -35 12 -37 23 -7 39 l22 12 -30 23 c-16 13
-36 24 -44 24 -11 1 -8 6 9 20 28 24 23 24 71 0z m368 -3 l23 -13 -27 -13
c-15 -6 -30 -8 -33 -3 -3 5 -15 12 -26 16 -16 6 -17 9 -5 16 20 13 40 12 68
-3z m166 1 c20 -9 23 -14 15 -25 -14 -17 -30 -17 -64 1 -25 13 -25 15 -8 25
23 13 27 13 57 -1z m-1044 -28 c0 -5 -4 -10 -10 -10 -5 0 -10 5 -10 10 0 6 5
10 10 10 6 0 10 -4 10 -10z m430 -32 c0 -4 -9 -12 -20 -18 -17 -9 -20 -8 -20
10 0 11 -5 20 -11 20 -5 0 -8 4 -5 9 6 10 56 -9 56 -21z m540 8 l25 -14 -25
-12 c-20 -9 -31 -8 -54 3 -26 14 -26 16 -9 26 24 14 33 13 63 -3z m-297 -11
c-3 -9 -8 -14 -10 -11 -3 3 -2 9 2 15 9 16 15 13 8 -4z m-752 -15 c10 -6 19
-17 19 -24 0 -22 -31 -28 -57 -10 -24 15 -24 16 -6 29 22 17 20 17 44 5z m988
-37 c2 -1 -9 -7 -24 -13 -22 -8 -31 -7 -45 5 -9 8 -20 12 -23 8 -4 -3 -7 -2
-7 3 0 5 10 14 23 20 20 9 39 3 76 -23z m-138 0 c13 -17 13 -17 -6 -3 -11 8
-22 16 -24 17 -2 2 0 3 6 3 6 0 17 -8 24 -17z m-918 -19 c23 -8 22 -21 -4 -34
-16 -9 -24 -8 -38 4 -10 9 -24 16 -32 16 -8 0 -3 7 11 14 14 8 30 12 35 10 6
-2 18 -7 28 -10z m722 -14 c-2 -11 -6 -24 -9 -29 -4 -5 0 -12 6 -15 7 -4 2 -3
-12 0 -14 3 -33 6 -42 7 -24 2 -24 3 19 32 45 30 43 30 38 5z m-805 -34 l25
-14 -25 -12 c-20 -9 -31 -8 -54 3 -26 14 -26 16 -9 26 24 14 33 13 63 -3z
m150 -28 c0 -9 3 -8 10 2 7 12 9 10 8 -6 -2 -19 -5 -20 -25 -11 -12 5 -20 14
-17 18 8 13 24 11 24 -3z m-231 -22 c24 -13 24 -14 3 -25 -27 -14 -33 -14 -57
5 -17 13 -18 16 -5 24 20 13 30 12 59 -4z m846 4 c-3 -5 -12 -10 -18 -10 -7 0
-6 4 3 10 19 12 23 12 15 0z m-653 -21 l20 -11 -20 -14 c-17 -11 -26 -12 -46
-2 -28 12 -33 24 -13 31 20 9 37 8 59 -4z m-107 -39 c3 -5 -1 -10 -10 -10 -9
0 -13 5 -10 10 3 6 8 10 10 10 2 0 7 -4 10 -10z m-209 -10 c27 -11 27 -11 6
-25 -16 -12 -26 -13 -46 -3 -28 12 -33 24 -13 31 19 8 24 8 53 -3z m244 -10
c0 -21 -28 -30 -54 -19 -36 17 -32 24 14 25 22 1 40 -2 40 -6z m111 -31 c13
-11 18 -18 12 -14 -7 3 -13 1 -13 -4 0 -11 -22 -10 -52 4 -30 12 -21 26 23 34
4 0 17 -8 30 -20z m-411 -25 c0 -4 -9 -4 -20 -1 -10 3 -18 1 -17 -3 3 -12 -6
-14 -30 -6 -27 9 -29 21 -6 35 17 9 73 -11 73 -25z m209 20 l24 -17 -24 -13
c-19 -10 -29 -10 -52 3 -27 14 -28 15 -10 28 24 19 34 18 62 -1z m120 -62
c-16 -11 -26 -12 -46 -3 -24 11 -27 39 -4 34 6 -2 11 2 11 8 0 5 13 2 30 -7
29 -17 29 -18 9 -32z m-455 22 c9 -3 13 -10 10 -15 -3 -5 2 -6 10 -3 9 3 16 1
16 -5 0 -18 -47 -24 -70 -8 -21 14 -21 16 -3 26 22 13 18 12 37 5z m260 -14
c4 -5 -2 -14 -14 -20 -17 -9 -28 -9 -49 0 -25 11 -25 12 -6 26 18 14 50 11 69
-6z m341 -19 c-6 -5 -25 10 -25 20 0 5 6 4 14 -3 8 -7 12 -15 11 -17z m-226
-16 l24 -7 -23 -13 c-24 -13 -44 -10 -68 8 -11 8 -9 13 10 23 12 7 25 9 28 5
3 -5 16 -12 29 -16z m192 14 c16 -8 18 -13 8 -25 -14 -17 -38 -18 -61 0 -13
10 -15 15 -6 24 15 15 33 15 59 1z m-393 -26 c11 -11 10 -15 -10 -22 -14 -5
-31 -5 -43 2 -30 15 -30 16 -10 31 20 15 41 11 63 -11z m-233 3 c18 -13 18
-14 -3 -25 -16 -8 -27 -8 -46 1 -28 12 -33 24 -13 31 22 10 43 7 62 -7z m541
-22 c24 -16 24 -17 5 -30 -16 -11 -25 -12 -45 -2 -30 13 -33 23 -8 37 22 13
19 14 48 -5z m129 6 c3 -5 1 -10 -4 -10 -6 0 -11 5 -11 10 0 6 2 10 4 10 3 0
8 -4 11 -10z m-330 -12 c29 -13 32 -23 9 -32 -26 -10 -51 -7 -63 8 -10 11 -8
17 6 25 22 13 18 13 48 -1z m-195 -43 c-19 -10 -28 -10 -50 3 -28 16 -28 16
-6 27 16 9 28 8 50 -3 l30 -14 -24 -13z m526 20 c4 -8 3 -22 0 -30 -5 -14 -9
-14 -37 1 l-32 16 24 13 c32 18 39 18 45 0z m-806 -10 c7 -8 20 -15 29 -15 9
0 2 -8 -17 -20 -30 -19 -34 -19 -57 -4 -25 17 -25 34 1 34 8 0 14 5 14 10 0
15 16 12 30 -5z m600 -40 c-24 -13 -70 -2 -70 16 0 20 35 27 64 12 l30 -15
-24 -13z m-205 23 c27 -12 35 -31 8 -21 -11 4 -14 3 -9 -5 5 -8 0 -12 -14 -12
-13 0 -19 4 -14 12 4 6 3 8 -4 5 -5 -4 -17 -4 -26 -1 -15 6 -15 8 1 20 22 17
26 17 58 2z m-212 -9 c32 -17 32 -18 11 -33 -16 -12 -22 -12 -46 2 -25 14 -25
17 -10 28 21 16 19 16 45 3z m548 -20 c17 -15 19 -19 7 -15 -10 3 -17 2 -17
-2 3 -20 -4 -21 -33 -6 -30 16 -31 17 -13 30 25 18 29 18 56 -7z m-226 -11
c27 -12 36 -34 9 -24 -8 3 -12 2 -9 -4 9 -15 -27 -11 -48 4 -18 14 -18 15 0
25 22 13 18 13 48 -1z m-182 -13 c18 -13 18 -14 -2 -24 -25 -14 -32 -14 -56 5
-17 13 -18 16 -5 24 21 13 42 12 63 -5z m540 -5 c16 -19 15 -20 -3 -30 -11 -6
-26 -8 -33 -4 -6 4 -9 3 -4 -1 4 -5 -5 -17 -20 -27 -29 -19 -58 -24 -49 -9 3
5 -2 8 -11 7 -34 -3 -21 20 30 51 63 38 68 38 90 13z m-758 -2 c14 -6 25 -15
25 -19 0 -15 -38 -19 -64 -8 -20 9 -23 15 -15 26 14 16 21 16 54 1z m550 -14
c17 -13 18 -16 5 -24 -20 -13 -37 -12 -62 1 -21 11 -21 12 3 25 30 17 30 17
54 -2z m-221 -16 c26 -11 26 -11 5 -26 -17 -12 -25 -12 -51 -1 -28 12 -29 13
-12 26 22 16 26 16 58 1z m-194 -8 c13 -9 12 -13 -5 -26 -41 -31 -51 -33 -79
-14 l-29 18 29 16 c34 18 63 20 84 6z m1573 -8 c15 -16 15 -18 -1 -18 -10 0
-18 8 -18 18 0 10 1 18 2 18 0 0 8 -8 17 -18z m-1244 -16 c24 -13 24 -14 3
-25 -27 -14 -33 -14 -57 5 -17 13 -18 16 -5 24 20 13 30 12 59 -4z m-219 -14
l30 -19 -48 -24 c-64 -33 -66 -33 -57 -19 5 8 4 11 -3 7 -12 -8 -42 1 -42 13
0 4 16 15 35 24 19 9 37 21 40 26 8 13 10 13 45 -8z m380 -27 c0 -2 -13 -11
-30 -20 -23 -12 -34 -13 -55 -3 -32 14 -32 24 2 42 24 12 31 12 55 0 16 -8 28
-17 28 -19z m-245 -32 c-21 -12 -29 -11 -51 3 l-26 17 24 13 c19 10 28 9 50
-4 l28 -16 -25 -13z m123 -7 l24 -13 -28 -17 c-24 -17 -30 -17 -58 -4 l-31 15
30 16 c36 20 34 19 63 3z m-206 -12 c23 -12 27 -18 17 -24 -7 -5 -17 -6 -21
-4 -4 3 -8 0 -8 -5 0 -14 -26 -14 -49 1 -18 11 -18 12 3 29 26 22 21 22 58 3z
m124 -56 c2 1 4 -1 4 -5 -1 -5 -15 -15 -32 -24 -28 -14 -34 -14 -60 -1 l-30
14 39 23 c35 20 39 21 57 6 10 -9 20 -15 22 -13z m639 -36 c-3 -3 -11 0 -18 7
-9 10 -8 11 6 5 10 -3 15 -9 12 -12z m55 4 c-4 -4 -16 -4 -26 2 -16 9 -14 10
8 9 15 -1 23 -6 18 -11z m-15 -26 c3 -5 2 -10 -4 -10 -5 0 -13 5 -16 10 -3 6
-2 10 4 10 5 0 13 -4 16 -10z m1095 -64 c0 -2 -8 -10 -17 -17 -16 -13 -17 -12
-4 4 13 16 21 21 21 13z m437 -178 c-3 -8 -6 -5 -6 6 -1 11 2 17 5 13 3 -3 4
-12 1 -19z m-1131 -63 c9 -8 11 -15 6 -15 -5 0 -15 7 -22 15 -7 8 -9 15 -6 15
4 0 14 -7 22 -15z m154 -117 c0 -6 -6 -5 -15 2 -8 7 -15 14 -15 16 0 2 7 1 15
-2 8 -4 15 -11 15 -16z m170 -112 c0 -2 -7 -7 -16 -10 -8 -3 -12 -2 -9 4 6 10
25 14 25 6z m224 -222 c3 -8 2 -12 -4 -9 -6 3 -10 10 -10 16 0 14 7 11 14 -7z
m91 -62 c-3 -3 -11 0 -18 7 -9 10 -8 11 6 5 10 -3 15 -9 12 -12z m1115 2 c0
-8 -4 -12 -10 -9 -5 3 -10 10 -10 16 0 5 5 9 10 9 6 0 10 -7 10 -16z m-946
-123 c-2 -3 -12 3 -22 13 -16 17 -16 18 5 5 12 -7 20 -15 17 -18z m66 -31 c8
-5 11 -10 5 -10 -5 0 -17 5 -25 10 -8 5 -10 10 -5 10 6 0 17 -5 25 -10z m780
-35 c14 -19 14 -19 -2 -6 -10 7 -18 18 -18 24 0 6 1 8 3 6 1 -2 9 -13 17 -24z
m-685 -17 c14 -6 25 -15 25 -20 0 -8 -17 -1 -50 22 -20 13 -7 13 25 -2z m60
-38 c3 -5 2 -10 -4 -10 -5 0 -13 5 -16 10 -3 6 -2 10 4 10 5 0 13 -4 16 -10z
m539 -35 c-7 -18 12 -20 20 -2 3 6 3 1 0 -13 -4 -14 -11 -29 -17 -35 -7 -7 -8
-5 -4 7 3 9 -1 22 -9 29 -12 10 -12 14 -2 20 18 12 18 11 12 -6z m-375 -41
c13 -12 -8 -10 -29 2 l-25 15 25 -7 c14 -3 27 -8 29 -10z m71 -36 c10 -6 7 -7
-10 -2 -14 3 -32 11 -40 16 -10 6 -7 7 10 2 14 -3 32 -11 40 -16z m274 -3
c-32 -24 -70 -34 -85 -23 -12 8 -11 9 1 5 9 -3 33 5 55 18 43 24 61 24 29 0z
m-149 -25 c-3 -5 -12 -10 -18 -10 -7 0 -6 4 3 10 19 12 23 12 15 0z m42 -16
c-3 -3 -12 -4 -19 -1 -8 3 -5 6 6 6 11 1 17 -2 13 -5z m-706 -407 c24 -8 121
-58 214 -112 94 -54 199 -115 235 -135 36 -21 148 -85 250 -145 102 -59 249
-144 327 -189 78 -44 139 -84 135 -88 -4 -4 -97 -58 -207 -122 l-200 -114 -55
31 c-30 17 -149 85 -265 152 -115 67 -232 134 -260 149 -45 26 -128 74 -370
215 -44 26 -130 76 -192 111 -62 35 -110 67 -107 72 3 5 28 21 56 36 28 15 58
32 67 37 67 41 162 90 196 101 53 17 122 17 176 1z m-426 -556 c94 -58 172
-109 175 -112 3 -3 10 -8 15 -10 6 -2 52 -29 103 -59 l92 -54 0 -58 c0 -32 -2
-58 -6 -58 -9 0 -303 169 -376 215 -125 82 -198 164 -198 225 0 22 4 29 13 24
6 -4 89 -55 182 -113z m2915 -358 c-3 -56 -8 -103 -10 -105 -3 -2 -19 -13 -37
-26 -18 -12 -36 -22 -40 -22 -4 0 -35 -16 -68 -36 -63 -39 -233 -138 -275
-161 -14 -8 -47 -28 -75 -44 -27 -16 -59 -34 -70 -40 -11 -5 -45 -25 -75 -44
-30 -18 -91 -52 -135 -76 -44 -23 -82 -45 -85 -48 -3 -4 -16 -12 -30 -18 -14
-7 -47 -26 -75 -42 -118 -71 -127 -74 -200 -74 -65 0 -106 11 -155 43 -38 24
-339 197 -375 215 -22 11 -42 23 -45 26 -3 4 -61 38 -130 77 -69 38 -168 95
-220 126 -52 31 -121 71 -152 89 l-58 32 0 63 c0 35 4 62 8 60 5 -1 106 -51
225 -111 350 -174 515 -237 681 -262 167 -24 292 -16 486 31 58 15 110 27 115
29 6 1 24 8 40 15 17 7 45 13 62 13 18 1 28 4 23 7 -5 3 7 12 28 19 136 49
563 291 631 358 7 8 14 13 15 11 1 -2 -1 -49 -4 -105z m-3152 -12 c11 -7 11
-35 0 -164 -11 -122 -11 -162 -2 -179 9 -17 9 -31 -1 -64 -7 -24 -11 -45 -8
-48 3 -2 -5 -2 -17 1 -15 4 -30 -3 -53 -25 -38 -37 -75 -52 -127 -52 l-39 0
63 133 c63 132 124 284 145 365 12 43 17 48 39 33z m132 -437 c0 -2 -13 2 -30
11 -16 9 -30 18 -30 21 0 2 14 -2 30 -11 17 -9 30 -18 30 -21z m207 -80 c-3
-3 -12 -4 -19 -1 -8 3 -5 6 6 6 11 1 17 -2 13 -5z m274 -97 c-10 -9 -11 -8 -5
6 3 10 9 15 12 12 3 -3 0 -11 -7 -18z m-654 -39 c-3 -8 -6 -5 -6 6 -1 11 2 17
5 13 3 -3 4 -12 1 -19z m193 -112 c0 -2 -7 -7 -16 -10 -8 -3 -12 -2 -9 4 6 10
25 14 25 6z m-61 -39 c-2 -1 -13 -9 -24 -17 -19 -14 -19 -14 -6 3 7 9 18 17
24 17 6 0 8 -1 6 -3z m-72 -53 c-3 -3 -12 -4 -19 -1 -8 3 -5 6 6 6 11 1 17 -2
13 -5z m-1235 -186 c-7 -7 -12 -8 -12 -2 0 14 12 26 19 19 2 -3 -1 -11 -7 -17z
m57 -22 c-3 -3 -11 5 -18 17 -13 21 -12 21 5 5 10 -10 16 -20 13 -22z m41 -16
c8 -5 11 -10 5 -10 -5 0 -17 5 -25 10 -8 5 -10 10 -5 10 6 0 17 -5 25 -10z
m110 -64 c0 -2 -7 -7 -16 -10 -8 -3 -12 -2 -9 4 6 10 25 14 25 6z m-243 -68
c-3 -8 -6 -5 -6 6 -1 11 2 17 5 13 3 -3 4 -12 1 -19z m431 15 c-10 -2 -28 -2
-40 0 -13 2 -5 4 17 4 22 1 32 -1 23 -4z m239 1 c-3 -3 -12 -4 -19 -1 -8 3 -5
6 6 6 11 1 17 -2 13 -5z m-660 -54 c1 -16 -1 -17 -12 -7 -7 6 -11 15 -8 20 8
13 19 7 20 -13z m620 4 c-3 -3 -12 -4 -19 -1 -8 3 -5 6 6 6 11 1 17 -2 13 -5z
m-100 -170 c-3 -3 -12 -4 -19 -1 -8 3 -5 6 6 6 11 1 17 -2 13 -5z m-302 -24
c-3 -5 -11 -10 -16 -10 -6 0 -7 5 -4 10 3 6 11 10 16 10 6 0 7 -4 4 -10z m-45
-20 c-8 -5 -19 -10 -25 -10 -5 0 -3 5 5 10 8 5 20 10 25 10 6 0 3 -5 -5 -10z
m-201 -75 c0 -5 -4 -3 -9 5 -5 8 -9 22 -9 30 0 16 17 -16 18 -35z m75 -20
c-10 -8 -26 -14 -34 -15 -8 0 -4 6 10 14 34 19 48 20 24 1z"/>
<path d="M12967 9129 c7 -7 15 -10 18 -7 3 3 -2 9 -12 12 -14 6 -15 5 -6 -5z"/>
<path d="M12727 8979 c7 -7 15 -10 18 -7 3 3 -2 9 -12 12 -14 6 -15 5 -6 -5z"/>
<path d="M13289 8941 c13 -12 28 -21 34 -21 12 0 11 0 -28 24 l-30 17 24 -20z"/>
<path d="M11495 8280 c3 -5 8 -10 11 -10 2 0 4 5 4 10 0 6 -5 10 -11 10 -5 0
-7 -4 -4 -10z"/>
<path d="M11150 8200 c-9 -6 -10 -10 -3 -10 6 0 15 5 18 10 8 12 4 12 -15 0z"/>
<path d="M11475 8060 c-3 -6 1 -7 9 -4 18 7 21 14 7 14 -6 0 -13 -4 -16 -10z"/>
<path d="M11620 8036 c0 -2 7 -7 16 -10 8 -3 12 -2 9 4 -6 10 -25 14 -25 6z"/>
<path d="M11525 7970 c-3 -6 1 -7 9 -4 18 7 21 14 7 14 -6 0 -13 -4 -16 -10z"/>
<path d="M15158 4993 c7 -3 16 -2 19 1 4 3 -2 6 -13 5 -11 0 -14 -3 -6 -6z"/>
<path d="M3764 9195 c-34 -7 -79 -22 -99 -33 l-39 -19 25 -17 c111 -72 471
-77 606 -7 l37 19 -40 20 c-95 49 -349 68 -490 37z"/>
<path d="M2175 9060 c-3 -6 1 -7 9 -4 18 7 21 14 7 14 -6 0 -13 -4 -16 -10z"/>
<path d="M2380 8962 l0 -60 44 -26 c55 -32 67 -32 122 0 l45 27 -93 54 c-127
75 -118 75 -118 5z"/>
<path d="M1953 8926 c-88 -79 -133 -195 -133 -342 l0 -81 148 -86 c260 -150
552 -318 795 -457 l236 -135 1 -572 0 -572 -45 16 -45 15 0 55 c0 55 0 55 -27
48 -45 -11 -183 -95 -201 -123 -11 -16 -17 -46 -16 -81 1 -185 187 -386 303
-328 l31 15 0 -246 c-1 -207 -4 -257 -19 -312 l-18 -65 -17 33 c-9 18 -28 38
-41 44 -17 8 -27 22 -31 47 -13 67 -33 111 -80 172 -47 61 -94 115 -94 108 0
-2 9 -50 20 -107 37 -192 16 -267 -28 -97 -27 106 -45 147 -89 202 -56 70
-132 104 -201 88 l-30 -6 58 -82 c60 -83 121 -230 103 -248 -5 -5 -32 26 -60
69 -134 202 -285 286 -383 212 l-25 -19 24 -25 c13 -14 28 -23 33 -20 5 3 7 0
6 -8 -2 -7 3 -12 10 -10 6 1 11 -1 10 -6 -2 -4 10 -21 26 -37 39 -41 116 -160
116 -179 0 -27 -16 -18 -52 26 -44 56 -130 139 -197 191 -52 40 -58 42 -122
42 -89 0 -104 -13 -63 -57 63 -68 144 -190 144 -216 0 -24 -17 -11 -46 35 -42
68 -138 163 -164 163 -37 0 -99 -45 -100 -72 0 -4 31 -27 68 -51 46 -30 73
-55 82 -76 25 -62 -16 -54 -126 25 -44 31 -85 57 -93 58 -15 1 -75 -101 -86
-145 -6 -24 -1 -30 67 -72 126 -78 199 -90 361 -61 30 5 37 4 37 -9 0 -30 -47
-50 -133 -56 l-82 -6 53 -39 53 -38 113 0 114 0 95 61 c93 61 117 71 117 50 0
-19 -59 -93 -90 -114 -16 -11 -30 -22 -30 -25 0 -3 34 -22 75 -42 l74 -37 37
42 c20 23 43 57 52 75 l16 33 12 -41 c13 -44 5 -69 -46 -140 -13 -18 -19 -31
-13 -27 5 4 22 -7 36 -23 23 -25 31 -28 64 -23 40 6 63 25 63 54 0 26 27 44
44 29 12 -9 13 -18 5 -38 -6 -15 -14 -29 -19 -32 -5 -3 21 -4 58 -2 65 4 68 5
109 50 l41 47 59 -20 58 -20 3 -57 c2 -45 7 -60 22 -68 22 -12 23 -12 20 48
-1 24 3 42 9 42 7 0 11 -22 11 -55 0 -44 4 -56 20 -65 11 -6 18 -15 15 -20 -3
-6 0 -7 8 -5 7 3 34 -14 60 -40 101 -98 156 -219 159 -349 1 -67 -15 -136 -31
-136 -21 1 -84 87 -74 103 3 6 12 2 20 -8 7 -11 13 -15 13 -9 0 5 -7 18 -15
28 -11 14 -15 16 -15 5 -1 -14 -37 23 -75 76 -25 36 -108 116 -113 110 -3 -2
-1 -33 2 -68 6 -49 13 -69 35 -93 53 -57 122 -158 117 -171 -3 -8 -2 -12 3 -9
13 8 65 -79 91 -152 28 -77 24 -152 -14 -232 -39 -84 -99 -142 -127 -124 -18
11 0 -37 31 -83 18 -27 31 -61 35 -97 l7 -56 -51 -2 c-111 -4 -104 -6 -114 32
-5 19 -11 37 -13 39 -9 9 -48 -55 -46 -74 3 -19 -5 -24 -70 -38 -40 -9 -113
-33 -163 -54 -86 -36 -90 -39 -87 -67 7 -58 -8 -98 -59 -151 -57 -60 -151
-108 -214 -109 -47 -1 -57 -14 -87 -115 -29 -98 -36 -331 -14 -476 68 -436
280 -841 512 -977 158 -92 319 -131 544 -131 286 0 494 67 650 210 163 149
314 451 384 765 21 93 46 277 46 334 0 8 7 14 16 14 21 0 15 38 -26 189 -58
214 -61 311 -10 311 19 0 60 -53 67 -85 22 -107 32 -174 37 -240 4 -44 9 -103
12 -132 l5 -52 87 -36 c85 -36 256 -85 298 -85 16 0 32 18 62 68 45 77 152
287 152 300 0 21 -314 279 -474 390 -58 40 -106 77 -106 83 0 14 60 11 115 -5
43 -13 203 -99 215 -116 3 -3 25 -21 50 -38 25 -18 83 -63 130 -101 91 -75
126 -98 136 -88 3 3 8 42 11 86 4 61 1 98 -12 148 -27 100 -65 132 -260 222
-177 81 -222 99 -311 131 -101 35 -156 94 -122 128 19 19 53 15 152 -19 191
-64 472 -226 574 -332 l62 -65 6 35 c10 51 -12 185 -38 240 -25 51 -74 86
-223 157 -258 123 -401 165 -575 167 -154 2 -193 19 -129 58 120 73 408 37
647 -81 57 -28 117 -62 135 -77 l31 -26 -34 62 c-42 75 -105 151 -177 214 -52
45 -57 47 -147 58 -54 7 -196 11 -328 10 -128 -1 -241 2 -251 6 -13 5 -17 16
-15 39 6 65 100 81 301 51 94 -14 275 -54 322 -71 55 -20 -111 92 -208 140
-317 156 -673 149 -847 -16 -24 -22 -32 -24 -155 -24 l-131 0 -42 122 c-41
120 -42 124 -42 259 0 75 3 135 8 133 4 -2 30 -15 58 -30 l51 -27 6 77 c10
149 90 332 159 365 58 28 63 1 17 -96 -58 -125 -88 -362 -55 -440 18 -43 55
-67 118 -74 l51 -6 -7 28 c-27 109 15 353 68 387 29 20 32 9 61 -189 13 -89
31 -175 39 -192 24 -46 105 -68 322 -86 66 -5 71 -4 82 17 21 43 52 159 58
222 6 54 3 71 -15 108 -28 56 -100 128 -238 239 -120 96 -149 127 -133 143 33
33 180 -76 321 -238 46 -53 86 -96 90 -96 10 0 19 120 13 175 -15 140 -71 213
-215 284 -91 44 -218 81 -283 81 -52 0 -76 14 -58 32 19 19 161 13 257 -12 92
-23 187 -67 228 -105 33 -32 34 -16 3 50 -60 128 -183 183 -416 185 -97 1 -85
14 25 24 46 5 105 2 174 -8 57 -9 106 -14 108 -12 19 18 -89 117 -145 134
-110 33 -215 24 -343 -28 -38 -15 -69 -24 -69 -20 0 11 111 80 128 80 7 0 10
5 7 10 -8 14 -95 13 -153 -2 -82 -20 -175 -93 -195 -152 -2 -6 -19 2 -38 16
-19 15 -46 30 -61 33 l-28 7 0 805 0 805 38 -22 c434 -258 507 -291 596 -272
44 9 176 77 176 90 0 7 -16 16 -155 92 -33 18 -76 43 -95 56 -19 12 -141 83
-270 157 -129 74 -341 197 -470 272 -129 76 -269 157 -310 180 -41 23 -136 77
-210 120 -74 43 -155 89 -180 103 -164 90 -190 113 -190 172 0 33 -5 39 -78
88 -163 108 -220 190 -187 268 8 19 12 34 11 34 -2 0 -26 -20 -53 -44z m1417
-2946 c12 -8 9 -10 -12 -10 -16 0 -28 5 -28 10 0 13 20 13 40 0z m76 -284 c7
-19 -1 -32 -63 -100 l-53 -58 0 69 c0 64 2 70 28 85 33 21 81 23 88 4z m-445
-359 c-2 -5 -8 -4 -13 1 -7 7 -7 52 -2 129 l9 118 5 -120 c3 -66 3 -124 1
-128z m-61 98 c0 -68 -3 -71 -44 -55 l-26 9 25 36 c13 20 27 45 30 56 11 33
15 21 15 -46z m429 -821 c1 -7 -8 -14 -19 -17 -19 -5 -20 0 -19 61 l1 67 18
-50 c10 -27 19 -55 19 -61z m289 -396 c25 -20 14 -69 -26 -112 -20 -22 -47
-54 -60 -70 -12 -16 -24 -27 -27 -25 -2 3 -10 45 -18 94 -17 101 -14 107 43
123 36 10 66 7 88 -10z m-163 -161 c16 -104 16 -109 -3 -150 -11 -23 -22 -50
-25 -59 -6 -15 -20 -18 -98 -18 l-92 0 6 49 c9 78 59 176 124 242 32 32 61 55
65 51 4 -4 15 -56 23 -115z m613 -102 c2 -29 -9 -69 -43 -148 -25 -60 -45
-115 -45 -123 0 -8 -4 -14 -10 -14 -8 0 -112 46 -129 58 -8 5 62 127 106 184
75 98 116 113 121 43z m-865 -707 c9 -68 21 -168 27 -223 16 -144 18 -152 36
-133 13 13 13 38 0 221 -9 114 -16 218 -16 233 l0 27 98 -7 c144 -9 144 -9
136 -65 -3 -25 -19 -101 -36 -169 -16 -67 -28 -128 -25 -135 6 -19 53 81 71
153 9 36 19 94 22 128 4 39 11 62 19 62 23 0 165 -50 214 -75 113 -57 221
-153 221 -196 0 -40 -116 -140 -221 -191 -338 -165 -826 -136 -1105 64 -46 33
-114 112 -114 133 0 24 106 122 175 162 74 43 231 103 269 103 21 0 24 -8 45
-132 12 -73 24 -135 28 -138 3 -3 3 61 1 142 l-5 147 41 4 c23 2 55 4 72 5
l31 2 16 -122z"/>
<path d="M14137 8421 c-4 -17 -3 -21 5 -13 5 5 8 16 6 23 -3 8 -7 3 -11 -10z"/>
<path d="M8530 8426 c0 -2 7 -7 16 -10 8 -3 12 -2 9 4 -6 10 -25 14 -25 6z"/>
<path d="M13976 8003 c-6 -14 -5 -15 5 -6 7 7 10 15 7 18 -3 3 -9 -2 -12 -12z"/>
<path d="M10460 7966 c0 -2 7 -9 15 -16 12 -10 15 -10 15 4 0 9 -7 16 -15 16
-8 0 -15 -2 -15 -4z"/>
<path d="M10585 7916 c-48 -48 -38 -63 103 -149 131 -80 362 -219 443 -268
l47 -27 6 29 c3 15 14 37 26 49 l20 20 -23 14 c-34 21 -581 349 -589 353 -4 2
-19 -7 -33 -21z"/>
<path d="M9920 7873 c0 -7 -5 -13 -11 -13 -10 0 -79 -39 -172 -97 -21 -13 -43
-21 -49 -17 -7 4 -8 3 -4 -4 4 -7 -10 -19 -36 -32 -24 -11 -50 -25 -58 -30
-64 -41 -273 -160 -281 -160 -6 0 -7 -5 -3 -11 4 -7 1 -10 -7 -7 -8 3 -21 0
-29 -7 -8 -7 -40 -25 -70 -41 -30 -15 -62 -33 -70 -40 -8 -6 -35 -23 -60 -36
-38 -22 -148 -85 -276 -158 -17 -10 -62 -37 -99 -59 -37 -23 -69 -41 -71 -41
-2 0 -48 -26 -101 -57 -152 -90 -146 -87 -180 -69 -17 8 -34 12 -38 8 -4 -4
-2 4 5 18 10 21 10 23 -1 13 -16 -16 -33 -17 -23 -1 4 7 3 8 -4 4 -7 -4 -52
16 -102 43 -49 28 -94 51 -100 51 -6 0 -8 5 -4 12 5 7 3 8 -6 3 -7 -4 -15 -4
-19 1 -11 16 -64 47 -55 33 4 -8 -5 -3 -21 10 -17 12 -45 29 -63 36 -18 8 -93
48 -167 90 -74 41 -140 75 -146 75 -5 0 -7 5 -3 12 4 6 3 8 -4 4 -6 -3 -26 3
-44 13 -18 11 -49 28 -68 38 -114 57 -219 121 -212 128 4 4 2 5 -5 1 -6 -3
-28 3 -48 15 -37 22 -60 19 -34 -5 8 -7 59 -37 114 -66 55 -29 105 -56 110
-60 6 -4 69 -38 140 -75 72 -37 155 -82 185 -100 30 -18 143 -79 250 -135 107
-57 213 -114 234 -128 l39 -24 -26 -17 c-15 -8 -25 -20 -24 -26 5 -14 39 -6
52 12 10 13 16 13 36 3 43 -22 59 -51 59 -112 l0 -56 -64 -36 c-35 -20 -70
-36 -77 -36 -6 0 -111 65 -233 145 -122 79 -345 225 -496 323 -234 153 -275
183 -278 206 -3 22 -6 25 -23 16 -13 -8 -19 -21 -19 -46 0 -19 4 -33 8 -30 5
3 15 -4 22 -15 8 -10 19 -19 23 -19 5 0 35 -18 67 -39 31 -21 75 -48 98 -60
23 -12 42 -26 42 -31 0 -6 3 -9 8 -8 4 2 25 -10 47 -25 81 -56 356 -237 362
-237 3 0 22 -13 43 -30 21 -16 41 -30 44 -30 16 0 75 -48 68 -55 -4 -5 -2 -5
5 -2 10 6 94 -41 130 -73 7 -6 16 -11 20 -11 5 -1 24 -14 43 -29 53 -41 149
-100 163 -100 7 0 21 6 32 14 11 7 37 23 58 35 20 11 53 30 73 41 19 11 41 17
47 14 7 -4 9 -3 4 1 -8 9 86 72 141 94 17 7 32 17 32 20 0 4 30 23 68 42 37
19 69 37 72 40 3 3 12 8 20 12 8 3 42 22 75 42 33 19 71 41 85 48 14 6 34 20
44 29 11 10 26 18 33 18 8 0 11 5 7 11 -4 8 1 9 16 4 14 -5 20 -3 16 3 -3 6
21 23 54 39 33 15 60 31 60 35 0 5 6 8 14 8 7 0 65 31 127 69 63 37 141 83
174 100 142 77 138 74 119 88 -20 15 -7 18 15 4 10 -6 27 -1 53 15 21 14 44
22 50 18 7 -4 8 -3 4 4 -4 7 9 21 32 36 21 13 39 30 40 38 1 7 4 78 7 158 3
80 7 154 10 165 2 11 0 27 -5 35 -7 10 -10 11 -10 3z m-115 -177 c25 -27 27
-34 21 -85 -4 -31 -7 -64 -8 -73 -1 -9 -6 -14 -10 -12 -4 3 -8 -1 -8 -9 0 -7
-10 -24 -22 -37 -13 -14 -22 -28 -20 -32 1 -5 -1 -7 -5 -7 -26 4 -81 -34 -75
-53 1 -5 -2 -7 -7 -3 -16 9 -83 -23 -75 -36 4 -8 3 -9 -4 -5 -10 6 -71 -23
-160 -76 -17 -11 -29 -25 -26 -30 4 -7 2 -8 -4 -4 -16 10 -54 -12 -46 -26 4
-7 3 -8 -4 -4 -6 3 -48 -15 -94 -40 -46 -26 -109 -61 -140 -77 -31 -17 -55
-34 -52 -39 3 -4 -4 -8 -16 -8 -13 0 -19 -4 -14 -12 4 -6 3 -8 -4 -4 -6 3 -26
-3 -44 -14 -40 -24 -54 -25 -81 -2 -25 20 -29 50 -15 107 6 22 11 55 13 73 1
18 5 35 9 39 4 4 5 -5 2 -20 -3 -16 -1 -25 5 -22 5 4 9 12 9 19 0 7 9 21 20
31 16 14 18 21 8 28 -9 6 -8 7 5 3 21 -7 139 53 131 66 -3 5 2 8 12 6 12 -2
18 2 16 10 -1 8 2 11 7 7 9 -5 54 17 71 35 3 3 12 6 20 8 31 7 150 85 143 95
-3 6 -1 7 5 3 10 -6 173 78 212 110 8 6 43 26 78 45 34 18 62 36 62 39 0 3 10
6 21 7 12 1 27 7 33 14 8 9 5 10 -16 5 -15 -3 -29 -3 -32 2 -2 4 8 8 24 7 18
0 38 -11 55 -29z m25 -196 c0 -5 -5 -10 -11 -10 -5 0 -7 5 -4 10 3 6 8 10 11
10 2 0 4 -4 4 -10z m-595 -80 c3 -6 -1 -7 -9 -4 -18 7 -21 14 -7 14 6 0 13 -4
16 -10z m-155 -95 c0 -2 -10 -9 -22 -15 -22 -11 -22 -10 -4 4 21 17 26 19 26
11z m-149 -72 c13 -16 12 -17 -3 -4 -10 7 -18 15 -18 17 0 8 8 3 21 -13z
m-169 -207 c13 -19 8 -60 -12 -105 -53 -116 -168 -123 -146 -8 17 91 122 166
158 113z m168 -70 c0 -3 -4 -8 -10 -11 -5 -3 -10 -1 -10 4 0 6 5 11 10 11 6 0
10 -2 10 -4z m-342 -31 c-3 -3 -9 2 -12 12 -6 14 -5 15 5 6 7 -7 10 -15 7 -18z
m2 -89 c0 -3 -4 -8 -10 -11 -5 -3 -10 -1 -10 4 0 6 5 11 10 11 6 0 10 -2 10
-4z m79 -30 c-2 -2 -20 -6 -39 -10 -25 -4 -31 -3 -20 4 14 9 69 15 59 6z"/>
<path d="M11220 7518 c-21 -35 -26 -68 -10 -68 5 0 16 15 24 34 8 18 19 37 25
40 16 10 13 26 -4 26 -8 0 -24 -15 -35 -32z"/>
<path d="M9878 7408 c-7 -7 -33 -23 -58 -36 -25 -13 -65 -36 -90 -52 -25 -15
-65 -39 -90 -52 -97 -51 -187 -103 -236 -135 -34 -22 -58 -31 -69 -26 -12 4
-16 3 -12 -5 7 -11 -25 -37 -78 -62 -16 -8 -47 -25 -68 -38 -21 -12 -43 -20
-49 -16 -7 4 -8 3 -4 -5 5 -7 -4 -15 -23 -22 -17 -6 -29 -15 -26 -19 3 -5 -16
-16 -41 -26 -25 -9 -63 -30 -85 -46 -21 -15 -41 -28 -45 -28 -3 0 -26 -12 -52
-27 -25 -15 -52 -28 -59 -29 -7 -1 -20 -9 -29 -18 -8 -9 -23 -16 -31 -16 -9 0
-13 -3 -10 -6 9 -9 -76 -54 -87 -46 -5 3 -6 -1 -1 -8 6 -10 3 -12 -13 -8 -12
4 -20 2 -16 -3 3 -5 -6 -14 -20 -21 -14 -6 -26 -15 -26 -20 0 -5 -5 -6 -10 -3
-6 4 -17 1 -25 -5 -8 -6 -19 -9 -25 -5 -6 4 -9 2 -8 -4 2 -6 -15 -21 -37 -34
-22 -12 -41 -25 -43 -29 -2 -5 -10 -8 -18 -8 -8 0 -14 -4 -14 -10 0 -21 -54
-9 -98 23 -26 17 -49 34 -52 38 -3 3 -22 15 -43 28 -20 12 -34 27 -31 33 4 6
-2 8 -16 3 -19 -6 -22 -4 -16 10 4 12 2 16 -8 12 -7 -3 -22 2 -32 12 -11 9
-36 27 -56 40 -21 12 -38 27 -38 32 0 5 -11 11 -24 15 -14 3 -32 14 -42 25 -9
10 -23 19 -30 19 -8 0 -19 9 -26 20 -7 11 -17 20 -22 20 -16 0 -220 142 -273
190 -12 11 -26 19 -30 19 -14 -4 -43 13 -38 21 3 4 -6 10 -18 14 -13 3 -36 17
-53 31 -16 14 -33 25 -38 25 -4 0 -6 7 -3 14 4 11 1 13 -10 9 -9 -4 -21 0 -27
9 -6 8 -58 45 -116 81 l-105 67 -6 -48 c-3 -26 -9 -117 -13 -203 l-7 -156 38
-23 c21 -13 58 -34 83 -47 25 -14 74 -42 110 -63 128 -73 206 -118 250 -142
25 -14 106 -60 180 -103 74 -43 155 -90 180 -104 25 -14 118 -67 208 -118 92
-52 169 -90 177 -87 8 4 12 10 9 15 -3 5 4 9 15 9 12 0 21 5 21 10 0 6 3 9 8
8 14 -3 42 14 36 23 -3 5 3 6 12 2 13 -5 15 -3 9 7 -6 10 -4 12 8 7 10 -3 17
-2 17 4 0 6 4 8 9 4 5 -3 16 2 24 10 9 8 21 15 27 15 6 0 9 4 6 9 -3 5 1 12
10 15 10 4 13 2 8 -7 -4 -6 4 -2 18 11 13 12 30 22 36 22 7 0 12 5 12 10 0 6
5 10 12 10 6 0 20 8 31 18 11 9 17 11 13 5 -11 -20 0 -15 51 20 27 18 60 39
75 46 15 8 25 19 21 24 -3 6 -1 7 5 3 13 -8 63 14 56 26 -3 4 8 11 25 14 17 4
28 10 25 15 -3 5 0 10 5 10 6 1 16 3 21 4 6 1 15 3 21 4 5 0 7 5 4 11 -3 6 1
7 9 4 9 -4 18 1 22 10 3 9 12 16 19 16 8 0 21 7 29 16 9 8 16 12 16 8 0 -4 8
0 18 9 9 8 22 16 27 18 24 4 35 12 29 20 -3 5 3 6 12 2 11 -4 15 -2 11 4 -4 6
0 14 9 17 9 3 12 2 8 -5 -3 -6 3 -5 15 3 12 7 21 16 21 20 0 5 6 8 14 8 8 0
16 7 20 15 3 8 11 15 18 15 9 0 8 -3 -2 -10 -10 -7 -11 -10 -2 -10 7 0 15 7
18 15 4 8 10 13 14 10 8 -5 52 29 46 36 -3 2 6 5 19 5 24 2 78 37 70 46 -3 3
5 4 18 4 12 -1 21 4 19 12 -1 6 5 12 13 12 21 0 93 37 118 61 12 10 27 19 34
19 7 0 13 4 13 8 0 5 6 9 13 9 6 0 37 16 67 35 30 19 65 38 78 42 12 4 20 11
17 16 -3 4 6 11 19 14 32 8 41 35 19 52 -10 7 -20 14 -23 14 -3 0 -127 -70
-275 -156 -260 -150 -569 -329 -1024 -591 -118 -68 -218 -123 -223 -123 -10 0
-118 65 -678 408 -385 235 -368 221 -356 306 5 32 13 45 37 59 41 23 45 22 58
-13 10 -30 34 -40 47 -19 4 7 -1 16 -10 21 -9 5 -16 13 -16 19 0 12 9 6 242
-156 103 -71 267 -185 365 -252 98 -67 209 -144 246 -170 62 -43 70 -46 90
-33 12 7 43 24 68 37 26 12 52 30 59 38 7 8 19 15 27 15 8 0 27 8 41 19 25 17
392 228 512 294 30 17 78 46 107 64 29 18 54 33 57 33 3 0 52 28 108 63 57 34
118 69 135 76 18 7 30 18 27 23 -3 5 0 8 8 6 7 -1 27 7 45 20 17 12 36 22 42
22 6 0 11 5 11 10 0 6 7 10 15 10 8 0 15 5 15 11 0 5 5 7 10 4 6 -3 10 -1 10
4 0 6 9 11 19 11 11 0 23 5 26 10 4 6 25 20 48 31 23 12 45 26 48 31 3 5 9 9
13 9 12 -2 86 44 91 57 2 6 3 12 0 12 -2 0 -10 -6 -17 -12z"/>
<path d="M4514 6913 c-58 -56 -69 -87 -84 -234 -15 -139 -32 -195 -95 -316
l-54 -102 26 -47 c20 -36 29 -44 35 -33 75 126 117 184 150 203 37 21 37 21
57 1 27 -27 48 -116 61 -258 8 -92 7 -159 -5 -316 -24 -307 -8 -369 129 -507
96 -96 212 -174 316 -211 41 -14 76 -27 77 -27 1 -1 -5 -30 -14 -66 -29 -127
-6 -233 90 -405 63 -111 80 -168 98 -314 l12 -99 41 -16 c23 -9 44 -16 47 -16
3 0 5 47 4 104 0 57 -3 102 -6 100 -3 -2 -4 7 -2 21 6 28 38 65 57 65 22 0
101 -94 173 -204 191 -293 197 -300 297 -349 298 -146 657 -119 817 62 22 24
39 53 39 65 0 41 -38 83 -141 156 -57 40 -130 95 -161 122 -57 48 -57 49 -44
17 27 -64 -10 -106 -112 -128 -156 -33 -322 12 -434 117 -27 25 -101 112 -164
194 -129 166 -276 344 -383 463 -118 131 -125 146 -132 305 -3 86 -12 156 -23
193 -17 57 -18 57 -57 57 -85 0 -180 73 -234 180 -50 98 -66 188 -75 405 l-8
200 -56 128 c-65 147 -135 347 -161 460 -10 42 -22 77 -25 77 -4 0 -29 -21
-56 -47z"/>
<path d="M8338 6543 c7 -3 16 -2 19 1 4 3 -2 6 -13 5 -11 0 -14 -3 -6 -6z"/>
<path d="M4446 6273 c-6 -14 -5 -15 5 -6 7 7 10 15 7 18 -3 3 -9 -2 -12 -12z"/>
<path d="M4416 6232 c-3 -5 1 -9 9 -9 8 0 12 4 9 9 -3 4 -7 8 -9 8 -2 0 -6 -4
-9 -8z"/>
<path d="M16645 5860 c-3 -6 1 -7 9 -4 18 7 21 14 7 14 -6 0 -13 -4 -16 -10z"/>
<path d="M16601 5754 c0 -11 3 -14 6 -6 3 7 2 16 -1 19 -3 4 -6 -2 -5 -13z"/>
<path d="M1810 5376 c0 -2 7 -7 16 -10 8 -3 12 -2 9 4 -6 10 -25 14 -25 6z"/>
<path d="M2055 5150 c3 -5 8 -10 11 -10 2 0 4 5 4 10 0 6 -5 10 -11 10 -5 0
-7 -4 -4 -10z"/>
<path d="M1351 5136 c-9 -11 -9 -16 1 -22 7 -4 10 -4 6 1 -4 4 -3 14 3 22 6 7
9 13 6 13 -2 0 -10 -6 -16 -14z"/>
<path d="M8250 3088 l0 -1963 82 -45 c44 -25 83 -45 85 -44 3 0 41 20 84 45
l79 44 0 1963 c0 1079 -3 1962 -7 1962 -5 0 -34 -16 -66 -35 -73 -44 -104 -44
-177 0 -32 19 -63 35 -69 35 -8 0 -11 -521 -11 -1962z"/>
<path d="M2815 4980 c-3 -5 -1 -10 4 -10 6 0 11 5 11 10 0 6 -2 10 -4 10 -3 0
-8 -4 -11 -10z"/>
<path d="M3022 4915 c0 -16 2 -22 5 -12 2 9 2 23 0 30 -3 6 -5 -1 -5 -18z"/>
<path d="M2990 4920 c0 -5 5 -10 11 -10 5 0 7 5 4 10 -3 6 -8 10 -11 10 -2 0
-4 -4 -4 -10z"/>
<path d="M2571 4834 c0 -11 3 -14 6 -6 3 7 2 16 -1 19 -3 4 -6 -2 -5 -13z"/>
<path d="M2782 4781 c-11 -7 -11 -9 0 -14 9 -3 15 1 15 9 0 8 -1 14 -1 14 -1
0 -7 -4 -14 -9z"/>
<path d="M2291 4624 c0 -11 3 -14 6 -6 3 7 2 16 -1 19 -3 4 -6 -2 -5 -13z"/>
<path d="M2934 4629 c-4 -7 -3 -9 4 -5 5 3 13 0 15 -6 4 -9 6 -10 6 -1 1 17
-16 25 -25 12z"/>
<path d="M2736 4587 c3 -10 9 -15 12 -12 3 3 0 11 -7 18 -10 9 -11 8 -5 -6z"/>
<path d="M3000 4328 c0 -132 8 -188 25 -188 7 0 18 -7 25 -15 7 -8 18 -15 24
-15 8 0 8 2 0 8 -6 4 -12 36 -13 72 -2 70 -37 236 -52 246 -5 3 -9 -42 -9
-108z"/>
<path d="M5451 4384 c0 -11 3 -14 6 -6 3 7 2 16 -1 19 -3 4 -6 -2 -5 -13z"/>
<path d="M2336 4333 c-6 -14 -5 -15 5 -6 7 7 10 15 7 18 -3 3 -9 -2 -12 -12z"/>
<path d="M3071 4284 c0 -11 3 -14 6 -6 3 7 2 16 -1 19 -3 4 -6 -2 -5 -13z"/>
<path d="M1500 4270 c-9 -6 -10 -10 -3 -10 6 0 15 5 18 10 8 12 4 12 -15 0z"/>
<path d="M2971 4234 c0 -11 3 -14 6 -6 3 7 2 16 -1 19 -3 4 -6 -2 -5 -13z"/>
<path d="M2176 4227 c3 -10 9 -15 12 -12 3 3 0 11 -7 18 -10 9 -11 8 -5 -6z"/>
<path d="M1349 4163 c-13 -16 -12 -17 4 -4 16 13 21 21 13 21 -2 0 -10 -8 -17
-17z"/>
<path d="M2966 4158 c3 -5 10 -6 15 -3 13 9 11 12 -6 12 -8 0 -12 -4 -9 -9z"/>
<path d="M2983 4084 c0 -23 1 -24 9 -10 7 12 7 21 0 28 -6 6 -9 0 -9 -18z"/>
<path d="M1247 4016 c-4 -10 -3 -15 3 -11 6 3 10 1 10 -6 0 -7 3 -10 6 -6 3 3
2 13 -4 22 -8 16 -9 16 -15 1z"/>
<path d="M2490 3995 c0 -5 5 -17 10 -25 5 -8 10 -10 10 -5 0 6 -5 17 -10 25
-5 8 -10 11 -10 5z"/>
<path d="M1721 3944 c0 -11 3 -14 6 -6 3 7 2 16 -1 19 -3 4 -6 -2 -5 -13z"/>
<path d="M1247 3927 c-3 -8 1 -14 8 -14 7 0 11 6 8 14 -3 7 -6 13 -8 13 -2 0
-5 -6 -8 -13z"/>
<path d="M1666 3893 c-6 -14 -5 -15 5 -6 7 7 10 15 7 18 -3 3 -9 -2 -12 -12z"/>
<path d="M1643 3868 c1 -15 6 -23 11 -18 4 4 4 16 -2 26 -9 16 -10 14 -9 -8z"/>
<path d="M1387 3823 c3 -7 6 -13 8 -13 2 0 5 6 8 13 3 8 -1 14 -8 14 -7 0 -11
-6 -8 -14z"/>
<path d="M2878 3823 c7 -3 16 -2 19 1 4 3 -2 6 -13 5 -11 0 -14 -3 -6 -6z"/>
<path d="M15658 3749 c-2 -16 -40 -43 -147 -105 -79 -45 -150 -89 -157 -96 -7
-7 -14 -26 -16 -41 -3 -26 2 -30 57 -54 33 -13 116 -49 184 -79 l124 -55 22
21 c36 34 84 133 96 197 18 98 -8 147 -113 207 -46 27 -46 27 -50 5z"/>
<path d="M13677 3664 c-103 -60 -120 -87 -113 -177 3 -42 15 -89 30 -122 45
-100 154 -194 225 -195 34 0 179 79 208 115 23 27 25 35 21 110 -6 118 -15
130 -139 179 l-104 41 -3 48 c-3 41 -6 47 -25 47 -12 0 -57 -21 -100 -46z"/>
<path d="M2302 3440 c0 -14 2 -19 5 -12 2 6 2 18 0 25 -3 6 -5 1 -5 -13z"/>
<path d="M1620 3371 c0 -5 5 -13 10 -16 6 -3 10 -2 10 4 0 5 -4 13 -10 16 -5
3 -10 2 -10 -4z"/>
<path d="M16310 2895 c0 -52 -21 -57 -108 -28 l-74 25 -38 -27 c-49 -34 -63
-69 -58 -148 10 -159 169 -337 277 -310 14 3 61 26 104 51 97 56 111 80 105
172 -7 92 -43 167 -117 240 -69 70 -91 76 -91 25z"/>
<path d="M13471 2645 c-63 -68 -95 -144 -99 -236 -5 -89 6 -107 101 -163 123
-74 167 -71 261 15 73 67 115 150 122 245 7 84 -11 118 -81 160 l-47 27 -67
-36 -66 -35 -34 24 c-19 13 -37 28 -41 34 -4 6 -24 -8 -49 -35z"/>
<path d="M14865 2271 c-116 -69 -136 -121 -97 -248 42 -133 151 -243 243 -243
47 0 196 85 216 123 37 72 9 203 -65 302 -33 45 -37 48 -40 27 -3 -21 -7 -23
-65 -20 l-62 3 -8 53 c-6 39 -13 52 -25 52 -9 -1 -53 -22 -97 -49z"/>
</g>
</svg>
